<svg xmlns="http://www.w3.org/2000/svg" width="164" height="70" fill="none"><rect width="163" height="69" x=".5" y=".5" stroke="#363636" rx="34.5"/><path fill="#C1B9B9" d="m77.044 42 5.254-14.307h1.66L89.212 42h-1.836L83.51 31.102a11.833 11.833 0 0 1-.205-.635 42.57 42.57 0 0 1-.156-.625h-.088a11.74 11.74 0 0 1-.371 1.26L78.802 42h-1.758Zm2.237-3.76.537-1.455h6.591l.528 1.455H79.28ZM90.077 42V27.107h1.709V42h-1.709Zm4 0V27.107h1.709v6.006a3.33 3.33 0 0 1 1.2-1.015c.502-.254 1.108-.381 1.817-.381 1.276 0 2.295.478 3.057 1.435.761.95 1.142 2.162 1.142 3.633v.313c0 1.471-.381 2.688-1.142 3.652-.762.964-1.781 1.445-3.057 1.445-.71 0-1.331-.146-1.865-.44-.534-.292-.931-.65-1.192-1.073h-.048L95.629 42h-1.552Zm1.709-2.959c.208.45.537.853.986 1.211.456.351 1.012.527 1.67.527.963 0 1.67-.351 2.119-1.054.456-.71.684-1.586.684-2.627v-.313c0-1.041-.228-1.91-.684-2.607-.449-.703-1.159-1.055-2.129-1.055-.651 0-1.204.18-1.66.537-.456.352-.785.755-.987 1.211v4.17Zm8.257 0c0-1.016.4-1.81 1.201-2.383.807-.573 1.839-.86 3.096-.86h2.305v-.732c0-.618-.163-1.116-.489-1.494-.319-.377-.862-.566-1.631-.566-.774 0-1.334.16-1.679.478-.339.313-.508.687-.508 1.123v.078h-1.709v-.097c0-.794.351-1.485 1.055-2.07.709-.593 1.67-.89 2.88-.89 1.205 0 2.136.287 2.793.86.664.567.997 1.426.997 2.578v4.59c0 .423.032.824.097 1.201.065.371.156.7.274.987V42h-1.651a3.203 3.203 0 0 1-.254-.635 4.1 4.1 0 0 1-.136-.781c-.241.417-.629.788-1.163 1.113-.527.326-1.21.488-2.05.488-.964 0-1.778-.27-2.442-.81-.657-.54-.986-1.318-.986-2.334Zm1.709-.088c0 .586.169 1.042.508 1.367.345.326.869.489 1.572.489.716 0 1.364-.244 1.943-.733.58-.495.87-1.022.87-1.582V37.04h-2.11c-.918 0-1.611.173-2.08.518-.469.345-.703.81-.703 1.396ZM114.517 42V31.912h1.553l.068 1.309h.049a3.923 3.923 0 0 1 1.338-1.104 3.918 3.918 0 0 1 1.777-.4c1.009 0 1.813.286 2.412.86.599.572.899 1.536.899 2.89V42h-1.709v-6.543c0-.82-.186-1.406-.557-1.758-.364-.358-.885-.537-1.562-.537-.573 0-1.081.156-1.524.469-.442.312-.787.72-1.035 1.22V42h-1.709Zm10.308 0V31.912h1.709V42h-1.709Zm-.224-13.242c0-.293.091-.537.273-.733.189-.201.456-.302.801-.302.352 0 .618.1.801.302.189.196.283.44.283.733 0 .3-.094.55-.283.752-.183.195-.449.293-.801.293-.345 0-.612-.101-.801-.303a1.068 1.068 0 0 1-.273-.742Zm3.677 10.283c0-1.016.401-1.81 1.201-2.383.808-.573 1.839-.86 3.096-.86h2.305v-.732c0-.618-.163-1.116-.489-1.494-.319-.377-.862-.566-1.63-.566-.775 0-1.335.16-1.68.478-.339.313-.508.687-.508 1.123v.078h-1.709v-.097c0-.794.352-1.485 1.055-2.07.709-.593 1.67-.89 2.881-.89 1.204 0 2.135.287 2.793.86.664.567.996 1.426.996 2.578v4.59c0 .423.032.824.097 1.201.065.371.157.7.274.987V42h-1.651a3.265 3.265 0 0 1-.254-.635 4.1 4.1 0 0 1-.136-.781c-.241.417-.629.788-1.162 1.113-.528.326-1.211.488-2.051.488-.964 0-1.777-.27-2.442-.81-.657-.54-.986-1.318-.986-2.334Zm1.709-.088c0 .586.169 1.042.508 1.367.345.326.869.489 1.572.489.716 0 1.364-.244 1.944-.733.579-.495.869-1.022.869-1.582V37.04h-2.11c-.918 0-1.611.173-2.08.518-.469.345-.703.81-.703 1.396Z"/><g clip-path="url(#a)"><path fill="red" d="M20 20h40v30H20V20Z"/><path fill="#000001" d="M37 25.831c-.288 0-.769.094-.763.313-.812-.131-.893.2-.843.5.075-.119.168-.188.243-.194.107-.019.22.019.338.088.112.07.213.156.3.256-.288.069-.513.025-.738-.013a1.031 1.031 0 0 1-.356-.15c-.094-.062-.125-.125-.269-.268-.168-.175-.35-.125-.293.143.13.25.35.363.625.413.13.018.33.062.556.062.225 0 .475-.031.612 0-.08.05-.175.144-.362.175-.188.038-.469-.112-.644-.15.019.144.206.282.569.357.6.125 1.094.224 1.425.406.262.146.493.341.681.575.294.343.313.612.325.675.063.55-.131.862-.494.962-.175.044-.5-.044-.612-.181-.125-.137-.231-.375-.2-.75.031-.137.194-.519.056-.594a17.14 17.14 0 0 0-2.019-.944c-.156-.062-.28.15-.33.238a3.138 3.138 0 0 1-2.25-1.481c-.263-.475-.707 0-.632.456.119.5.5.862.962 1.125.47.256 1.063.512 1.657.5.325.063.318.475-.063.556-.756 0-1.362-.012-1.931-.562-.431-.394-.669.075-.55.337.212.819 1.381 1.05 2.562.788.463-.075.188.412.063.418-.5.357-1.381.7-2.163 0-.356-.274-.6-.05-.462.344.344 1.031 1.669.813 2.575.313.231-.131.444.168.162.4-1.13.787-1.693.8-2.206.5-.637-.256-.687.45-.312.687.418.25 1.487.063 2.275-.437.337-.25.35.143.137.3-.931.806-1.3 1.019-2.269.887-.48-.037-.475.556-.1.788.52.319 1.532-.206 2.313-.863.331-.175.387.113.225.457a3.37 3.37 0 0 1-1.363 1.125c-.437.168-.85.143-1.143.043-.363-.125-.407.25-.207.588.12.206.613.269 1.15.081.538-.188 1.113-.638 1.507-1.156.343-.306.306.1.143.387-.787 1.25-1.512 1.713-2.468 1.638-.42-.075-.52.25-.25.562.475.388 1.062.375 1.587-.012.456-.438 1.338-1.4 1.8-1.913.325-.256.431 0 .331.525-.087.3-.3.625-.893.85-.407.231-.1.55.2.563.168 0 .506-.2.768-.488.338-.387.363-.643.55-1.243.175-.288.494-.15.494.15-.156.6-.281.706-.594.95-.293.28.207.375.375.256.488-.325.663-.75.825-1.138.125-.275.463-.143.3.313-.375 1.087-1 1.512-2.08 1.737-.107.019-.176.081-.138.206l.437.438c-.669.2-1.212.313-1.887.5l-.925-.613c-.082-.2-.125-.512-.613-.293-.325-.15-.481-.094-.662.062.262 0 .375.075.48.194.138.356.45.394.77.294.206.169.312.306.525.481l-1.044-.031c-.375-.394-.663-.375-.925-.063-.206.032-.288.032-.425.275.212-.087.35-.112.444-.018.393.23.65.18.843 0l1.094.068c-.137.125-.325.188-.469.3-.562-.162-.862.063-.962.519a1.062 1.062 0 0 0-.075.581c.05-.187.144-.343.306-.437.5.125.688-.081.719-.381.25-.2.612-.244.856-.444.288.087.425.143.713.237.1.313.33.431.706.35.437.013.362.2.4.344.125-.206.119-.413-.156-.6-.1-.269-.325-.394-.613-.237-.275-.076-.344-.188-.619-.27.688-.218 1.175-.268 1.863-.487l.481.425c.094.056.181.069.238 0 .43-.625.625-1.169 1.018-1.581.157-.175.35-.4.563-.456a.32.32 0 0 1 .325.081c.081.087.15.256.125.513-.044.356-.131.475-.231.687-.107.219-.225.35-.357.519-.25.331-.587.525-.787.656-.4.256-.563.144-.875.125-.4.044-.5.238-.175.506.3.163.575.181.8.138.187-.038.412-.281.575-.413.175-.206.475.038.269.282-.37.437-.732.725-1.188.718-.481.063-.387.331-.075.463.575.231 1.088-.206 1.35-.5.2-.219.344-.225.313.118-.207.62-.475.857-.925.888-.363-.038-.37.25-.1.438.6.412 1.037-.3 1.243-.725.144-.388.37-.207.394.112 0 .431-.187.775-.706 1.213.394.63.856 1.275 1.25 1.906l1.2-13.375-1.2-2.107c-.125-.112-.55-.612-.656-.687-.044-.038-.063-.063-.007-.087.057-.026.188-.05.282-.063-.25-.256-.475-.338-.957-.475.12-.05.232-.025.582-.038a1.887 1.887 0 0 0-.844-.637c.262-.188.312-.2.575-.419a5.384 5.384 0 0 1-1.219-.237 2.34 2.34 0 0 0-.75-.213H37Zm.05.525c.237 0 .381.081.381.181 0 .1-.144.182-.381.182-.238 0-.388-.094-.388-.188 0-.1.15-.175.388-.175Z"/><path fill="#000001" d="M43 25.831c.288 0 .769.094.763.313.812-.131.893.2.843.5-.075-.119-.168-.188-.243-.194-.107-.019-.22.019-.338.088-.112.07-.213.156-.3.256.288.069.513.025.738-.013.127-.027.248-.078.356-.15.094-.062.125-.125.269-.268.168-.175.35-.125.293.143-.13.25-.35.363-.625.413-.13.018-.33.062-.556.062-.225 0-.475-.031-.612 0 .08.05.175.144.362.175.188.038.469-.112.644-.15-.019.144-.206.282-.569.357-.6.125-1.094.224-1.425.406a2.332 2.332 0 0 0-.681.575c-.294.343-.313.612-.325.675-.063.55.131.862.494.962.175.044.5-.044.612-.181.125-.137.231-.375.2-.75-.031-.137-.194-.519-.056-.594a17.14 17.14 0 0 1 2.019-.944c.156-.062.28.15.33.238a3.138 3.138 0 0 0 2.25-1.481c.263-.475.707 0 .632.456-.119.5-.5.862-.962 1.125-.47.256-1.063.512-1.657.5-.325.063-.318.475.063.556.756 0 1.362-.012 1.931-.562.431-.394.669.075.55.337-.212.819-1.381 1.05-2.562.788-.463-.075-.188.412-.063.418.5.357 1.381.7 2.163 0 .356-.274.6-.05.462.344-.344 1.031-1.669.813-2.575.313-.231-.131-.444.168-.162.4 1.13.787 1.693.8 2.206.5.637-.256.687.45.312.687-.418.25-1.487.063-2.275-.437-.337-.25-.35.143-.137.3.931.806 1.3 1.019 2.269.887.48-.037.475.556.1.788-.52.319-1.532-.206-2.313-.863-.331-.175-.387.113-.225.457.346.489.816.877 1.363 1.125.437.168.85.143 1.143.043.363-.125.407.25.207.588-.12.206-.613.269-1.15.081-.538-.188-1.113-.638-1.507-1.156-.343-.306-.306.1-.143.387.787 1.25 1.512 1.713 2.468 1.638.42-.075.52.25.25.562-.475.388-1.062.375-1.587-.012-.456-.438-1.338-1.4-1.8-1.913-.325-.256-.431 0-.331.525.087.3.3.625.893.85.407.231.1.55-.2.563-.168 0-.506-.2-.768-.488-.338-.387-.363-.643-.55-1.243-.175-.288-.494-.15-.494.15.156.6.281.706.594.95.293.28-.207.375-.375.256-.488-.325-.663-.75-.825-1.138-.125-.275-.463-.143-.3.313.375 1.087 1 1.512 2.08 1.737.107.019.176.081.138.206l-.437.438c.669.2 1.212.313 1.887.5l.925-.613c.082-.2.125-.512.613-.293.325-.15.481-.094.662.062-.262 0-.375.075-.48.194-.138.356-.45.394-.77.294-.206.169-.312.306-.525.481l1.044-.031c.375-.394.663-.375.925-.063.206.032.288.032.425.275-.212-.087-.35-.112-.444-.018-.393.23-.65.18-.843 0l-1.094.068c.137.125.325.188.469.3.562-.162.862.063.962.519.08.183.105.384.075.581-.05-.187-.144-.343-.306-.437-.5.125-.688-.081-.719-.381-.25-.2-.612-.244-.856-.444-.288.087-.425.143-.713.237-.1.313-.33.431-.706.35-.437.013-.362.2-.4.344-.125-.206-.119-.413.156-.6.1-.269.325-.394.613-.237.275-.076.344-.188.619-.27-.688-.218-1.175-.268-1.863-.487l-.481.425c-.094.056-.181.069-.238 0-.43-.625-.625-1.169-1.018-1.581-.157-.175-.35-.4-.563-.456a.32.32 0 0 0-.325.081c-.081.087-.15.256-.125.513.044.356.131.475.231.687.107.219.225.35.357.519.25.331.587.525.787.656.4.256.563.144.875.125.4.044.5.238.175.506-.3.163-.575.181-.8.138-.187-.038-.412-.281-.575-.413-.175-.206-.475.038-.269.282.37.437.732.725 1.188.718.481.063.387.331.075.463-.575.231-1.088-.206-1.35-.5-.2-.219-.344-.225-.313.118.207.62.475.857.925.888.363-.038.37.25.1.438-.6.412-1.037-.3-1.243-.725-.144-.388-.37-.207-.394.112 0 .431.187.775.706 1.213-.394.63-.856 1.275-1.25 1.906l-1.2-13.375 1.2-2.107c.125-.112.55-.612.656-.687.044-.038.063-.063.007-.087a1.354 1.354 0 0 0-.282-.063c.25-.256.475-.338.957-.475-.12-.05-.232-.025-.582-.038.215-.288.508-.51.844-.637-.262-.188-.312-.2-.575-.419a5.384 5.384 0 0 0 1.219-.237 2.34 2.34 0 0 1 .75-.213H43Zm-.05.525c-.237 0-.381.081-.381.181 0 .1.144.182.381.182.238 0 .388-.094.388-.188 0-.1-.15-.175-.388-.175Z"/></g><defs><clipPath id="a"><rect width="40" height="30" x="20" y="20" fill="#fff" rx="15"/></clipPath></defs></svg>