<svg xmlns="http://www.w3.org/2000/svg" width="179" height="70" fill="none"><rect width="178" height="69" x=".5" y=".5" fill="#fff" stroke="#363636" rx="34.5"/><path fill="#000" d="m75.357 42 5.254-14.307h1.66L87.525 42h-1.836l-3.867-10.898a11.833 11.833 0 0 1-.205-.635c-.052-.202-.104-.41-.157-.625h-.087a11.828 11.828 0 0 1-.371 1.26L77.115 42h-1.758Zm2.236-3.76.537-1.455h6.592l.528 1.455h-7.657ZM88.321 42V31.912h1.553l.069 1.309h.048c.26-.43.603-.801 1.026-1.114.423-.319.928-.478 1.514-.478.136 0 .283.016.439.049.156.026.267.052.332.078v1.592a3.457 3.457 0 0 0-.4-.059 5.294 5.294 0 0 0-.479-.02c-.566 0-1.058.154-1.475.46-.41.306-.716.69-.917 1.152V42h-1.71Zm5.621 2.822 1.055-1.299c.286.32.687.603 1.201.85.514.254 1.097.38 1.748.38.86 0 1.543-.253 2.05-.76.509-.509.763-1.241.763-2.198v-1.016c-.3.423-.7.765-1.202 1.026-.5.254-1.106.38-1.816.38-1.27 0-2.285-.478-3.047-1.435-.762-.957-1.142-2.171-1.142-3.643v-.312c0-1.471.38-2.686 1.142-3.643.762-.957 1.78-1.435 3.057-1.435.703 0 1.321.146 1.855.44.534.292.931.65 1.192 1.074h.058l.069-1.319h1.552v9.883c0 1.439-.416 2.539-1.25 3.3-.826.769-1.91 1.153-3.252 1.153-.82 0-1.578-.137-2.275-.41-.697-.267-1.283-.606-1.758-1.016Zm1.358-7.715c0 1.042.228 1.915.683 2.618.456.696 1.169 1.044 2.139 1.044.65 0 1.204-.175 1.66-.527.456-.358.781-.765.977-1.22v-4.15c-.202-.457-.531-.86-.987-1.212-.449-.358-1-.537-1.65-.537-.97 0-1.683.352-2.139 1.055-.456.703-.683 1.575-.683 2.617v.312Zm8.784 0v-.312c0-1.523.414-2.764 1.241-3.72.833-.964 1.93-1.446 3.291-1.446 1.367 0 2.415.45 3.144 1.348.736.892 1.104 2.109 1.104 3.652v.693h-7.735v-1.367h6.016v-.215c0-.742-.208-1.377-.625-1.904-.417-.534-1.029-.8-1.836-.8-.957 0-1.673.36-2.148 1.083-.469.723-.704 1.615-.704 2.676v.312c0 1.062.248 1.953.743 2.676.501.723 1.272 1.084 2.314 1.084.645 0 1.198-.14 1.66-.42.469-.28.847-.615 1.133-1.006l1.104.89c-.313.474-.801.92-1.465 1.337-.664.41-1.475.615-2.432.615-1.549 0-2.738-.478-3.564-1.435-.827-.964-1.241-2.21-1.241-3.74ZM114.412 42V31.912h1.553l.068 1.309h.049a3.923 3.923 0 0 1 1.338-1.104 3.918 3.918 0 0 1 1.777-.4c1.009 0 1.813.286 2.412.86.599.572.899 1.536.899 2.89V42h-1.709v-6.543c0-.82-.186-1.406-.557-1.758-.364-.358-.885-.537-1.562-.537-.573 0-1.081.156-1.524.469-.442.312-.788.72-1.035 1.22V42h-1.709Zm8.814-8.76v-1.328h5.723v1.328h-5.723Zm1.807 6.23V29.237h1.709v10.235c0 .495.091.84.273 1.035.189.195.482.293.879.293.176 0 .348-.016.518-.049.176-.04.351-.091.527-.156V42a2.726 2.726 0 0 1-.635.195c-.26.059-.547.088-.859.088-.736 0-1.322-.221-1.758-.664-.436-.45-.654-1.165-.654-2.148Zm5.259 2.53V31.912h1.709V42h-1.709Zm-.224-13.242c0-.293.091-.537.273-.733.189-.201.456-.302.801-.302.351 0 .618.1.801.302.188.196.283.44.283.733 0 .3-.095.55-.283.752-.183.195-.45.293-.801.293-.345 0-.612-.101-.801-.303a1.068 1.068 0 0 1-.273-.742ZM134.311 42V31.912h1.553l.068 1.309h.049a3.923 3.923 0 0 1 1.338-1.104 3.918 3.918 0 0 1 1.777-.4c1.01 0 1.814.286 2.413.86.599.572.898 1.536.898 2.89V42h-1.709v-6.543c0-.82-.185-1.406-.557-1.758-.364-.358-.885-.537-1.562-.537-.573 0-1.081.156-1.524.469-.442.312-.787.72-1.035 1.22V42h-1.709Zm9.654-2.959c0-1.016.401-1.81 1.201-2.383.808-.573 1.84-.86 3.096-.86h2.305v-.732c0-.618-.163-1.116-.488-1.494-.319-.377-.863-.566-1.631-.566-.775 0-1.335.16-1.68.478-.339.313-.508.687-.508 1.123v.078h-1.709v-.097c0-.794.352-1.485 1.055-2.07.709-.593 1.67-.89 2.881-.89 1.204 0 2.135.287 2.793.86.664.567.996 1.426.996 2.578v4.59c0 .423.032.824.097 1.201.066.371.157.7.274.987V42h-1.651a3.207 3.207 0 0 1-.253-.635 4.026 4.026 0 0 1-.137-.781c-.241.417-.628.788-1.162 1.113-.528.326-1.211.488-2.051.488-.964 0-1.777-.27-2.441-.81-.658-.54-.987-1.318-.987-2.334Zm1.709-.088c0 .586.169 1.042.508 1.367.345.326.869.489 1.572.489.716 0 1.364-.244 1.944-.733.579-.495.869-1.022.869-1.582V37.04h-2.11c-.918 0-1.611.173-2.08.518-.468.345-.703.81-.703 1.396Z"/><g clip-path="url(#a)"><path fill="#74ACDF" d="M20 20h40v30H20V20Z"/><path fill="#fff" d="M20 30h40v10H20V30Z"/><path fill="#F6B40E" d="m39.808 35.078 1.71 3.72s.03.072.078.054c.048-.024.018-.096.018-.096l-1.422-3.84m-.042 1.452c-.024.564.324.876.282 1.38-.048.51.228.792.3.99.06.198-.072.312-.018.342.06.03.18-.126.144-.408-.042-.276-.252-.36-.204-.978.048-.618-.252-.762-.18-1.32"/><path stroke="#85340A" stroke-width=".132" d="m39.808 35.078 1.71 3.72s.03.072.078.054c.048-.024.018-.096.018-.096l-1.422-3.84m-.042 1.452c-.024.564.324.876.282 1.38-.048.51.228.792.3.99.06.198-.072.312-.018.342.06.03.18-.126.144-.408-.042-.276-.252-.36-.204-.978.048-.618-.252-.762-.18-1.32"/><path fill="#F6B40E" d="m39.793 34.999.156 4.09s0 .079.052.08c.053-.003.053-.081.053-.081l.156-4.092m-.595 1.325c-.238.512-.036.934-.267 1.383-.24.453-.093.82-.102 1.03-.02.206-.186.26-.148.309.044.05.215-.048.29-.322.067-.271-.095-.43.186-.982.28-.552.058-.8.338-1.288"/><path stroke="#85340A" stroke-width=".132" d="m39.793 34.999.156 4.09s0 .079.052.08c.053-.003.053-.081.053-.081l.156-4.092m-.595 1.325c-.238.512-.036.934-.267 1.383-.24.453-.093.82-.102 1.03-.02.206-.186.26-.148.309.044.05.215-.048.29-.322.067-.271-.095-.43.186-.982.28-.552.058-.8.338-1.288"/><path fill="#F6B40E" d="m39.81 34.92-1.422 3.839s-.03.072.017.093c.05.017.08-.055.08-.055l1.71-3.72m-1.056.996c-.416.382-.39.849-.777 1.176-.394.326-.398.72-.487.912-.098.182-.272.17-.255.229.021.063.216.038.39-.187.166-.225.077-.433.548-.836.47-.403.36-.717.806-1.06"/><path stroke="#85340A" stroke-width=".132" d="m39.81 34.92-1.422 3.839s-.03.072.017.093c.05.017.08-.055.08-.055l1.71-3.72m-1.056.996c-.416.382-.39.849-.777 1.176-.394.326-.398.72-.487.912-.098.182-.272.17-.255.229.021.063.216.038.39-.187.166-.225.077-.433.548-.836.47-.403.36-.717.806-1.06"/><path fill="#F6B40E" d="m39.855 34.852-2.783 3.004s-.055.055-.02.093c.04.035.096-.02.096-.02l3.003-2.784m-1.357.517c-.53.194-.685.635-1.167.789-.49.15-.645.514-.8.656-.16.131-.316.053-.323.114-.005.067.185.118.432-.023.239-.145.236-.37.826-.563.589-.192.607-.524 1.15-.671"/><path stroke="#85340A" stroke-width=".132" d="m39.855 34.852-2.783 3.004s-.055.055-.02.093c.04.035.096-.02.096-.02l3.003-2.784m-1.357.517c-.53.194-.685.635-1.167.789-.49.15-.645.514-.8.656-.16.131-.316.053-.323.114-.005.067.185.118.432-.023.239-.145.236-.37.826-.563.589-.192.607-.524 1.15-.671"/><path fill="#85340A" d="M40.258 36.464c.03.54.336.78.276 1.278.132-.39-.186-.696-.168-1.272m-.462-1.428 1.17 2.556-.978-2.634"/><path fill="#85340A" d="M39.678 36.451c-.179.51.012.85-.234 1.287.271-.31.095-.715.332-1.24m.12-1.496.102 2.81.105-2.808"/><path fill="#85340A" d="M39.147 36.218c-.36.403-.314.789-.708 1.098.369-.182.36-.623.78-1.018m.683-1.336-.98 2.634 1.171-2.554"/><path fill="#85340A" d="M38.746 35.799c-.487.234-.592.608-1.075.744.411-.028.572-.438 1.111-.642m1.143-.974-1.914 2.06 2.06-1.912"/><path fill="#F6B40E" d="m39.922 34.808-3.72 1.71s-.072.03-.054.078c.024.048.096.018.096.018l3.84-1.422m-1.452-.042c-.564-.024-.876.324-1.38.282-.51-.048-.792.228-.99.3-.198.06-.312-.072-.342-.018-.03.06.126.18.408.144.276-.042.36-.252.978-.204.618.048.762-.252 1.32-.18"/><path stroke="#85340A" stroke-width=".132" d="m39.922 34.808-3.72 1.71s-.072.03-.054.078c.024.048.096.018.096.018l3.84-1.422m-1.452-.042c-.564-.024-.876.324-1.38.282-.51-.048-.792.228-.99.3-.198.06-.312-.072-.342-.018-.03.06.126.18.408.144.276-.042.36-.252.978-.204.618.048.762-.252 1.32-.18"/><path fill="#F6B40E" d="m40.001 34.793-4.091.156s-.078 0-.08.051c.004.054.082.054.082.054l4.092.155m-1.325-.594c-.512-.238-.934-.036-1.383-.268-.453-.239-.82-.092-1.03-.101-.206-.02-.26-.186-.309-.148-.05.044.048.215.322.29.271.066.429-.096.982.185.552.281.8.06 1.288.34"/><path stroke="#85340A" stroke-width=".132" d="m40.001 34.793-4.091.156s-.078 0-.08.051c.004.054.082.054.082.054l4.092.155m-1.325-.594c-.512-.238-.934-.036-1.383-.268-.453-.239-.82-.092-1.03-.101-.206-.02-.26-.186-.309-.148-.05.044.048.215.322.29.271.066.429-.096.982.185.552.281.8.06 1.288.34"/><path fill="#F6B40E" d="m40.08 34.81-3.839-1.422s-.072-.03-.093.017c-.017.05.055.08.055.08l3.72 1.71m-.996-1.056c-.382-.416-.849-.39-1.175-.777-.327-.394-.722-.398-.913-.488-.182-.097-.17-.271-.229-.254-.063.021-.038.216.187.39.225.166.433.077.836.547.403.471.717.361 1.06.807"/><path stroke="#85340A" stroke-width=".132" d="m40.08 34.81-3.839-1.422s-.072-.03-.093.017c-.017.05.055.08.055.08l3.72 1.71m-.996-1.056c-.382-.416-.849-.39-1.175-.777-.327-.394-.722-.398-.913-.488-.182-.097-.17-.271-.229-.254-.063.021-.038.216.187.39.225.166.433.077.836.547.403.471.717.361 1.06.807"/><path fill="#F6B40E" d="m40.148 34.855-3.004-2.783s-.055-.055-.093-.02c-.035.04.02.096.02.096l2.784 3.003m-.517-1.358c-.194-.53-.635-.685-.789-1.166-.15-.49-.514-.645-.656-.8-.131-.16-.053-.316-.114-.323-.067-.005-.118.185.023.432.145.239.37.236.563.825.192.59.524.608.671 1.151"/><path stroke="#85340A" stroke-width=".132" d="m40.148 34.855-3.004-2.783s-.055-.055-.093-.02c-.035.04.02.096.02.096l2.784 3.003m-.517-1.358c-.194-.53-.635-.685-.789-1.166-.15-.49-.514-.645-.656-.8-.131-.16-.053-.316-.114-.323-.067-.005-.118.185.023.432.145.239.37.236.563.825.192.59.524.608.671 1.151"/><path fill="#85340A" d="M38.536 35.258c-.54.03-.78.336-1.278.276.39.132.696-.186 1.272-.168m1.428-.462-2.556 1.17 2.634-.978"/><path fill="#85340A" d="M38.548 34.678c-.51-.179-.849.012-1.286-.234.31.271.714.094 1.24.332m1.496.12-2.81.102 2.808.105"/><path fill="#85340A" d="M38.782 34.147c-.403-.36-.789-.314-1.099-.708.183.369.624.36 1.019.78m1.336.683-2.635-.98 2.555 1.171"/><path fill="#85340A" d="M39.202 33.746c-.235-.487-.61-.592-.745-1.075.028.41.439.572.642 1.111m.974 1.143-2.06-1.914 1.912 2.059"/><path fill="#F6B40E" d="m40.192 34.922-1.71-3.72s-.03-.072-.078-.054c-.048.024-.018.096-.018.096l1.422 3.84m.042-1.452c.024-.564-.324-.876-.282-1.38.048-.51-.228-.792-.3-.99-.06-.198.072-.312.018-.342-.06-.03-.18.126-.144.408.042.276.252.36.204.978-.048.618.252.762.18 1.32"/><path stroke="#85340A" stroke-width=".132" d="m40.192 34.922-1.71-3.72s-.03-.072-.078-.054c-.048.024-.018.096-.018.096l1.422 3.84m.042-1.452c.024-.564-.324-.876-.282-1.38.048-.51-.228-.792-.3-.99-.06-.198.072-.312.018-.342-.06-.03-.18.126-.144.408.042.276.252.36.204.978-.048.618.252.762.18 1.32"/><path fill="#F6B40E" d="m40.207 35.001-.156-4.09s0-.079-.052-.08c-.053.003-.053.081-.053.081l-.156 4.092m.595-1.325c.238-.512.036-.934.267-1.383.24-.453.093-.82.102-1.03.02-.205.186-.26.148-.309-.044-.05-.215.048-.29.322-.067.271.095.43-.186.982-.28.552-.058.8-.338 1.288"/><path stroke="#85340A" stroke-width=".132" d="m40.207 35.001-.156-4.09s0-.079-.052-.08c-.053.003-.053.081-.053.081l-.156 4.092m.595-1.325c.238-.512.036-.934.267-1.383.24-.453.093-.82.102-1.03.02-.205.186-.26.148-.309-.044-.05-.215.048-.29.322-.067.271.095.43-.186.982-.28.552-.058.8-.338 1.288"/><path fill="#F6B40E" d="m40.19 35.08 1.422-3.839s.03-.072-.017-.093c-.05-.017-.08.055-.08.055l-1.71 3.72m1.056-.996c.416-.382.39-.849.777-1.176.394-.326.398-.72.487-.912.098-.182.272-.17.255-.229-.021-.063-.216-.038-.39.187-.166.225-.077.433-.548.836-.47.403-.36.717-.806 1.06"/><path stroke="#85340A" stroke-width=".132" d="m40.19 35.08 1.422-3.839s.03-.072-.017-.093c-.05-.017-.08.055-.08.055l-1.71 3.72m1.056-.996c.416-.382.39-.849.777-1.176.394-.326.398-.72.487-.912.098-.182.272-.17.255-.229-.021-.063-.216-.038-.39.187-.166.225-.077.433-.548.836-.47.403-.36.717-.806 1.06"/><path fill="#F6B40E" d="m40.145 35.148 2.783-3.004s.055-.055.02-.093c-.04-.035-.096.02-.096.02l-3.003 2.784m1.357-.517c.53-.194.685-.635 1.167-.789.49-.15.645-.514.8-.656.16-.131.316-.053.323-.114.005-.067-.185-.118-.432.023-.239.145-.236.37-.826.563-.589.192-.607.524-1.15.671"/><path stroke="#85340A" stroke-width=".132" d="m40.145 35.148 2.783-3.004s.055-.055.02-.093c-.04-.035-.096.02-.096.02l-3.003 2.784m1.357-.517c.53-.194.685-.635 1.167-.789.49-.15.645-.514.8-.656.16-.131.316-.053.323-.114.005-.067-.185-.118-.432.023-.239.145-.236.37-.826.563-.589.192-.607.524-1.15.671"/><path fill="#85340A" d="M39.742 33.536c-.03-.54-.336-.78-.276-1.278-.132.39.186.696.168 1.272m.462 1.428-1.17-2.556.978 2.634"/><path fill="#85340A" d="M40.322 33.549c.179-.51-.012-.85.234-1.287-.271.31-.095.715-.332 1.24m-.12 1.496-.102-2.81-.105 2.808"/><path fill="#85340A" d="M40.853 33.782c.36-.403.314-.789.708-1.098-.369.182-.36.623-.78 1.018m-.683 1.336.98-2.634-1.171 2.554"/><path fill="#85340A" d="M41.254 34.201c.487-.234.592-.608 1.075-.744-.411.028-.572.438-1.111.642m-1.143.974 1.914-2.06-2.06 1.912"/><path fill="#F6B40E" d="m40.078 35.192 3.72-1.71s.072-.03.054-.078c-.024-.048-.096-.018-.096-.018l-3.84 1.422m1.452.042c.564.024.876-.324 1.38-.282.51.048.792-.228.99-.3.198-.06.312.072.342.018.03-.06-.126-.18-.408-.144-.276.042-.36.252-.978.204-.618-.048-.762.252-1.32.18"/><path stroke="#85340A" stroke-width=".132" d="m40.078 35.192 3.72-1.71s.072-.03.054-.078c-.024-.048-.096-.018-.096-.018l-3.84 1.422m1.452.042c.564.024.876-.324 1.38-.282.51.048.792-.228.99-.3.198-.06.312.072.342.018.03-.06-.126-.18-.408-.144-.276.042-.36.252-.978.204-.618-.048-.762.252-1.32.18"/><path fill="#F6B40E" d="m39.999 35.207 4.091-.156s.078 0 .08-.051c-.004-.054-.082-.054-.082-.054l-4.092-.155m1.325.594c.512.238.934.036 1.383.268.453.239.82.092 1.03.101.206.02.26.186.309.148.05-.044-.048-.215-.322-.29-.271-.066-.429.096-.982-.185-.552-.281-.8-.06-1.288-.34"/><path stroke="#85340A" stroke-width=".132" d="m39.999 35.207 4.091-.156s.078 0 .08-.051c-.004-.054-.082-.054-.082-.054l-4.092-.155m1.325.594c.512.238.934.036 1.383.268.453.239.82.092 1.03.101.206.02.26.186.309.148.05-.044-.048-.215-.322-.29-.271-.066-.429.096-.982-.185-.552-.281-.8-.06-1.288-.34"/><path fill="#F6B40E" d="m39.92 35.19 3.839 1.422s.072.03.093-.017c.017-.05-.055-.08-.055-.08l-3.72-1.71m.996 1.056c.382.416.849.39 1.175.777.327.394.722.398.913.488.182.097.17.271.229.254.063-.021.038-.216-.187-.39-.225-.166-.433-.077-.836-.547-.403-.471-.717-.361-1.06-.807"/><path stroke="#85340A" stroke-width=".132" d="m39.92 35.19 3.839 1.422s.072.03.093-.017c.017-.05-.055-.08-.055-.08l-3.72-1.71m.996 1.056c.382.416.849.39 1.175.777.327.394.722.398.913.488.182.097.17.271.229.254.063-.021.038-.216-.187-.39-.225-.166-.433-.077-.836-.547-.403-.471-.717-.361-1.06-.807"/><path fill="#F6B40E" d="m39.852 35.145 3.004 2.783s.055.055.093.02c.035-.04-.02-.096-.02-.096l-2.784-3.003m.517 1.357c.194.53.635.686.789 1.167.15.49.514.645.656.8.131.16.053.316.114.323.067.005.118-.185-.023-.432-.145-.239-.37-.236-.563-.825-.192-.59-.524-.608-.671-1.151"/><path stroke="#85340A" stroke-width=".132" d="m39.852 35.145 3.004 2.783s.055.055.093.02c.035-.04-.02-.096-.02-.096l-2.784-3.003m.517 1.357c.194.53.635.686.789 1.167.15.49.514.645.656.8.131.16.053.316.114.323.067.005.118-.185-.023-.432-.145-.239-.37-.236-.563-.825-.192-.59-.524-.608-.671-1.151"/><path fill="#85340A" d="M41.464 34.742c.54-.03.78-.336 1.278-.276-.39-.132-.696.186-1.272.168m-1.428.462 2.556-1.17-2.634.978"/><path fill="#85340A" d="M41.452 35.322c.51.179.849-.012 1.286.234-.31-.271-.714-.094-1.24-.332m-1.496-.12 2.81-.102-2.808-.105"/><path fill="#85340A" d="M41.218 35.853c.403.36.789.314 1.099.708-.183-.369-.624-.36-1.019-.78m-1.336-.683 2.635.98-2.555-1.171"/><path fill="#85340A" d="M40.798 36.254c.235.487.61.592.745 1.075-.028-.41-.439-.572-.642-1.111m-.974-1.143 2.06 1.914-1.912-2.059"/><path fill="#F6B40E" stroke="#85340A" stroke-width=".175" d="M40 36.669a1.669 1.669 0 1 0 0-3.338 1.669 1.669 0 0 0 0 3.338Z"/><path fill="#843511" d="M40.563 34.644a.332.332 0 0 0-.282.15c.125.119.413.125.607-.013a.438.438 0 0 0-.32-.137h-.005Zm0 .025c.112 0 .218.05.23.1-.124.144-.33.125-.462.025a.286.286 0 0 1 .238-.125h-.007Z"/><path fill="#85340A" d="M40.587 34.563c-.168 0-.206.037-.28.106-.076.062-.12.05-.126.062-.019.013 0 .05.019.038a.582.582 0 0 0 .156-.1c.075-.063.156-.063.231-.063.232 0 .357.188.382.175.03-.012-.125-.218-.382-.218Z"/><path fill="#85340A" d="M41.05 34.644c-.294-.256-.669-.3-.875-.106a.5.5 0 0 0-.094.212c-.025.15.019.306.131.469l-.05.025a.898.898 0 0 1-.1-.588l.038-.143c.281-.232.669-.25.95.125v.006Z"/><path fill="#85340A" d="M40.563 34.881a.113.113 0 1 0 0-.225.113.113 0 0 0 0 .225Z"/><path fill="#85340A" d="M40.894 34.844c-.22.169-.438.156-.563.081-.125-.081-.125-.106-.1-.106.025 0 .05.025.15.081.106.05.256.05.513-.056ZM39.75 35.231a.112.112 0 0 0-.07.17.113.113 0 0 0 .183.011.25.25 0 0 0 .137.038h.013a.26.26 0 0 0 .143-.038c.02.032.057.044.094.044a.113.113 0 0 0 .096-.185.112.112 0 0 0-.077-.04c.031.013.05.038.05.075a.075.075 0 0 1-.15 0 .188.188 0 0 1-.163.107.187.187 0 0 1-.156-.107c0 .044-.037.075-.081.075a.08.08 0 0 1-.075-.075c0-.037.019-.062.05-.075h.006Zm.125.338c-.131 0-.187.125-.3.194.063-.026.113-.075.206-.125.088-.05.163.012.22.012.05 0 .124-.063.218-.012.087.05.144.1.206.125-.119-.075-.169-.188-.3-.188a.331.331 0 0 0-.125.037l-.125-.043Z"/><path fill="#85340A" d="M39.825 35.725a.944.944 0 0 0-.213.038c.232-.05.282.03.388.03.1 0 .156-.08.381-.03-.25-.075-.306-.026-.381-.026-.05 0-.088-.018-.175-.012Z"/><path fill="#85340A" d="M39.625 35.763h-.05c.269.03.144.187.425.187s.156-.156.425-.188c-.281-.025-.194.144-.425.144-.219 0-.15-.143-.375-.143Z"/><path fill="#85340A" d="M40.231 36.181a.231.231 0 0 0-.462 0 .238.238 0 0 1 .462 0ZM38.962 34.644c.294-.256.67-.3.875-.106a.5.5 0 0 1 .094.212c.025.15-.019.306-.131.469l.05.025a.898.898 0 0 0 .1-.588l-.038-.143c-.28-.232-.668-.25-.95.125v.006Z"/><path fill="#85340A" d="M39.425 34.563c.169 0 .206.037.281.106.075.062.119.05.125.062.019.013 0 .05-.019.038a.582.582 0 0 1-.156-.1c-.075-.063-.156-.063-.231-.063-.231 0-.356.188-.381.175-.032-.012.125-.218.38-.218Z"/><path fill="#843511" d="M39.413 34.644a.332.332 0 0 0-.282.15c.125.119.413.125.607-.013a.438.438 0 0 0-.32-.137h-.005Zm0 .025c.112 0 .218.05.23.1-.124.144-.33.125-.462.025a.286.286 0 0 1 .238-.125h-.006Z"/><path fill="#85340A" d="M39.431 34.881a.112.112 0 1 0 0-.225.112.112 0 0 0 0 .225Z"/><path fill="#85340A" d="M39.119 34.844c.218.169.437.156.562.081.125-.081.125-.106.1-.106-.025 0-.05.025-.15.081-.106.05-.256.05-.512-.056Z"/></g><rect width="39" height="29" x="20.5" y="20.5" stroke="#D3D3D3" rx="14.5"/><defs><clipPath id="a"><rect width="40" height="30" x="20" y="20" fill="#fff" rx="15"/></clipPath></defs></svg>