<svg xmlns="http://www.w3.org/2000/svg" width="181" height="70" fill="none"><rect width="180" height="69" x=".5" y=".5" stroke="#363636" rx="34.5"/><path fill="#C1B9B9" d="m80.234 42 5.254-14.307h1.66L92.402 42h-1.836l-3.867-10.898a11.74 11.74 0 0 1-.205-.635c-.052-.202-.104-.41-.156-.625h-.088a11.833 11.833 0 0 1-.371 1.26L81.992 42h-1.758Zm2.236-3.76.537-1.455H89.6l.528 1.455H82.47Zm10.514.205v-6.533h1.709v6.553c0 .82.182 1.406.547 1.758.37.351.895.527 1.572.527.573 0 1.077-.156 1.513-.469a3.387 3.387 0 0 0 1.045-1.22v-7.149h1.709V42h-1.552l-.069-1.318h-.049a3.99 3.99 0 0 1-1.347 1.113c-.528.267-1.114.4-1.758.4-1.016 0-1.823-.286-2.422-.86-.599-.578-.898-1.542-.898-2.89Zm9.702.557h1.719v.078c0 .599.215 1.048.645 1.348.429.293.999.44 1.709.44.716 0 1.279-.14 1.689-.42.41-.287.615-.662.615-1.124 0-.462-.169-.814-.508-1.054-.332-.248-1.038-.502-2.119-.762-1.087-.26-1.943-.619-2.568-1.074-.625-.463-.938-1.107-.938-1.934 0-.833.339-1.52 1.016-2.06.684-.54 1.595-.811 2.734-.811 1.14 0 2.058.27 2.754.81.697.54 1.045 1.28 1.045 2.217v.069h-1.709v-.098c0-.508-.172-.899-.517-1.172-.345-.273-.869-.41-1.573-.41-.703 0-1.22.127-1.552.38-.332.255-.498.584-.498.987 0 .39.185.703.556.938.371.227 1.097.472 2.178.732s1.914.628 2.5 1.103c.593.47.889 1.146.889 2.032 0 .898-.332 1.634-.996 2.207-.664.573-1.661.86-2.989.86-1.334 0-2.35-.29-3.047-.87-.69-.58-1.035-1.357-1.035-2.334v-.078Zm8.258-5.762v-1.328h5.722v1.328h-5.722Zm1.806 6.23V29.237h1.709v10.235c0 .495.092.84.274 1.035.189.195.482.293.879.293.176 0 .348-.016.517-.049.176-.04.352-.091.528-.156V42a2.742 2.742 0 0 1-.635.195 3.92 3.92 0 0 1-.859.088c-.736 0-1.322-.221-1.758-.664-.437-.45-.655-1.165-.655-2.148Zm5.172 2.53V31.912h1.553l.068 1.309h.049c.26-.43.602-.801 1.025-1.114.423-.319.928-.478 1.514-.478.137 0 .283.016.439.049.157.026.267.052.332.078v1.592a3.434 3.434 0 0 0-.4-.059 5.295 5.295 0 0 0-.479-.02c-.566 0-1.058.154-1.474.46a2.83 2.83 0 0 0-.918 1.152V42h-1.709Zm5.083-2.959c0-1.016.401-1.81 1.202-2.383.807-.573 1.839-.86 3.095-.86h2.305v-.732c0-.618-.163-1.116-.488-1.494-.319-.377-.863-.566-1.631-.566-.775 0-1.335.16-1.68.478-.338.313-.508.687-.508 1.123v.078h-1.709v-.097c0-.794.352-1.485 1.055-2.07.71-.593 1.67-.89 2.881-.89 1.204 0 2.135.287 2.793.86.664.567.996 1.426.996 2.578v4.59c0 .423.033.824.098 1.201.065.371.156.7.273.987V42h-1.65a3.203 3.203 0 0 1-.254-.635 4.103 4.103 0 0 1-.137-.781c-.241.417-.628.788-1.162 1.113-.527.326-1.211.488-2.051.488-.963 0-1.777-.27-2.441-.81-.658-.54-.987-1.318-.987-2.334Zm1.709-.088c0 .586.17 1.042.508 1.367.345.326.869.489 1.573.489.716 0 1.363-.244 1.943-.733.579-.495.869-1.022.869-1.582V37.04h-2.109c-.918 0-1.612.173-2.08.518-.469.345-.704.81-.704 1.396ZM133.548 42V27.107h1.709V42h-1.709Zm4.088 0V31.912h1.709V42h-1.709Zm-.225-13.242c0-.293.091-.537.273-.733.189-.201.456-.302.801-.302.352 0 .619.1.801.302.189.196.283.44.283.733 0 .3-.094.55-.283.752-.182.195-.449.293-.801.293-.345 0-.612-.101-.801-.303a1.068 1.068 0 0 1-.273-.742Zm3.677 10.283c0-1.016.401-1.81 1.201-2.383.808-.573 1.84-.86 3.096-.86h2.305v-.732c0-.618-.163-1.116-.488-1.494-.319-.377-.863-.566-1.631-.566-.775 0-1.335.16-1.68.478-.339.313-.508.687-.508 1.123v.078h-1.709v-.097c0-.794.352-1.485 1.055-2.07.71-.593 1.67-.89 2.881-.89 1.204 0 2.135.287 2.793.86.664.567.996 1.426.996 2.578v4.59c0 .423.032.824.097 1.201.066.371.157.7.274.987V42h-1.65a3.143 3.143 0 0 1-.254-.635 4.026 4.026 0 0 1-.137-.781c-.241.417-.628.788-1.162 1.113-.528.326-1.211.488-2.051.488-.964 0-1.777-.27-2.441-.81-.658-.54-.987-1.318-.987-2.334Zm1.709-.088c0 .586.17 1.042.508 1.367.345.326.869.489 1.572.489.716 0 1.364-.244 1.944-.733.579-.495.869-1.022.869-1.582V37.04h-2.11c-.917 0-1.611.173-2.08.518-.468.345-.703.81-.703 1.396Z"/><g clip-path="url(#a)"><path fill="#00008B" d="M20 20h40v30H20V20Z"/><path fill="#fff" d="m22.344 20 7.625 5.656L37.562 20H40v1.938l-7.5 5.593 7.5 5.563V35h-2.5L30 29.406 22.531 35H20v-1.875l7.469-5.563L20 22v-2h2.344Z"/><path fill="red" d="M33.25 28.781 40 33.75V35l-8.469-6.219h1.719Zm-5.75.625.188 1.094-6 4.5H20l7.5-5.594ZM40 20v.094l-7.781 5.875.062-1.375L38.438 20H40Zm-20 0 7.469 5.5h-1.875L20 21.312V20Z"/><path fill="#fff" d="M27.531 20v15h5V20h-5ZM20 25v5h20v-5H20Z"/><path fill="red" d="M20 26.031v3h20v-3H20ZM28.531 20v15h3V20h-3Z"/><path fill="#fff" d="m52.938 44.794-1.282.162.138 1.281-.925-.9-.919.907.125-1.282-1.281-.15 1.081-.7-.681-1.093 1.225.406.431-1.219.444 1.213L52.513 43l-.67 1.1 1.095.694Zm-.232-7.325.17-.813-.613-.562.825-.094.343-.756.344.756.825.094-.612.562.168.813-.725-.413-.725.413Zm-6.506-3.75-1.269.137.113 1.269-.9-.906-.925.881.15-1.269-1.263-.169 1.082-.675-.657-1.093 1.207.425.45-1.194.418 1.206 1.213-.394-.681 1.082 1.068.7H46.2Zm12.738-2.05-1.307.168.144 1.307-.944-.919-.937.925.131-1.313-1.306-.15 1.106-.718-.694-1.119 1.25.419.438-1.238.45 1.238 1.244-.431-.688 1.124 1.113.707ZM52.93 26.45l-1.293.144.118 1.3-.918-.925-.944.9.15-1.294-1.294-.175 1.106-.688-.668-1.118 1.23.431.457-1.219.425 1.232 1.238-.407-.694 1.1 1.087.719ZM34.625 44.106l-2.862.338.287 2.868L30 45.288 27.938 47.3l.306-2.869-2.863-.362 2.432-1.55-1.5-2.463 2.725.938.987-2.713.969 2.719 2.731-.919-1.519 2.45 2.425 1.569-.006.006Z"/></g><defs><clipPath id="a"><rect width="40" height="30" x="20" y="20" fill="#fff" rx="15"/></clipPath></defs></svg>