<svg xmlns="http://www.w3.org/2000/svg" width="72" height="50" fill="none"><path fill="#fff" d="M57.847 13.97H40.581l-1.766 1.952-5.696 6.312-1.767 1.952H14.307l1.722-1.973.817-.933 1.722-1.974H10.73c-1.435 0-2.605 1.193-2.605 2.625v5.553a2.615 2.615 0 0 0 2.605 2.624h30.072c1.435 0 3.4-.889 4.35-1.952L49.7 23.08l8.147-9.11Z"/><path fill="#E5E5E5" d="M61.314 8.048c1.435 0 2.605 1.193 2.605 2.624v5.554a2.615 2.615 0 0 1-2.605 2.624H53.475l1.745-1.952.86-.976 1.745-1.952H40.56l-9.207 10.195H14.197l12.298-13.666.463-.52c.972-1.064 2.937-1.953 4.372-1.953h29.984v.022Z"/><path fill="#fff" d="M63.919 41.735v-.802c0-.109-.066-.174-.22-.174h-.53c-.155 0-.266-.021-.288-.087-.044-.065-.044-.195-.044-.412v-3.036h.861c.066 0 .11-.022.155-.066a.196.196 0 0 0 .066-.151v-.846a.196.196 0 0 0-.066-.152.202.202 0 0 0-.155-.065h-.861v-1.107c0-.065-.022-.108-.044-.13-.044-.022-.088-.043-.133-.043h-.022l-1.28.217c-.066.021-.11.043-.155.065-.044.043-.066.087-.066.13v.846h-.861a.202.202 0 0 0-.155.065.195.195 0 0 0-.066.152v.694c0 .065.022.108.066.13a.358.358 0 0 0 .155.087l.86.13v3.037c0 .369.045.672.111.911.089.239.2.412.331.542.155.13.332.217.552.26.221.044.486.066.773.066.155 0 .287 0 .42-.022.11-.022.265-.043.42-.065.11 0 .176-.065.176-.174Zm-4.592-.108v-.933c0-.065-.023-.108-.067-.13a.317.317 0 0 0-.132-.043h-.022a5.53 5.53 0 0 1-.574.043c-.177.022-.42.022-.729.022a.819.819 0 0 1-.331-.065.839.839 0 0 1-.287-.196c-.089-.086-.133-.217-.177-.368a2.144 2.144 0 0 1-.066-.586v-.868c0-.238.022-.434.066-.585.044-.152.11-.282.177-.37a.841.841 0 0 1 .618-.26c.31 0 .552 0 .729.022.176.022.375.022.574.044h.022c.066 0 .11-.022.132-.044.044-.022.067-.065.067-.13v-.933c0-.086-.023-.13-.045-.151-.044-.022-.088-.066-.176-.087-.155-.044-.331-.065-.574-.109-.243-.043-.508-.043-.84-.043-.75 0-1.346.217-1.81.672-.441.456-.684 1.107-.684 1.974v.868c0 .846.22 1.518.684 1.974.442.456 1.06.672 1.81.672.31 0 .597-.021.84-.043.243-.043.441-.065.574-.108a.334.334 0 0 0 .176-.087c.045-.022.045-.087.045-.152Zm-6.911-1.106a2.383 2.383 0 0 1-.42.151c-.154.044-.309.066-.464.066-.22 0-.397-.022-.507-.087-.11-.065-.155-.195-.155-.434v-.087c0-.13.022-.238.044-.325a.56.56 0 0 1 .155-.239c.066-.065.176-.108.287-.152.11-.021.265-.043.464-.043h.596v1.15Zm1.678-2.538c0-.39-.066-.716-.177-.976a1.814 1.814 0 0 0-.486-.651 1.821 1.821 0 0 0-.772-.369 3.876 3.876 0 0 0-1.038-.13c-.353 0-.707.022-1.038.065-.331.043-.596.087-.795.152-.132.043-.198.108-.198.238v.846c0 .066.022.109.044.152.044.022.088.044.132.044h.044c.089 0 .2-.022.31-.022.132 0 .264-.022.419-.022.154 0 .331-.022.508-.022h.508c.242 0 .441.044.574.13.132.087.22.283.22.586v.37h-.574c-.905 0-1.59.13-1.987.411-.42.282-.618.738-.618 1.345v.087c0 .347.044.629.155.846.11.239.242.412.42.564.176.13.352.238.573.304.221.065.442.086.685.086.309 0 .596-.043.817-.13a3.24 3.24 0 0 0 .662-.347v.174c0 .065.022.108.066.151a.202.202 0 0 0 .155.066h1.192c.066 0 .11-.022.155-.066a.195.195 0 0 0 .066-.151v-3.731h-.022Zm-5.675 3.752v-.802c0-.109-.066-.174-.22-.174h-.508c-.155 0-.265-.021-.287-.087-.044-.065-.044-.195-.044-.412v-3.036h.86c.067 0 .111-.022.155-.066a.195.195 0 0 0 .066-.151v-.846a.195.195 0 0 0-.066-.152.202.202 0 0 0-.154-.065h-.861v-1.107c0-.065-.023-.108-.045-.13a.317.317 0 0 0-.132-.043h-.022l-1.28.217c-.067.021-.111.043-.155.065-.044.043-.066.087-.066.13v.846h-.862a.202.202 0 0 0-.154.065.196.196 0 0 0-.066.152v.694c0 .065.022.108.066.13a.359.359 0 0 0 .154.087l.861.13v3.037c0 .369.045.672.11.911.09.239.2.412.332.542.133.13.331.217.552.26.22.044.486.066.773.066.154 0 .287 0 .42-.022.11-.022.264-.043.419-.065.088 0 .154-.065.154-.174Zm-4.636-.021v-3.471c0-.325-.022-.63-.089-.933a2.096 2.096 0 0 0-.287-.759 1.28 1.28 0 0 0-.574-.499c-.242-.13-.552-.195-.949-.195-.331 0-.64.043-.905.13-.265.087-.53.217-.84.434v-.26a.196.196 0 0 0-.066-.152.202.202 0 0 0-.154-.065h-1.192a.202.202 0 0 0-.155.065.195.195 0 0 0-.066.152v5.553c0 .065.022.108.066.151a.202.202 0 0 0 .155.066h1.28c.067 0 .11-.022.155-.066a.195.195 0 0 0 .066-.151v-4.1c.177-.087.353-.174.53-.239.154-.065.331-.087.486-.087.154 0 .287.022.397.044.11.022.177.087.243.152.066.087.088.173.11.303.022.13.022.282.022.456v3.47c0 .066.023.11.067.152a.202.202 0 0 0 .154.066h1.28c.067 0 .111-.022.155-.066.089-.043.11-.108.11-.151Zm-8.037-2.408c0 .846-.31 1.28-.95 1.28-.309 0-.551-.109-.706-.326-.155-.217-.243-.542-.243-.954v-.738c0-.433.088-.737.243-.954.155-.217.397-.325.707-.325.618 0 .949.433.949 1.28v.737Zm1.722-.738c0-.412-.066-.802-.177-1.128a2.355 2.355 0 0 0-.507-.846c-.221-.238-.508-.412-.84-.542a3.097 3.097 0 0 0-1.147-.195c-.442 0-.817.065-1.148.195-.332.13-.619.304-.84.542-.22.239-.397.521-.507.846-.11.326-.177.716-.177 1.128v.738c0 .412.066.803.177 1.128.11.325.287.607.507.846.221.239.508.412.84.542.33.13.706.195 1.148.195.441 0 .817-.065 1.148-.195.33-.13.618-.303.839-.542.22-.239.397-.52.508-.846.11-.325.176-.716.176-1.128v-.738Zm-5.917 3.059v-.933c0-.065-.022-.108-.066-.13-.044-.022-.089-.043-.155-.043h-.022a5.53 5.53 0 0 1-.574.043c-.177 0-.42.022-.729.022a.819.819 0 0 1-.33-.065.839.839 0 0 1-.288-.196c-.088-.086-.132-.217-.176-.368a2.144 2.144 0 0 1-.067-.586v-.868c0-.238.022-.434.067-.585.044-.152.11-.282.176-.37a.841.841 0 0 1 .618-.26c.31 0 .552 0 .729.022.177.022.375.022.574.044h.022c.066 0 .11-.022.155-.044.044-.022.066-.065.066-.13v-.933c0-.086-.022-.13-.044-.151-.044-.022-.088-.066-.177-.087-.154-.044-.331-.065-.574-.109-.243-.043-.508-.043-.839-.043-.75 0-1.347.217-1.81.672-.442.456-.685 1.107-.685 1.974v.868c0 .846.22 1.518.685 1.974.441.456 1.06.672 1.81.672.31 0 .596-.021.84-.043.242-.043.419-.065.573-.108a.334.334 0 0 0 .177-.087c.044-.022.044-.087.044-.152Zm-5.21.087v-3.471c0-.325-.023-.63-.089-.933a2.097 2.097 0 0 0-.287-.759 1.28 1.28 0 0 0-.574-.499c-.243-.13-.552-.195-.95-.195-.33 0-.64.043-.905.13-.265.087-.53.217-.839.434v-.26a.196.196 0 0 0-.066-.152.202.202 0 0 0-.155-.065h-1.192a.202.202 0 0 0-.154.065.195.195 0 0 0-.067.152v5.553c0 .065.022.108.067.151a.202.202 0 0 0 .154.066h1.28c.067 0 .111-.022.155-.066a.195.195 0 0 0 .066-.151v-4.1c.177-.087.354-.174.53-.239.155-.065.332-.087.486-.087.155 0 .287.022.398.044.11.022.176.087.242.152.067.087.089.173.11.303.023.13.023.282.023.456v3.47c0 .066.022.11.066.152a.202.202 0 0 0 .155.066h1.28c.067 0 .11-.022.155-.066.066-.043.11-.108.11-.151Zm-8.214-1.193a2.377 2.377 0 0 1-.42.151c-.154.044-.309.066-.463.066-.221 0-.398-.022-.508-.087-.11-.065-.155-.195-.155-.434v-.087c0-.13.022-.238.044-.325a.56.56 0 0 1 .155-.239c.066-.065.177-.108.287-.152.11-.021.265-.043.464-.043h.596v1.15Zm1.7-2.538c0-.39-.066-.716-.177-.976a1.814 1.814 0 0 0-.485-.651 1.822 1.822 0 0 0-.773-.369 3.875 3.875 0 0 0-1.038-.13c-.353 0-.706.022-1.038.065-.33.043-.596.087-.794.152-.133.043-.2.108-.2.238v.846c0 .066.023.109.045.152.044.022.088.044.132.044h.045c.088 0 .198-.022.309-.022.132 0 .265-.022.441-.022.155 0 .331-.022.508-.022h.508c.243 0 .442.044.574.13.132.087.22.283.22.586v.37h-.573c-.905 0-1.59.13-1.987.411-.398.282-.619.738-.619 1.345v.087c0 .347.044.629.155.846.11.239.243.412.42.564.176.13.353.238.573.304.221.065.442.086.685.086.309 0 .596-.043.817-.13a3.24 3.24 0 0 0 .662-.347v.174c0 .065.022.108.067.151a.202.202 0 0 0 .154.066h1.192c.067 0 .11-.022.155-.066a.195.195 0 0 0 .066-.151v-3.731h-.044Zm-7.595 1.648c0 .282-.11.52-.31.673-.198.152-.596.238-1.125.238H9.913V38.59h1.193c.42 0 .728.087.883.282.154.195.243.412.243.65v.11Zm-.044-3.102c0 .109-.023.217-.045.326a.553.553 0 0 1-.176.26c-.089.065-.199.13-.331.173-.133.044-.31.066-.53.066H9.913v-1.8h.817c.552 0 .928.064 1.148.194.221.13.332.348.332.63v.151h-.022Zm1.81 2.994c0-.369-.088-.673-.265-.933a1.666 1.666 0 0 0-.684-.607c.287-.13.508-.347.662-.608.155-.282.243-.585.243-.91v-.196c0-.412-.088-.76-.243-1.041-.155-.282-.397-.5-.684-.673-.287-.173-.64-.282-1.06-.368a8.74 8.74 0 0 0-1.37-.109h-.529c-.177 0-.353.022-.53.022-.177 0-.331.021-.486.043-.154.022-.265.022-.353.044-.199.043-.353.086-.442.195-.088.087-.132.26-.132.499v6.334c0 .238.044.39.132.499.089.087.243.151.442.195.11.022.243.043.375.043.155.022.31.022.486.044.177 0 .353.021.53.021h.552c.464 0 .905-.043 1.303-.108a3.045 3.045 0 0 0 1.06-.369c.309-.173.53-.412.728-.716.177-.303.265-.694.265-1.15v-.151Z"/></svg>