<svg xmlns="http://www.w3.org/2000/svg" width="170" height="70" fill="none"><rect width="169" height="69" x=".5" y=".5" stroke="#363636" rx="34.5"/><path fill="#C1B9B9" d="M81.636 42V27.781h4.55c1.394 0 2.488.303 3.282.909.8.598 1.201 1.542 1.201 2.831 0 .788-.195 1.433-.586 1.934a3.079 3.079 0 0 1-1.445 1.045v.04a3.3 3.3 0 0 1 1.738 1.161c.45.567.674 1.309.674 2.227 0 1.295-.417 2.298-1.25 3.008S87.86 42 86.48 42h-4.844Zm1.729-1.465h3.115c.97 0 1.68-.234 2.129-.703.455-.469.683-1.104.683-1.904 0-.801-.228-1.436-.683-1.905-.45-.468-1.16-.703-2.13-.703h-3.114v5.215Zm0-6.66h2.822c.97 0 1.666-.205 2.09-.615.43-.417.644-.993.644-1.729 0-.742-.215-1.308-.644-1.699-.424-.39-1.12-.586-2.09-.586h-2.822v4.629Zm8.804 3.232v-.312c0-1.523.413-2.764 1.24-3.72.833-.964 1.93-1.446 3.291-1.446 1.367 0 2.415.45 3.144 1.348.736.892 1.104 2.109 1.104 3.652v.693h-7.734v-1.367h6.015v-.215c0-.742-.208-1.377-.625-1.904-.416-.534-1.028-.8-1.836-.8-.957 0-1.673.36-2.148 1.083-.469.723-.703 1.615-.703 2.676v.312c0 1.062.247 1.953.742 2.676.501.723 1.273 1.084 2.314 1.084.645 0 1.198-.14 1.66-.42a3.79 3.79 0 0 0 1.133-1.006l1.104.89c-.313.474-.801.92-1.465 1.337-.664.41-1.475.615-2.432.615-1.549 0-2.737-.478-3.564-1.435-.827-.964-1.24-2.21-1.24-3.74ZM102.565 42V27.107h1.709V42h-1.709Zm3.433-2.959c0-1.016.4-1.81 1.201-2.383.808-.573 1.839-.86 3.096-.86h2.305v-.732c0-.618-.163-1.116-.489-1.494-.319-.377-.862-.566-1.631-.566-.774 0-1.334.16-1.679.478-.339.313-.508.687-.508 1.123v.078h-1.709v-.097c0-.794.352-1.485 1.055-2.07.709-.593 1.67-.89 2.881-.89 1.204 0 2.135.287 2.792.86.665.567.997 1.426.997 2.578v4.59c0 .423.032.824.097 1.201.065.371.156.7.274.987V42h-1.651a3.265 3.265 0 0 1-.254-.635 4.1 4.1 0 0 1-.136-.781c-.241.417-.629.788-1.162 1.113-.528.326-1.211.488-2.051.488-.964 0-1.778-.27-2.442-.81-.657-.54-.986-1.318-.986-2.334Zm1.709-.088c0 .586.169 1.042.508 1.367.345.326.869.489 1.572.489.716 0 1.364-.244 1.943-.733.58-.495.87-1.022.87-1.582V37.04h-2.11c-.918 0-1.611.173-2.08.518-.469.345-.703.81-.703 1.396ZM116.472 42V31.912h1.553l.068 1.309h.049c.261-.43.602-.801 1.026-1.114.423-.319.927-.478 1.513-.478.137 0 .283.016.44.049.156.026.267.052.332.078v1.592a3.452 3.452 0 0 0-.401-.059 5.272 5.272 0 0 0-.478-.02c-.567 0-1.058.154-1.475.46a2.83 2.83 0 0 0-.918 1.152V42h-1.709Zm5.943-3.555v-6.533h1.709v6.553c0 .82.183 1.406.547 1.758.371.351.895.527 1.572.527.573 0 1.078-.156 1.514-.469a3.386 3.386 0 0 0 1.045-1.22v-7.149h1.709V42h-1.553l-.068-1.318h-.049c-.365.468-.814.84-1.348 1.113-.527.267-1.113.4-1.757.4-1.016 0-1.823-.286-2.422-.86-.599-.578-.899-1.542-.899-2.89Zm9.703.557h1.719v.078c0 .599.215 1.048.644 1.348.43.293 1 .44 1.709.44.716 0 1.28-.14 1.69-.42.41-.287.615-.662.615-1.124 0-.462-.169-.814-.508-1.054-.332-.248-1.038-.502-2.119-.762-1.087-.26-1.943-.619-2.568-1.074-.625-.463-.938-1.107-.938-1.934 0-.833.339-1.52 1.016-2.06.683-.54 1.595-.811 2.734-.811s2.057.27 2.754.81c.697.54 1.045 1.28 1.045 2.217v.069h-1.709v-.098c0-.508-.173-.899-.518-1.172-.345-.273-.869-.41-1.572-.41-.703 0-1.221.127-1.553.38-.332.255-.498.584-.498.987 0 .39.186.703.557.938.371.227 1.097.472 2.178.732 1.08.26 1.914.628 2.5 1.103.592.47.888 1.146.888 2.032 0 .898-.332 1.634-.996 2.207-.664.573-1.66.86-2.988.86-1.335 0-2.35-.29-3.047-.87-.69-.58-1.035-1.357-1.035-2.334v-.078Z"/><g clip-path="url(#a)"><path fill="#CE1720" d="M20 20h40v30H20V20Z"/><mask id="b" width="8" height="30" x="20" y="20" maskUnits="userSpaceOnUse" style="mask-type:luminance"><path fill="#fff" d="M20.313 20h6.61v20.267h.265v9.466l-.265.267h-6.61V20Z"/></mask><g fill="#fff" mask="url(#b)"><path d="M21.502 20v.467h-.297v.466h-.364v.534h-.264v.433h-.53v-1.1h.53v-.6h-.53V20h1.455Zm.86 2.567v.5h-.265v.4h-.264v-.4h-.265v-.5h-.264V21.9h.264v-.5h.265V21h.264v.4h.265v.5h.264v.667h-.264Zm-.562-.034h.33v-.6h-.33v.6Zm-.86 3.567h.265v-.6h-.265v.6Zm1.785 0h.265v-.6h-.265v.6Zm-2.677 4.067h.463v.433h.198v.533h.297v.5h.397v-.5h.298V30.6h.264v-.433h-.397v-.5h.694V30h.43v.567h.364v.633h-.265v.467h-.231v.433h-.198v.467h-.298v.4h-.231v.366h-.298v.467h-.43v-.5h-.297v-.467h-.231v-.3h-.53v-.766h.53V31.1h-.53v-.933ZM25.733 20v.467h.298v.466h.363v.534h.265v.433h.529v-1.1h-.53v-.6h.53V20h-1.455Zm-.86 2.567v.5h.265v.4h.265v-.4h.264v-.5h.264V21.9h-.264v-.5h-.264V21h-.265v.4h-.264v.5h-.265v.667h.265Zm.563-.034h-.33v-.6h.33v.6Zm.86 3.567h-.265v-.6h.264v.6Zm-1.786 0h-.264v-.6h.264v.6Zm2.677 4.067h-.462v.433h-.199v.533h-.297v.5h-.397v-.5h-.297V30.6h-.265v-.433h.397v-.5h-.694V30h-.43v.567h-.363v.633h.264v.467h.232v.433h.198v.467h.297v.4h.232v.366h.297v.467h.43v-.5h.297v-.467h.232v-.3h.529v-.766h-.53V31.1h.53v-.933Z"/><path d="M23.485 20v1.067h.265V20h1.058v.467h-.265v.466h-.397v.534h-.264v.433h-.529v-.433h-.264v-.534h-.397v-.466h-.264V20h1.057Zm-.066 9.133v-.366h-.198v-.434h-.231v-.466h-.265V27.4h-.264v-.333h-.298V26.6h-.396v.467h-.298v.333h-.231v.467h-.265v.466h-.198v.434h-.198v.566h-.53v-1.466h.53V27.2h-.53v-1.1h.53v.467h.33v.466h.33v-.466h.331V26.1h.265v-.6h-.265v-.467h-.33v-.466h-.33v.466h-.331v.467h-.53v-1.367h.53V23.5h-.53v-.933h.53V23h.264v.533h.364v.434h.297v.5h.232v.4h.462v-.4h.232v-.5h.297v-.434h.364V23h.264v-.433h.529V23h.264v.533h.364v.434h.297v.5h.232v.4h.463v-.4h.231v-.5h.297v-.434h.364V23h.265v-.433h.528v.933h-.529v.633h.53V25.5h-.53v-.467h-.33v-.466h-.33v.466h-.331v.467h-.265v.6h.265v.467h.33v.466h.33v-.466h.331V26.1h.53v1.1h-.53v.667h.53v1.466h-.53v-.566h-.198v-.434h-.198v-.466h-.265V27.4h-.231v-.333h-.297V26.6h-.397v.467h-.298v.333h-.264v.467h-.264v.466h-.232v.434h-.198v.366h-.397Zm.066-5.566v.9h.265v-.9h-.265Zm-.132 1.933v-.467h-.33v-.466h-.33v.466h-.331v.467h-.265v.6h.265v.467h.33v.466h.33v-.466h.331V26.1h.529v.467h.33v.466h.331v-.466h.33V26.1h.265v-.6h-.264v-.467h-.33v-.466h-.332v.466h-.33v.467h-.529Zm.132 1.533v.9h.265v-.9h-.265ZM21.502 50v-.467h-.297v-.467h-.364v-.533h-.264V48.1h-.53v1.1h.53v.6h-.53v.2h1.455Zm.86-2.567v-.5h-.265v-.4h-.264v.4h-.265v.5h-.264v.667h.264v.5h.265v.4h.264v-.4h.265v-.5h.264v-.667h-.264Zm-.562.034h.33v.6h-.33v-.6Zm-.86-3.567h.265v.6h-.265v-.6Zm1.785 0h.265v.6h-.265v-.6Zm-2.677-4.067h.463V39.4h.198v-.533h.297v-.5h.397v.5h.298v.533h.264v.433h-.397v.5h.694V40h.43v-.567h.364V38.8h-.265v-.467h-.231V37.9h-.198v-.467h-.298v-.4h-.231v-.366h-.298V36.2h-.43v.5h-.297v.467h-.231v.3h-.53v.766h.53v.667h-.53v.933ZM25.733 50v-.467h.298v-.467h.363v-.533h.265V48.1h.529v1.1h-.53v.6h.53v.2h-1.455Zm-.86-2.567v-.5h.265v-.4h.265v.4h.264v.5h.264v.667h-.264v.5h-.264v.4h-.265v-.4h-.264v-.5h-.265v-.667h.265Zm.563.034h-.33v.6h.33v-.6Zm.86-3.567h-.265v.6h.264v-.6Zm-1.786 0h-.264v.6h.264v-.6Zm2.677-4.067h-.462V39.4h-.199v-.533h-.297v-.5h-.397v.5h-.297v.533h-.265v.433h.397v.5h-.694V40h-.43v-.567h-.363V38.8h.264v-.467h.232V37.9h.198v-.467h.297v-.4h.232v-.366h.297V36.2h.43v.5h.297v.467h.232v.3h.529v.766h-.53v.667h.53v.933Z"/><path d="M23.485 50v-1.067h.265V50h1.058v-.467h-.265v-.467h-.397v-.533h-.264V48.1h-.529v.433h-.264v.533h-.397v.467h-.264V50h1.057Zm-.066-9.133v.366h-.198v.434h-.231v.466h-.265v.467h-.264v.333h-.298v.467h-.396v-.467h-.298V42.6h-.231v-.467h-.265v-.467h-.198v-.433h-.198v-.566h-.53v1.466h.53v.667h-.53v1.1h.53v-.467h.33v-.466h.33v.466h.331v.467h.265v.6h-.265v.467h-.33v.466h-.33v-.466h-.331V44.5h-.53v1.367h.53v.633h-.53v.933h.53V47h.264v-.533h.364v-.434h.297v-.5h.232v-.4h.462v.4h.232v.5h.297v.434h.364V47h.264v.433h.529V47h.264v-.533h.364v-.434h.297v-.5h.232v-.4h.463v.4h.231v.5h.297v.434h.364V47h.265v.433h.528V46.5h-.529v-.633h.53V44.5h-.53v.467h-.33v.466h-.33v-.466h-.331V44.5h-.265v-.6h.265v-.467h.33v-.466h.33v.466h.331v.467h.53v-1.1h-.53v-.667h.53v-1.467h-.53v.567h-.198v.434h-.198v.466h-.265v.467h-.231v.333h-.297v.467h-.397v-.467h-.298V42.6h-.264v-.467h-.264v-.467h-.232v-.433h-.198v-.366h-.397Zm.066 5.566v-.9h.265v.9h-.265Zm-.132-1.933v.467h-.33v.466h-.33v-.466h-.331V44.5h-.265v-.6h.265v-.467h.33v-.466h.33v.466h.331v.467h.529v-.467h.33v-.466h.331v.466h.33v.467h.265v.6h-.264v.467h-.33v.466h-.332v-.466h-.33V44.5h-.529Zm.132-1.533v-.9h.265v.9h-.265ZM20.048 33.6h.529v.467h.231v.266h.265v.467h.23v.4h-.23v.467h-.265v.266h-.231v.467h-.53v-2.8Zm7.14 0v2.8h-.53v-.467h-.23v-.266h-.265V35.2h-.232v-.4h.232v-.467h.264v-.266h.232V33.6h.528Zm-4.826 1.7h.264v-.6h-.264v.6Zm2.512 0v-.6h-.265v.6h.265Zm-1.389-1.967h.265v-.6h-.265v.6Zm0 3.334v.6h.265v-.6h-.265Zm-1.652-2.5h.463V33.8h.33v-.333h.165v-.334h.199v-.466h.264V32.2h.132v-.433h.463v.433h.132v.467h.265v.466h.198v.334h.165v.333h.33v.367h.463v1.666h-.462v.367h-.33v.333h-.166v.334h-.198v.466h-.265v.467h-.132v.433h-.463V37.8h-.132v-.467h-.264v-.466h-.199v-.334h-.165V36.2h-.33v-.367h-.463v-1.666Zm1.652.3v-.5h-.264v-.334h-.265v.834h.265v.3h.165v.466h-.165v.3h-.265v.834h.265v-.334h.264v-.5h.265v.5h.264v.334h.265v-.834h-.265v-.3h-.165v-.466h.165v-.3h.265v-.834h-.265v.334h-.264v.5h-.265Z"/></g><path fill="#007C30" d="M26.875 40H60v10H26.875V40Z"/></g><defs><clipPath id="a"><rect width="40" height="30" x="20" y="20" fill="#fff" rx="15"/></clipPath></defs></svg>