<svg xmlns="http://www.w3.org/2000/svg" viewBox="0 0 446 328" fill="none"><g clip-path="url(#a)"><rect width="399.053" height="233.731" y="101.881" fill="url(#b)" fill-opacity=".8" rx="20" transform="rotate(-14.69 0 101.881)"/><path fill="#fff" d="m365.957 44.247-3.425-13.068 3.204-.84 1.299 4.955 2.919-6.06 3.384-.888-5.334 10.646 1.158 4.415-3.205.84Zm7.692-2.016-5.895-4.997 1.422-2.847 8.315 6.837-3.842 1.007ZM352.818 47.692l-3.426-13.068 3.392-.89 6.02 6.46a6.73 6.73 0 0 1 .717.945l.063-.017c-.065-.2-.12-.387-.166-.56l-.15-.575-1.951-7.44 2.701-.709 3.426 13.068-3.446.904-5.965-6.398a5.574 5.574 0 0 1-.384-.475 21.254 21.254 0 0 1-.323-.5l-.062.016.175.597c.058.196.114.395.167.599l1.922 7.333-2.71.71ZM338.61 51.417l1.409-14.383 3.473-.911 8.374 11.819-3.41.894-5.482-8.069a5.73 5.73 0 0 1-.326-.547 64.433 64.433 0 0 0-.249-.51l-.063.016c.016.181.028.373.036.575.007.197.001.406-.018.629l-.773 9.708-2.971.78Zm2.288-3.42.048-2.449 5.727-1.501 1.252 2.108-7.027 1.842ZM328.028 54.191l-3.426-13.068 5.179-1.357c1.478-.388 2.698-.404 3.661-.049.967.348 1.602 1.099 1.905 2.254.19.724.185 1.364-.014 1.922-.195.55-.51.971-.945 1.264l.01.036c.63.014 1.208.23 1.733.649.532.417.91 1.056 1.136 1.918.311 1.184.113 2.221-.594 3.11-.701.887-1.773 1.52-3.215 1.898l-5.43 1.423Zm2.599-3.002 2.046-.537c.617-.161 1.029-.442 1.237-.842.209-.4.24-.878.094-1.435-.141-.538-.4-.93-.778-1.177-.38-.252-.878-.297-1.494-.136l-2.046.537.941 3.59Zm-1.459-5.565 1.804-.473c.61-.16 1.015-.41 1.214-.75.197-.346.229-.77.098-1.272-.131-.497-.366-.845-.706-1.043-.339-.199-.814-.218-1.425-.058l-1.804.473.819 3.123ZM273.875 191.267l-.106-.404c-.591-2.256-.389-4.217.606-5.885.993-1.674 2.807-2.856 5.439-3.546l.368-.096.65 2.477-.332.087c-1.58.414-2.715 1.108-3.406 2.082-.687.967-.789 2.371-.306 4.214l.31.341c.341 1.299.722 2.129 1.143 2.492.427.361.916.47 1.466.325.551-.144.898-.43 1.042-.858.148-.435.119-1.045-.087-1.828-.174-.665-.44-1.167-.798-1.508-.352-.343-.812-.44-1.38-.291a1.566 1.566 0 0 0-1.09.929c-.206.482-.231 1.023-.074 1.621l-.916.24c-.318-1.215-.279-2.309.118-3.283.403-.975 1.161-1.608 2.274-1.9 1.245-.326 2.318-.186 3.219.422.907.607 1.534 1.571 1.88 2.893.36 1.37.235 2.589-.374 3.657-.611 1.062-1.676 1.792-3.196 2.19-1.448.38-2.754.249-3.92-.392-1.16-.642-2.003-1.968-2.53-3.979ZM262.042 196.288l-.073-.279 3.231-.847.066.252c.135.514.376.873.724 1.076.346.197.773.229 1.281.096.539-.141.884-.424 1.035-.847.157-.425.141-.999-.049-1.723-.188-.718-.459-1.213-.811-1.485-.353-.272-.778-.343-1.274-.213-.395.103-.705.277-.928.521a2.6 2.6 0 0 0-.506.852l-2.968-.382-1.054-6.764 7.763-2.036.652 2.486-5.246 1.357.395 2.639c.193-.236.449-.456.766-.661.317-.205.715-.37 1.194-.495 1.203-.316 2.284-.206 3.242.33.959.535 1.615 1.476 1.968 2.822.37 1.412.26 2.649-.331 3.712-.587 1.056-1.661 1.788-3.223 2.198-1.579.414-2.876.37-3.89-.131-1.01-.509-1.664-1.335-1.964-2.478ZM256.263 201.678l-.915-3.491-.068-.405-1.334-5.088-.099.025-1.575 4.567 3.519-.923.558-.175 2.971-.779.626 2.388-10.106 2.649-.546-2.082 3.651-9.782 3.016-.791 3.426 13.068-3.124.819ZM237.491 202.657l-.082-.314 3.195-.838.07.269c.138.527.375.903.709 1.129.334.226.764.27 1.291.131.526-.138.88-.387 1.06-.748.185-.368.194-.872.026-1.512-.157-.599-.426-1.001-.806-1.209-.376-.214-.881-.239-1.516-.072l-1.247.327-.57-2.172 1.176-.308c.521-.137.876-.38 1.065-.731.194-.357.221-.803.082-1.335-.129-.491-.334-.833-.615-1.028-.277-.203-.637-.246-1.08-.13-.448.118-.743.336-.883.654-.142.312-.149.714-.02 1.204l.051.198-3.177.833-.054-.207c-.285-1.089-.129-2.102.469-3.039.603-.944 1.635-1.608 3.095-1.991 1.52-.398 2.729-.357 3.629.123.904.473 1.476 1.167 1.716 2.082.193.736.195 1.414.005 2.033-.189.618-.595 1.144-1.217 1.575l.009.036c.774-.024 1.451.179 2.03.609.584.423.983 1.041 1.196 1.855.32 1.22.15 2.304-.509 3.251-.656.939-1.773 1.616-3.353 2.03-1.562.409-2.832.358-3.81-.152-.979-.517-1.624-1.368-1.935-2.553ZM220.053 211.171l-.494-1.885 3.141-6.166c.316-.627.55-1.184.704-1.671.158-.496.178-.968.06-1.417-.11-.419-.305-.722-.584-.911-.276-.197-.638-.236-1.086-.118-.449.117-.758.365-.928.742-.171.371-.168.897.011 1.579l.087.332-3.258.855-.122-.467c-.323-1.233-.17-2.344.459-3.334.634-.997 1.675-1.686 3.123-2.066 1.567-.411 2.812-.382 3.734.086.928.467 1.537 1.238 1.825 2.313.232.886.216 1.715-.048 2.487a17.879 17.879 0 0 1-1.077 2.441l-1.886 3.602 5.161-1.353.647 2.468-9.469 2.483ZM211.663 213.37l-2.652-10.115-2.811 1.936-.673-2.567 3.952-2.781 1.939-.509 3.458 13.194-3.213.842ZM194.311 212.922l-.975-3.716c-.389-1.483-.3-2.779.267-3.887.565-1.114 1.613-1.871 3.145-2.273 1.526-.4 2.806-.259 3.842.422 1.041.68 1.759 1.771 2.153 3.273l.974 3.715c.393 1.502.297 2.806-.289 3.913-.58 1.105-1.621 1.854-3.123 2.248-1.537.403-2.824.264-3.86-.418-1.029-.683-1.741-1.775-2.134-3.277Zm3.404-.48c.172.658.416 1.161.73 1.507.321.344.738.449 1.253.314.514-.135.824-.43.928-.886.111-.458.079-1.015-.093-1.674l-1.17-4.46c-.175-.67-.423-1.178-.744-1.522-.32-.345-.735-.45-1.243-.317-.515.135-.828.431-.938.889-.104.455-.068 1.018.107 1.689l1.17 4.46ZM180.769 212.118c-.358-1.365-.231-2.575.381-3.63.611-1.062 1.676-1.792 3.196-2.19 1.448-.38 2.751-.249 3.911.394 1.166.641 2.012 1.966 2.539 3.977l.106.404c.579 2.208.368 4.136-.632 5.786-.995 1.642-2.806 2.833-5.432 3.573l-.368.096-.647-2.468.332-.087c1.58-.414 2.704-1.102 3.372-2.064.673-.969.775-2.351.304-4.146l-.256-.355c-.317-1.209-.685-2.017-1.106-2.425-.416-.415-.926-.544-1.53-.385-.55.144-.894.429-1.032.855-.139.42-.108 1.017.095 1.788.183.7.445 1.211.784 1.531.346.318.8.404 1.363.257.532-.14.907-.443 1.124-.909.221-.474.252-1.013.094-1.617l.789-.207c.289 1.101.271 2.154-.053 3.16-.321.999-1.067 1.652-2.24 1.959-1.244.326-2.32.189-3.225-.411-.901-.608-1.524-1.57-1.869-2.886ZM157.224 223.892c-.232-.886-.16-1.669.218-2.35.382-.688.866-1.208 1.452-1.56l-.009-.036a3.769 3.769 0 0 1-1.802-.727c-.529-.405-.892-.987-1.092-1.747-.268-1.023-.099-1.963.508-2.819.612-.864 1.62-1.48 3.026-1.849 1.401-.367 2.579-.324 3.535.129.963.451 1.578 1.188 1.846 2.211.198.754.183 1.43-.044 2.026-.227.597-.616 1.102-1.167 1.515l.01.036c.682-.007 1.34.208 1.972.643.63.43 1.062 1.087 1.294 1.973.309 1.178.114 2.214-.586 3.108-.693.891-1.794 1.535-3.302 1.93s-2.785.375-3.833-.06c-1.042-.437-1.717-1.244-2.026-2.423Zm3.196-1.126c.149.569.4.976.752 1.223.353.246.795.3 1.328.16.526-.138.883-.401 1.069-.789.192-.389.213-.868.064-1.436-.153-.586-.402-1.011-.746-1.272-.337-.263-.787-.321-1.35-.174-.568.149-.935.421-1.1.816-.165.395-.171.886-.017 1.472Zm-1.204-5.727c.136.52.344.91.623 1.17.285.258.67.323 1.155.196.478-.126.776-.37.892-.733.121-.364.114-.807-.022-1.327-.132-.503-.342-.876-.63-1.121-.288-.244-.662-.306-1.123-.185-.466.123-.765.361-.896.715s-.131.782.001 1.285ZM147.393 230.22l1.917-11.678-6.157 1.614-.685-2.611 9.469-2.483.577 2.199-1.719 12.067-3.402.892ZM132.295 228.384l-.105-.404c-.592-2.256-.39-4.217.605-5.885.994-1.674 2.807-2.856 5.44-3.546l.368-.096.649 2.477-.332.087c-1.579.414-2.715 1.108-3.406 2.082-.687.967-.788 2.371-.305 4.214l.31.341c.34 1.299.721 2.129 1.142 2.492.428.361.916.47 1.467.325.55-.144.897-.43 1.041-.858.148-.435.119-1.045-.086-1.829-.174-.664-.44-1.166-.798-1.507-.352-.343-.812-.44-1.381-.291a1.568 1.568 0 0 0-1.09.929c-.206.482-.23 1.023-.074 1.621l-.915.24c-.318-1.215-.279-2.309.118-3.283.403-.975 1.161-1.608 2.274-1.9 1.244-.326 2.317-.186 3.218.422.907.606 1.534 1.571 1.881 2.893.359 1.37.234 2.589-.375 3.657-.61 1.062-1.675 1.792-3.195 2.19-1.448.38-2.755.249-3.921-.392-1.159-.642-2.003-1.968-2.53-3.979ZM120.463 233.405l-.073-.279 3.231-.847.066.252c.135.514.376.873.723 1.076.346.197.773.229 1.282.096.538-.141.883-.424 1.034-.847.158-.425.141-.999-.049-1.723-.188-.718-.458-1.213-.811-1.485-.353-.272-.777-.343-1.274-.213-.395.103-.704.277-.928.521a2.618 2.618 0 0 0-.506.852l-2.968-.382-1.054-6.765 7.764-2.035.652 2.486-5.247 1.356.395 2.64c.194-.236.449-.456.767-.661.317-.205.715-.37 1.194-.495 1.202-.316 2.283-.206 3.242.33.959.535 1.615 1.475 1.968 2.822.37 1.412.259 2.649-.332 3.712-.586 1.056-1.66 1.788-3.222 2.198-1.58.414-2.877.37-3.891-.131-1.009-.51-1.664-1.336-1.963-2.478ZM101.96 242.131l-.915-3.492-.068-.404-1.334-5.089-.099.026-1.575 4.566 3.519-.922.558-.175 2.971-.779.626 2.387-10.106 2.65-.546-2.083 3.651-9.782 3.016-.79 3.426 13.068-3.124.819ZM83.188 243.11l-.082-.314 3.195-.838.07.269c.139.527.375.903.709 1.129.334.225.764.269 1.29.131.527-.138.88-.387 1.061-.748.185-.368.194-.872.026-1.513-.157-.598-.426-1.001-.806-1.208-.376-.215-.881-.239-1.516-.073l-1.247.327-.57-2.172 1.176-.308c.52-.136.876-.38 1.065-.73.194-.358.222-.803.082-1.335-.129-.491-.334-.834-.615-1.029-.277-.202-.637-.245-1.08-.129-.448.118-.743.335-.883.654-.142.312-.149.713-.02 1.204l.051.197-3.177.833-.054-.206c-.285-1.089-.129-2.102.47-3.039.603-.945 1.634-1.608 3.094-1.991 1.52-.399 2.73-.358 3.63.123.903.472 1.475 1.167 1.715 2.082.193.736.195 1.413.005 2.032-.189.619-.595 1.144-1.217 1.576l.01.036c.773-.024 1.45.179 2.03.609.584.423.982 1.041 1.196 1.854.32 1.221.15 2.305-.51 3.251-.656.94-1.773 1.616-3.353 2.03-1.562.41-2.832.359-3.81-.152-.98-.517-1.624-1.368-1.935-2.552ZM72.112 249.956l-.494-1.885 3.141-6.166c.316-.627.55-1.184.704-1.672.157-.495.178-.967.06-1.416-.11-.419-.305-.723-.584-.911-.276-.197-.638-.236-1.087-.118-.448.117-.758.364-.927.742-.172.371-.168.897.011 1.579l.087.332-3.258.854-.122-.466c-.323-1.233-.17-2.344.459-3.334.634-.997 1.675-1.686 3.123-2.066 1.567-.411 2.812-.382 3.734.086.928.467 1.537 1.238 1.825 2.313.232.886.216 1.715-.048 2.487a17.831 17.831 0 0 1-1.077 2.441l-1.886 3.602 5.161-1.353.647 2.468-9.469 2.483ZM63.722 252.155 61.07 242.04l-2.811 1.936-.673-2.567 3.952-2.782 1.938-.508 3.46 13.194-3.214.842ZM120.847 278.433l-2.055-7.841 5.487-1.438.344 1.314-3.71.972.483 1.842 3.209-.841.341 1.297-3.21.842.545 2.079 3.764-.987.343 1.308-5.541 1.453ZM111.206 277.024l-.124-.474c-.327-1.246-.239-2.286.264-3.119.502-.838 1.289-1.397 2.363-1.679 1.07-.28 2.032-.18 2.887.302.855.478 1.445 1.34 1.772 2.586l.124.474c.327 1.246.235 2.288-.273 3.128-.51.835-1.3 1.394-2.37 1.674-1.074.281-2.034.182-2.881-.298-.848-.484-1.435-1.348-1.762-2.594Zm1.866-.345c.208.793.526 1.345.952 1.655.43.309.922.391 1.475.247.553-.145.943-.459 1.169-.94.227-.482.236-1.119.028-1.913l-.193-.737c-.209-.797-.53-1.35-.964-1.658-.434-.309-.927-.39-1.48-.245-.553.145-.941.457-1.164.938-.22.48-.225 1.118-.016 1.915l.193.738ZM104.465 282.728l-2.055-7.841 2.752-.721c1.095-.288 2.097-.203 3.007.253.91.456 1.516 1.262 1.819 2.418l.125.474c.303 1.156.17 2.155-.399 2.999-.57.844-1.402 1.409-2.497 1.696l-2.752.722Zm1.439-1.759.953-.249c.614-.161 1.057-.491 1.329-.988.276-.502.312-1.14.108-1.916l-.138-.528c-.203-.775-.548-1.312-1.033-1.611-.481-.3-1.029-.369-1.643-.208l-.953.25 1.377 5.25ZM93.663 285.56l-2.056-7.841 1.944-.51 3.924 4.077c.09.095.17.191.242.287.074.092.146.19.215.295l.043-.011a13.773 13.773 0 0 1-.22-.754l-1.226-4.674 1.503-.394 2.055 7.841-1.97.516-3.897-4.037a2.501 2.501 0 0 1-.244-.276 5.464 5.464 0 0 1-.2-.299l-.043.012c.04.124.079.248.115.372.04.121.075.242.107.364l1.216 4.636-1.508.396ZM85.273 287.759l-2.056-7.841 1.788-.468.823 3.139 3.14-.823-.823-3.139 1.782-.468L91.983 286l-1.783.467-.886-3.381-3.14.823.887 3.382-1.788.468ZM75.632 286.35l-.125-.474c-.326-1.246-.238-2.285.264-3.119.502-.838 1.29-1.397 2.363-1.679 1.07-.28 2.033-.18 2.888.302.854.478 1.445 1.34 1.771 2.586l.125.474c.326 1.246.235 2.288-.274 3.128-.51.836-1.3 1.394-2.37 1.674-1.073.282-2.033.182-2.88-.298-.849-.483-1.436-1.348-1.763-2.594Zm1.866-.345c.208.793.525 1.345.952 1.655.43.309.921.392 1.474.247.553-.145.943-.458 1.17-.94.227-.481.236-1.119.028-1.912l-.193-.738c-.21-.797-.53-1.35-.965-1.658-.433-.308-.927-.39-1.48-.245-.552.145-.94.458-1.164.938-.22.48-.225 1.118-.016 1.915l.194.738ZM68.943 289.376l-.023-.086 1.761-.462.03.113c.126.481.303.797.53.949.23.146.52.174.868.083.352-.092.588-.267.709-.525.123-.263.116-.654-.02-1.175l-1.38-5.261 1.788-.469 1.347 5.138c.24.915.17 1.689-.209 2.322-.376.628-1 1.056-1.873 1.285-.868.228-1.615.188-2.241-.12-.627-.312-1.056-.909-1.287-1.792ZM224.484 248.305 223.88 246c-.23-.876-.176-1.646.16-2.309.336-.664.964-1.116 1.883-1.357.919-.241 1.69-.156 2.312.257.621.409 1.047 1.053 1.278 1.932l.604 2.305c.23.876.173 1.647-.171 2.313-.343.665-.971 1.117-1.883 1.357-.919.24-1.688.154-2.306-.259-.619-.413-1.043-1.058-1.273-1.934Zm1.884-.344c.114.434.278.769.493 1.004.215.232.501.3.86.206s.575-.294.648-.601c.076-.312.057-.685-.057-1.119l-.678-2.585c-.114-.434-.279-.767-.497-.997-.215-.236-.502-.306-.861-.212-.356.093-.571.295-.647.607-.073.307-.053.677.061 1.112l.678 2.585ZM218.194 249.954l-.604-2.305c-.23-.876-.176-1.646.16-2.31.336-.663.964-1.116 1.883-1.356.919-.241 1.69-.156 2.312.257.621.409 1.047 1.053 1.278 1.932l.604 2.305c.23.876.173 1.647-.171 2.312-.343.666-.971 1.118-1.883 1.357-.919.241-1.688.155-2.306-.258-.619-.413-1.043-1.058-1.273-1.934Zm1.884-.344c.114.434.278.769.494 1.004.214.232.5.3.859.206s.575-.294.648-.601c.076-.312.057-.685-.057-1.119l-.678-2.585c-.113-.434-.279-.767-.497-.998-.215-.235-.502-.305-.861-.211-.356.093-.571.295-.647.607-.073.307-.053.677.061 1.112l.678 2.585ZM214.939 254.485l.687-9.279 1.432-.376-.687 9.279-1.432.376ZM211.677 254.621l-1.615-6.161-1.672 1.198-.382-1.459 2.42-1.723.969-.254 2.078 7.927-1.798.472ZM202.33 254.113l-.605-2.305c-.229-.876-.176-1.646.16-2.309.337-.664.964-1.116 1.883-1.357.919-.241 1.69-.156 2.312.257.622.409 1.048 1.053 1.278 1.932l.604 2.305c.23.876.173 1.647-.17 2.313-.344.665-.972 1.118-1.883 1.357-.919.241-1.688.154-2.307-.259-.619-.413-1.043-1.058-1.272-1.934Zm1.883-.344c.114.434.279.769.494 1.004.214.232.501.301.86.206.359-.094.575-.294.648-.601.075-.312.056-.684-.058-1.119l-.677-2.585c-.114-.434-.28-.767-.498-.997-.215-.236-.502-.306-.861-.212-.355.093-.571.296-.647.607-.073.307-.052.678.062 1.112l.677 2.585ZM222.954 238.59l-.541-2.062.687-.18.541 2.062c.068.26.181.437.338.532a.699.699 0 0 0 .555.058c.212-.055.364-.163.455-.323.092-.16.104-.37.036-.63l-.541-2.062.649-.17.54 2.062c.111.423.064.775-.142 1.056s-.501.472-.884.572c-.383.101-.733.079-1.05-.065-.318-.143-.532-.427-.643-.85ZM220.302 240.573l-.856-3.267 1.245-.327c.417-.109.764-.101 1.04.025a.94.94 0 0 1 .539.655.96.96 0 0 1-.145.839c-.177.249-.476.429-.894.539l-.561.147.317 1.209-.685.18Zm.242-1.869.561-.147c.232-.061.379-.157.442-.289a.607.607 0 0 0 .036-.429.582.582 0 0 0-.238-.352c-.119-.08-.295-.089-.528-.028l-.561.147.288 1.098Zm1.625 1.379-1.156-1.308.753-.21 1.188 1.312-.785.206ZM216.796 241.492l-.856-3.267.684-.18.352 1.342 1.517-.397-.352-1.342.684-.18.857 3.267-.685.18-.378-1.443-1.517.398.379 1.442-.685.18ZM212.975 239.518l-.126-.483 2.793-.732.127.482-1.055.277.73 2.784-.684.18-.73-2.785-1.055.277ZM209.801 243.326l-.857-3.267 1.162-.305c.476-.125.911-.089 1.304.107.393.194.651.526.774.996l.049.184c.123.469.061.886-.186 1.25-.247.362-.608.605-1.084.73l-1.162.305Zm.558-.662.477-.126c.295-.077.506-.232.634-.465.127-.234.147-.516.06-.848l-.048-.184c-.087-.332-.243-.569-.469-.71-.225-.14-.485-.172-.78-.095l-.478.126.604 2.302ZM208.487 243.67l-.857-3.267.685-.179.856 3.267-.684.179ZM205.916 244.344l-.856-3.267.684-.179.73 2.784 1.582-.414.127.482-2.267.594ZM202.637 245.204l.277-3.579.763-.2 2.005 2.981-.734.192-1.359-2.128a2.895 2.895 0 0 1-.175-.292l-.02.005a3.118 3.118 0 0 1-.009.34l-.14 2.521-.608.16Zm.355-.894.048-.531 1.529-.398.304.436-1.881.493ZM198.909 242.689l.732-.191 1.36 2.068c.033.047.063.096.091.146l.081.154.022-.006a3.38 3.38 0 0 1-.007-.173c.001-.058.004-.116.008-.173l.179-2.471.606-.159-.305 3.584-.741.194-2.026-2.973ZM77.199 278.089l-.857-3.267 2.356-.617.127.482-1.672.438.225.857 1.456-.381.127.484-1.456.382.252.96 1.694-.444.126.483-2.378.623ZM73.136 279.154l-.856-3.267.875-.229 1.286 1.914a6.136 6.136 0 0 1 .18.282l.017-.005c0-.059 0-.115.004-.169l.01-.163.154-2.292.913-.24.857 3.267-.68.179-.565-2.157a2.348 2.348 0 0 1-.074-.345l-.025.007c0 .053 0 .114-.002.183a5.609 5.609 0 0 1-.007.184l-.168 2.348-.55.144-1.32-1.968a2.077 2.077 0 0 1-.172-.317l-.026.007.058.167c.02.06.037.116.05.167l.569 2.165-.528.138ZM69.857 280.014l.277-3.579.763-.2 2.005 2.981-.734.192-1.359-2.128a3.143 3.143 0 0 1-.175-.292l-.02.005a2.482 2.482 0 0 1-.01.34l-.14 2.521-.607.16Zm.355-.894.048-.531 1.529-.398.303.436-1.88.493ZM66.95 280.776l-.857-3.267.774-.203 1.742 1.778c.039.038.077.083.115.136l.1.136.019-.004a5.083 5.083 0 0 1-.117-.382l-.528-2.013.574-.15.857 3.267-.77.201-1.753-1.765a1.025 1.025 0 0 1-.107-.118 4.933 4.933 0 0 1-.09-.123l-.018.005a10.501 10.501 0 0 1 .097.315l.534 2.037-.572.15Z"/><path fill="url(#c)" d="m40.548 181.616 50.55-13.252 2.409 9.191-50.55 13.252-2.409-9.191Z"/><path fill="url(#d)" d="m43.44 192.645 24.814-6.506 2.41 9.191-19.3 5.06a5.7 5.7 0 0 1-6.96-4.069l-.964-3.676Z"/><path fill="url(#e)" d="M39.103 176.102a5.7 5.7 0 0 1 4.068-6.96l3.677-.964 2.41 9.191-9.192 2.409-.963-3.676Z"/><path fill="url(#f)" d="m48.686 167.696 5.514-1.446 2.41 9.191-5.515 1.446-2.41-9.191Z"/><path fill="url(#g)" d="m70.093 185.658 23.895-6.265.964 3.676a5.7 5.7 0 0 1-4.069 6.96l-18.38 4.819-2.41-9.19Z"/><path fill="url(#h)" d="m79.934 159.504 2.757-.723a5.7 5.7 0 0 1 6.96 4.069l.964 3.676-8.271 2.169-2.41-9.191Z"/><path fill="url(#i)" d="m56.038 165.768 22.058-5.782 2.41 9.19-22.058 5.783-2.41-9.191Z"/><g fill="#fff" clip-path="url(#j)"><path d="M103.377 163.713a1.834 1.834 0 1 0-1.852 3.168 5.012 5.012 0 0 1 1.796 6.85 1.832 1.832 0 0 0 .658 2.51 1.834 1.834 0 0 0 2.51-.658c2.415-4.131 1.019-9.455-3.112-11.87Z"/><path d="M107.215 157.147a1.835 1.835 0 0 0-1.851 3.168c6.004 3.51 8.033 11.25 4.523 17.254a1.83 1.83 0 0 0 .658 2.51 1.835 1.835 0 0 0 2.51-.657c4.531-7.751 1.911-17.743-5.84-22.275Z"/><path d="M120.382 183.705c6.893-11.792 2.908-26.992-8.883-33.885a1.834 1.834 0 1 0-1.852 3.168 20.959 20.959 0 0 1 9.762 12.865 20.962 20.962 0 0 1-2.195 16 1.831 1.831 0 0 0-.19 1.391 1.834 1.834 0 0 0 3.358.461Z"/></g><path fill="#fff" d="M391.68 194.662c2.262 8.629-2.9 17.458-11.528 19.72-8.629 2.262-17.459-2.899-19.721-11.528-2.262-8.629 2.899-17.458 11.528-19.72 8.629-2.263 17.458 2.899 19.721 11.528Z"/><path fill="#fff" d="M415.575 188.397c2.263 8.629-2.899 17.458-11.528 19.72-8.629 2.263-17.458-2.899-19.72-11.528-2.262-8.629 2.899-17.458 11.528-19.72 8.629-2.262 17.458 2.899 19.72 11.528ZM36.95 117.076l-1.276 21.134-5.903 1.548 2.842-26.432 3.732-.978.605 4.728Zm10.395 18.075-11.498-17.786-1.86-4.399 3.783-.992 15.478 21.629-5.903 1.548Zm-2.617-8.876 1.09 4.16-12.874 3.375-1.091-4.16 12.875-3.375ZM55.96 117.808l3.7 14.114-5.293 1.388-4.682-17.861 4.97-1.303 1.304 3.662Zm.515 4.734-1.331.385c-.329-1.255-.478-2.445-.447-3.57.04-1.14.257-2.179.652-3.117a6.373 6.373 0 0 1 1.746-2.399c.78-.663 1.753-1.147 2.918-1.453.814-.213 1.587-.286 2.318-.219a4.332 4.332 0 0 1 2.003.657c.616.367 1.16.919 1.63 1.654.468.724.847 1.642 1.139 2.753l3.124 11.919-5.292 1.387-2.96-11.291c-.208-.792-.467-1.365-.777-1.719-.302-.368-.66-.58-1.073-.636-.414-.056-.88-.016-1.401.12-.565.148-1.037.401-1.414.759-.37.344-.646.763-.83 1.259a4.668 4.668 0 0 0-.277 1.642c.011.597.102 1.22.272 1.869Zm10.634-3.07-1.644.572c-.318-1.21-.465-2.371-.442-3.483.023-1.111.229-2.124.618-3.037a6.321 6.321 0 0 1 1.716-2.373c.77-.661 1.737-1.143 2.902-1.449.86-.225 1.671-.309 2.436-.25a4.602 4.602 0 0 1 2.139.691c.662.403 1.249 1.008 1.763 1.814.51.795.931 1.826 1.263 3.091l2.969 11.324-5.326 1.397-2.97-11.324c-.204-.782-.462-1.349-.772-1.703-.299-.357-.655-.563-1.069-.62-.402-.059-.857-.022-1.366.112-.566.148-1.027.392-1.385.733-.36.33-.63.73-.81 1.2-.181.46-.27.971-.268 1.535.003.564.085 1.154.246 1.77ZM92.192 114.467l-6.208 1.627-1.095-4.176 6.208-1.628c.916-.24 1.613-.581 2.089-1.024.487-.445.793-.96.918-1.546.133-.599.113-1.229-.06-1.889a4.59 4.59 0 0 0-.905-1.792 3.31 3.31 0 0 0-1.615-1.111c-.65-.218-1.432-.207-2.348.033l-4.207 1.103 5.206 19.858-5.53 1.45-6.3-24.035 9.736-2.552c1.968-.516 3.744-.611 5.328-.286 1.595.323 2.924.992 3.988 2.007 1.072 1.001 1.812 2.277 2.218 3.829.407 1.551.382 2.999-.076 4.342-.446 1.34-1.292 2.515-2.538 3.523-1.238.995-2.841 1.751-4.809 2.267ZM115.3 112.784l-2.008-7.66c-.141-.539-.347-.979-.618-1.32a2.047 2.047 0 0 0-1.035-.699c-.42-.125-.918-.112-1.495.039-.486.128-.888.322-1.207.582a1.934 1.934 0 0 0-.628.923c-.1.355-.091.759.027 1.21l-5.292 1.387a4.818 4.818 0 0 1-.029-2.391c.191-.791.563-1.542 1.114-2.251.563-.712 1.293-1.338 2.19-1.879.895-.552 1.947-.987 3.157-1.304 1.437-.377 2.776-.475 4.02-.296 1.252.166 2.329.63 3.23 1.394.898.753 1.532 1.833 1.901 3.242l1.96 7.478c.283 1.078.567 1.909.853 2.493.295.57.626 1.047.993 1.433l.073.281-5.343 1.401c-.384-.452-.738-1.041-1.062-1.768a15.268 15.268 0 0 1-.801-2.295Zm-1.078-6.81.778 2.831-2.629.689c-.588.154-1.078.359-1.47.615-.381.253-.669.54-.862.861-.197.31-.314.647-.352 1.009-.03.349.006.716.107 1.101.095.364.272.67.531.92.256.238.564.399.924.481.36.082.749.068 1.168-.042.689-.18 1.243-.467 1.66-.858.428-.395.729-.815.902-1.26.171-.456.213-.85.126-1.18l1.835 1.813a13.139 13.139 0 0 1-.387 1.565 6.539 6.539 0 0 1-.778 1.598c-.348.515-.812.983-1.39 1.405-.567.419-1.297.746-2.19.98-1.154.303-2.259.351-3.316.146-1.06-.216-1.978-.652-2.754-1.307-.764-.658-1.284-1.51-1.558-2.555-.245-.935-.288-1.812-.127-2.631.16-.818.524-1.572 1.092-2.262.58-.693 1.374-1.307 2.382-1.842 1.005-.545 2.226-1.006 3.662-1.383l2.646-.694ZM129.938 111.293l.659-17.056 5.699-1.495-1.995 22.47c-.04.493-.128 1.033-.264 1.622a6.362 6.362 0 0 1-.679 1.765c-.317.589-.782 1.123-1.393 1.601-.612.478-1.422.848-2.428 1.112-.509.134-.912.21-1.209.229a15.81 15.81 0 0 1-1.146.054l-1-3.743.391-.102a4.36 4.36 0 0 0 .377-.082c.633-.166 1.125-.365 1.475-.598.361-.236.614-.514.76-.834a2.89 2.89 0 0 0 .287-1.117l.466-3.826Zm-5.753-15.375 7.132 11.714 2.077 5.295-3.532 1.12-11.377-16.635 5.7-1.494Z"/></g><rect width="398.053" height="232.731" x=".61" y="102.238" stroke="url(#k)" rx="19.5" transform="rotate(-14.69 .61 102.238)"/><defs><linearGradient id="b" x1="0" x2="399.053" y1="101.881" y2="335.612" gradientUnits="userSpaceOnUse"><stop stop-color="#3C63E2"/><stop offset="1" stop-color="#5336A7"/></linearGradient><linearGradient id="c" x1="37.657" x2="96.398" y1="170.587" y2="188.584" gradientUnits="userSpaceOnUse"><stop stop-color="#E1C7AB"/><stop offset="1" stop-color="#BA8247"/></linearGradient><linearGradient id="d" x1="37.657" x2="96.398" y1="170.587" y2="188.584" gradientUnits="userSpaceOnUse"><stop stop-color="#E1C7AB"/><stop offset="1" stop-color="#BA8247"/></linearGradient><linearGradient id="e" x1="37.657" x2="96.398" y1="170.587" y2="188.584" gradientUnits="userSpaceOnUse"><stop stop-color="#E1C7AB"/><stop offset="1" stop-color="#BA8247"/></linearGradient><linearGradient id="f" x1="37.657" x2="96.398" y1="170.587" y2="188.584" gradientUnits="userSpaceOnUse"><stop stop-color="#E1C7AB"/><stop offset="1" stop-color="#BA8247"/></linearGradient><linearGradient id="g" x1="37.657" x2="96.398" y1="170.587" y2="188.584" gradientUnits="userSpaceOnUse"><stop stop-color="#E1C7AB"/><stop offset="1" stop-color="#BA8247"/></linearGradient><linearGradient id="h" x1="37.657" x2="96.398" y1="170.587" y2="188.584" gradientUnits="userSpaceOnUse"><stop stop-color="#E1C7AB"/><stop offset="1" stop-color="#BA8247"/></linearGradient><linearGradient id="i" x1="37.657" x2="96.398" y1="170.587" y2="188.584" gradientUnits="userSpaceOnUse"><stop stop-color="#E1C7AB"/><stop offset="1" stop-color="#BA8247"/></linearGradient><linearGradient id="k" x1="0" x2="399.053" y1="101.881" y2="335.612" gradientUnits="userSpaceOnUse"><stop stop-color="#9B999F"/><stop offset="1" stop-color="#3C3C3C"/></linearGradient><clipPath id="a"><rect width="399.053" height="233.731" y="101.881" fill="#fff" rx="20" transform="rotate(-14.69 0 101.881)"/></clipPath><clipPath id="j"><path fill="#fff" d="m122.648 146.341 9.156 34.925-34.925 9.156-9.156-34.925z"/></clipPath></defs></svg>