<svg xmlns="http://www.w3.org/2000/svg" width="173" height="70" fill="none"><rect width="172" height="69" x=".5" y=".5" stroke="#363636" rx="34.5"/><path fill="#C1B9B9" d="M90.93 42V27.781h4.55c1.394 0 2.487.303 3.282.909.8.598 1.2 1.542 1.2 2.831 0 .788-.194 1.433-.585 1.934a3.08 3.08 0 0 1-1.445 1.045v.04A3.3 3.3 0 0 1 99.67 35.7c.449.567.674 1.309.674 2.227 0 1.295-.417 2.298-1.25 3.008-.834.71-1.94 1.064-3.32 1.064H90.93Zm1.728-1.465h3.115c.97 0 1.68-.234 2.13-.703.455-.469.683-1.104.683-1.904 0-.801-.228-1.436-.684-1.905-.449-.468-1.159-.703-2.129-.703h-3.115v5.215Zm0-6.66h2.823c.97 0 1.666-.205 2.09-.615.429-.417.644-.993.644-1.729 0-.742-.215-1.308-.645-1.699-.423-.39-1.12-.586-2.09-.586h-2.822v4.629Zm9.42 8.125V31.912h1.552l.069 1.309h.049c.26-.43.602-.801 1.025-1.114.423-.319.928-.478 1.514-.478.136 0 .283.016.439.049.156.026.267.052.332.078v1.592a3.434 3.434 0 0 0-.4-.059 5.295 5.295 0 0 0-.479-.02c-.566 0-1.058.154-1.474.46a2.83 2.83 0 0 0-.918 1.152V42h-1.709Zm5.083-2.959c0-1.016.401-1.81 1.201-2.383.808-.573 1.84-.86 3.096-.86h2.305v-.732c0-.618-.163-1.116-.488-1.494-.319-.377-.863-.566-1.631-.566-.775 0-1.335.16-1.68.478-.338.313-.508.687-.508 1.123v.078h-1.709v-.097c0-.794.352-1.485 1.055-2.07.71-.593 1.67-.89 2.881-.89 1.204 0 2.135.287 2.793.86.664.567.996 1.426.996 2.578v4.59c0 .423.032.824.098 1.201.065.371.156.7.273.987V42h-1.65a3.143 3.143 0 0 1-.254-.635 4.026 4.026 0 0 1-.137-.781c-.241.417-.628.788-1.162 1.113-.528.326-1.211.488-2.051.488-.963 0-1.777-.27-2.441-.81-.658-.54-.987-1.318-.987-2.334Zm1.709-.088c0 .586.17 1.042.508 1.367.345.326.869.489 1.572.489.717 0 1.364-.244 1.944-.733.579-.495.869-1.022.869-1.582V37.04h-2.109c-.918 0-1.612.173-2.081.518-.468.345-.703.81-.703 1.396ZM116.835 42v-1.26l5.771-7.422h-5.693v-1.406h7.764v1.23l-5.791 7.452h6.074V42h-8.125Zm9.566 0V31.912h1.709V42h-1.709Zm-.225-13.242c0-.293.091-.537.274-.733.188-.201.455-.302.8-.302.352 0 .619.1.801.302.189.196.283.44.283.733 0 .3-.094.55-.283.752-.182.195-.449.293-.801.293-.345 0-.612-.101-.8-.303a1.064 1.064 0 0 1-.274-.742ZM130.488 42V27.107h1.709V42h-1.709Z"/><g clip-path="url(#a)"><path fill="#229E45" fill-rule="evenodd" d="M20 20h40v30H20V20Z" clip-rule="evenodd"/><path fill="#F8E509" fill-rule="evenodd" d="M40.088 47.25 58.93 35.019 39.975 22.75 21.07 35.044 40.088 47.25Z" clip-rule="evenodd"/><path fill="#2B49A3" fill-rule="evenodd" d="M48.3 35c0 4.394-3.569 7.956-7.975 7.956A7.962 7.962 0 1 1 48.3 35Z" clip-rule="evenodd"/><path fill="#FFFFEF" fill-rule="evenodd" d="m37.706 39.769-.25-.144-.25.125.056-.281-.2-.213.282-.031.137-.25.119.262.275.05-.206.188m5.375 1.644-.244-.144-.25.125.05-.281-.194-.207.281-.03.132-.257.125.262.275.05-.213.194m-2.262-1.875-.213-.125-.219.113.05-.244-.175-.181.25-.025.113-.225.1.231.244.044-.188.169m5.438-.532-.213-.125-.219.113.05-.244-.168-.175.243-.025.113-.219.1.225.237.044-.18.163m-5.457-1.376-.25-.137-.25.125.05-.287-.194-.207.281-.031.132-.256.125.262.275.05-.213.2m-6.537-2.187-.25-.138-.25.125.062-.287-.206-.206.287-.032.125-.256.125.263.275.05-.206.193m.831 3.575-.25-.144-.25.125.057-.28-.2-.207.28-.038.132-.25.125.263.275.05-.206.194m8.25-4.206-.225-.125-.225.112.05-.25-.175-.188.25-.03.119-.226.106.238.25.044-.188.168m-.418 2.394-.17-.1-.18.088.037-.2-.137-.144.2-.025.093-.175.082.187.187.032-.137.137m-8.888 3.15-.169-.094-.168.081.037-.187-.131-.137.187-.026.088-.168.081.175.188.037-.144.125m12.512.956-.137-.068-.138.062.032-.144-.107-.1.15-.018.075-.125.063.125.156.031-.119.094" clip-rule="evenodd"/><path fill="#FFFFEF" fill-rule="evenodd" d="m33.706 37.975-.169-.094-.168.081.037-.187-.131-.137.187-.026.088-.168.081.175.188.037-.144.125" clip-rule="evenodd"/><path fill="#FFFFEF" fill-rule="evenodd" d="m33.706 37.975-.169-.094-.168.081.037-.187-.131-.137.187-.026.088-.168.081.175.188.037-.144.125m2.644.188-.163-.088-.169.081.038-.187-.131-.137.187-.026.088-.168.08.175.188.031-.143.131m-.3 1.063-.163-.094-.169.087.038-.187-.131-.144.187-.025.088-.169.08.175.188.038-.143.125m5.462-1.387-.162-.1-.175.087.037-.188-.125-.143.188-.019.087-.169.075.175.188.032-.138.13m-1.569.188-.168-.093-.17.087.038-.188-.125-.143.188-.019.087-.175.075.181.188.032-.138.13m-4.3-.362-.106-.062-.106.05.025-.119-.081-.088.118-.012.05-.106.05.112.12.019-.088.081M45.98 39.42l-.162-.094-.17.087.038-.187-.13-.144.187-.025.087-.168.081.175.188.037-.144.125m-1.3.375-.137-.087-.144.075.031-.163-.106-.112.156-.02.075-.143.063.15.156.025-.119.112m.65.144-.125-.075-.131.063.025-.144-.1-.106.144-.019.068-.125.063.125.144.031-.107.1m1.82-1.425-.126-.062-.125.062.031-.144-.1-.106.144-.019.063-.125.062.132.131.025-.1.1m-2.425 2.612-.156-.087-.169.075.038-.175-.125-.125.187-.019.082-.156.075.162.187.032-.144.118m.038.888-.15-.088-.15.081.037-.174-.118-.125.168-.026.075-.156.07.163.168.031-.125.125m-1.188-1.444-.118-.075-.125.063.025-.138-.094-.106.137-.013.063-.124.062.124.138.026-.1.1m-1.113.143-.125-.075-.125.063.032-.138-.1-.106.143-.013.063-.124.062.124.132.026-.1.1m-1.9-1.538-.125-.069-.125.063.03-.144-.1-.1.138-.019.063-.125.062.125.138.032-.1.093m.231 3.563-.1-.056-.112.056.025-.125-.082-.088.12-.012.055-.107.05.113.12.019-.088.081m-2.888-5.413-.25-.143-.25.125.056-.282-.2-.206.282-.037.137-.25.119.262.275.05-.206.194" clip-rule="evenodd"/><path fill="#fff" fill-rule="evenodd" d="M47.775 37.862c.155-.401.276-.815.363-1.237C43.9 32.906 39.18 31 33.218 31.394a7.785 7.785 0 0 0-.53 1.306c7.062-.675 12.25 2.45 15.087 5.162Z" clip-rule="evenodd"/><path fill="#309E3A" d="m45.875 35.775.144.081a.213.213 0 0 0-.019.138.187.187 0 0 0 .088.106c.043.031.087.05.125.044a.097.097 0 0 0 .08-.044.08.08 0 0 0 .013-.056.144.144 0 0 0-.03-.063.769.769 0 0 0-.095-.112.482.482 0 0 1-.112-.188.232.232 0 0 1 .125-.275.238.238 0 0 1 .144-.012.435.435 0 0 1 .162.075c.088.062.144.125.163.2a.257.257 0 0 1-.038.206l-.15-.094c.019-.037.025-.075.013-.106-.007-.031-.032-.063-.075-.087a.2.2 0 0 0-.113-.044.064.064 0 0 0-.056.031c-.013.019-.013.037-.006.063a.383.383 0 0 0 .1.137c.062.063.1.119.125.156a.244.244 0 0 1-.02.263.257.257 0 0 1-.118.093.25.25 0 0 1-.15.02.483.483 0 0 1-.175-.082c-.094-.063-.15-.131-.169-.206a.338.338 0 0 1 .038-.25l.006.006Zm-.725-.475.156.081a.213.213 0 0 0-.012.138.188.188 0 0 0 .087.1c.05.031.088.044.125.037.038 0 .063-.018.082-.05a.08.08 0 0 0 .012-.05c0-.018-.012-.043-.031-.062a2.128 2.128 0 0 0-.1-.113c-.069-.069-.113-.125-.125-.175a.232.232 0 0 1 .125-.281.238.238 0 0 1 .137-.019c.058.01.113.031.163.063.094.062.15.125.169.194a.255.255 0 0 1-.025.212l-.157-.087c.02-.044.025-.075.013-.107a.178.178 0 0 0-.081-.087.2.2 0 0 0-.12-.038.063.063 0 0 0-.05.032c-.012.018-.012.037-.005.062a.434.434 0 0 0 .106.138.7.7 0 0 1 .125.15.243.243 0 0 1 0 .262.262.262 0 0 1-.113.1.25.25 0 0 1-.15.019.5.5 0 0 1-.18-.069.375.375 0 0 1-.176-.2.337.337 0 0 1 .025-.25Zm-.887-.237.456-.75.55.343-.075.125-.4-.25-.1.169.375.231-.081.125-.375-.231-.125.206.418.25-.075.125-.568-.343ZM42.969 34l.069-.125.337.169-.156.312c-.05.013-.113.019-.188.013a.586.586 0 0 1-.206-.063.48.48 0 0 1-.187-.162.375.375 0 0 1-.063-.219.537.537 0 0 1 .225-.419.387.387 0 0 1 .225-.069c.063 0 .125.02.2.063a.36.36 0 0 1 .194.175c.032.068.04.146.019.219l-.17-.05a.186.186 0 0 0-.012-.125c-.018-.038-.05-.063-.1-.088a.236.236 0 0 0-.193-.019c-.063.02-.12.075-.163.163-.044.087-.062.169-.044.238a.232.232 0 0 0 .125.15.21.21 0 0 0 .107.03.379.379 0 0 0 .112 0l.05-.1L42.97 34Zm-5.638-1.394.125-.875.263.044.069.613.243-.563.263.038-.125.862L38 32.7l.106-.681-.275.656-.168-.025-.07-.706-.1.687-.162-.025Zm-.88-.106.08-.875.644.063-.012.15-.47-.044-.018.187.438.044-.02.15-.437-.044-.018.238.487.044-.012.15-.663-.063ZM33.531 31.956c0-.093.019-.162.044-.225a.42.42 0 0 1 .2-.194.656.656 0 0 1 .188-.03c.13 0 .23.05.312.124a.46.46 0 0 1 .1.344c0 .137-.044.25-.125.331a.406.406 0 0 1-.313.107.412.412 0 0 1-.3-.125.456.456 0 0 1-.106-.332Z"/><path fill="#F7FFFF" d="M33.712 31.956c0 .094.02.169.063.225.044.05.1.082.175.082a.219.219 0 0 0 .175-.07c.044-.05.062-.124.069-.23 0-.1-.013-.175-.063-.226a.218.218 0 0 0-.169-.08.226.226 0 0 0-.175.074c-.05.05-.068.125-.075.225Z"/><path fill="#309E3A" d="m34.563 32.406.012-.875h.375a.51.51 0 0 1 .2.032.183.183 0 0 1 .1.08.259.259 0 0 1 .038.145c0 .06-.022.118-.063.162a.281.281 0 0 1-.169.075l.094.075a.708.708 0 0 1 .094.144l.106.175h-.212l-.125-.2-.088-.125a.132.132 0 0 0-.056-.038.315.315 0 0 0-.088-.012h-.037v.362h-.181Z"/><path fill="#fff" d="M34.75 31.906h.125c.087 0 .144 0 .163-.012.018 0 .037-.019.05-.031.012-.013.018-.044.018-.063 0-.038-.006-.063-.025-.075-.012-.019-.037-.031-.062-.038h-.125l-.144-.006v.225Z"/><path fill="#309E3A" d="m35.562 31.575.325.019a.55.55 0 0 1 .163.018.293.293 0 0 1 .125.088.376.376 0 0 1 .075.15c.019.056.025.125.019.206 0 .064-.011.127-.032.188a.384.384 0 0 1-.106.15.314.314 0 0 1-.125.062c-.037.013-.094.013-.156.013l-.331-.019.043-.875Z"/><path fill="#fff" d="m35.731 31.731-.031.581h.237a.103.103 0 0 0 .075-.03.201.201 0 0 0 .05-.082.52.52 0 0 0 .025-.163l-.006-.156a.201.201 0 0 0-.05-.087.17.17 0 0 0-.075-.044.81.81 0 0 0-.144-.019h-.081Z"/><path fill="#309E3A" d="m39.85 33.138.206-.85.275.062.2.063a.211.211 0 0 1 .1.118c.025.05.025.107.013.175a.263.263 0 0 1-.063.125.244.244 0 0 1-.187.088.953.953 0 0 1-.188-.031l-.106-.032-.075.325-.175-.043Z"/><path fill="#fff" d="m40.188 32.475-.05.237.093.025c.063.013.113.026.138.02a.119.119 0 0 0 .1-.094c0-.032 0-.057-.013-.082a.125.125 0 0 0-.062-.056l-.119-.031-.081-.019h-.006Z"/><path fill="#309E3A" d="m40.663 33.381.293-.825.344.125c.094.032.15.063.188.088a.185.185 0 0 1 .062.112c.006.05.013.094 0 .144a.276.276 0 0 1-.112.138.303.303 0 0 1-.188.018c.025.032.05.063.063.1l.05.169.037.194-.194-.069-.062-.225a1.203 1.203 0 0 0-.044-.15.132.132 0 0 0-.037-.05c-.013-.019-.038-.031-.082-.044l-.03-.012-.126.35-.162-.063Z"/><path fill="#fff" d="m41 32.962.119.044a.542.542 0 0 0 .156.044c.019 0 .037 0 .056-.019a.092.092 0 0 0 .038-.056.08.08 0 0 0 0-.075.107.107 0 0 0-.05-.056l-.125-.044-.125-.044-.075.206H41Z"/><path fill="#309E3A" d="M41.688 33.35a.561.561 0 0 1 .106-.2.412.412 0 0 1 .112-.094.376.376 0 0 1 .125-.043c.063 0 .125 0 .194.025a.407.407 0 0 1 .263.206c.05.1.05.218.012.356a.463.463 0 0 1-.212.281.389.389 0 0 1-.325.025.413.413 0 0 1-.263-.206.454.454 0 0 1-.012-.35Z"/><path fill="#fff" d="M41.862 33.4c-.025.094-.03.175 0 .238.032.062.075.1.144.125a.224.224 0 0 0 .188-.026c.062-.03.1-.1.131-.2.031-.093.031-.168 0-.23a.22.22 0 0 0-.138-.126.223.223 0 0 0-.187.019c-.063.037-.106.1-.138.2Z"/><path fill="#309E3A" d="m43.394 34.569.4-.775.33.169c.063.03.12.07.17.118a.16.16 0 0 1 .05.119c0 .05 0 .094-.025.137a.238.238 0 0 1-.125.125.346.346 0 0 1-.194-.012c.025.037.037.075.05.106a.813.813 0 0 1 .025.175l.012.2-.187-.093-.025-.232a1.262 1.262 0 0 0-.019-.156.125.125 0 0 0-.031-.063l-.075-.043-.031-.019-.17.325-.155-.081Z"/><path fill="#fff" d="m43.781 34.2.119.063c.075.037.125.062.144.062.019 0 .044 0 .062-.013.019-.006.032-.024.044-.05a.107.107 0 0 0 .013-.075.125.125 0 0 0-.044-.062 1.502 1.502 0 0 0-.113-.063L43.881 34l-.1.2Z"/><path fill="#309E3A" d="M46.631 36.169a.557.557 0 0 1 .157-.163.414.414 0 0 1 .137-.056.342.342 0 0 1 .138 0 .48.48 0 0 1 .175.075.413.413 0 0 1 .187.275.491.491 0 0 1-.087.344.456.456 0 0 1-.282.206.407.407 0 0 1-.325-.069.411.411 0 0 1-.187-.275.462.462 0 0 1 .087-.337Z"/><path fill="#fff" d="M46.788 36.269c-.063.081-.081.156-.069.225a.226.226 0 0 0 .1.156.21.21 0 0 0 .188.038.33.33 0 0 0 .18-.15c.057-.088.082-.163.07-.225a.242.242 0 0 0-.1-.163.204.204 0 0 0-.188-.031c-.063.012-.125.062-.188.15h.007Z"/><path fill="#309E3A" d="m38.862 32.781.144-.612.45.106-.019.1-.33-.075-.032.138.306.068-.025.106-.306-.075-.038.17.344.08-.025.1-.469-.106Z"/></g><defs><clipPath id="a"><rect width="40" height="30" x="20" y="20" fill="#fff" rx="15"/></clipPath></defs></svg>