<svg xmlns="http://www.w3.org/2000/svg" width="153" height="70" fill="none"><rect width="152" height="69" x=".5" y=".5" fill="#fff" stroke="#363636" rx="34.5"/><path fill="#000" d="M70.38 35.33v-.879c0-2.22.548-3.932 1.642-5.137 1.1-1.21 2.477-1.816 4.13-1.816 1.66 0 2.956.456 3.887 1.367.931.912 1.397 2.028 1.397 3.35v.127h-1.768v-.127c0-.944-.293-1.712-.879-2.305-.58-.599-1.458-.898-2.637-.898-1.171 0-2.129.446-2.87 1.338-.743.891-1.114 2.259-1.114 4.101v.88c0 1.711.371 3.046 1.113 4.003.742.957 1.703 1.435 2.881 1.435 1.113 0 1.953-.299 2.52-.898.573-.605.898-1.374.976-2.305l.01-.127h1.767l-.01.137c-.11 1.309-.601 2.422-1.474 3.34-.872.912-2.138 1.367-3.799 1.367-1.68 0-3.063-.605-4.15-1.816-1.08-1.211-1.621-2.923-1.621-5.137Zm12.086 3.711c0-1.016.4-1.81 1.202-2.383.807-.573 1.839-.86 3.095-.86h2.305v-.732c0-.618-.163-1.116-.488-1.494-.32-.377-.863-.566-1.631-.566-.775 0-1.335.16-1.68.478-.338.313-.508.687-.508 1.123v.078h-1.709v-.097c0-.794.352-1.485 1.055-2.07.71-.593 1.67-.89 2.88-.89 1.205 0 2.136.287 2.794.86.664.567.996 1.426.996 2.578v4.59c0 .423.032.824.098 1.201.065.371.156.7.273.987V42h-1.65a3.203 3.203 0 0 1-.254-.635 4.102 4.102 0 0 1-.137-.781c-.24.417-.628.788-1.162 1.113-.527.326-1.211.488-2.05.488-.964 0-1.778-.27-2.442-.81-.658-.54-.987-1.318-.987-2.334Zm1.71-.088c0 .586.169 1.042.507 1.367.345.326.87.489 1.572.489.717 0 1.364-.244 1.944-.733.58-.495.869-1.022.869-1.582V37.04h-2.11c-.917 0-1.61.173-2.08.518-.468.345-.703.81-.703 1.396ZM92.94 42V31.912h1.552l.069 1.309h.049c.364-.469.81-.837 1.337-1.104a3.919 3.919 0 0 1 1.778-.4c1.009 0 1.813.286 2.412.86.599.572.898 1.536.898 2.89V42h-1.709v-6.543c0-.82-.185-1.406-.556-1.758-.365-.358-.886-.537-1.563-.537-.573 0-1.08.156-1.523.469a3.2 3.2 0 0 0-1.035 1.22V42h-1.71Zm9.654-2.959c0-1.016.4-1.81 1.201-2.383.807-.573 1.839-.86 3.095-.86h2.305v-.732c0-.618-.163-1.116-.488-1.494-.319-.377-.863-.566-1.631-.566-.775 0-1.335.16-1.68.478-.338.313-.508.687-.508 1.123v.078h-1.709v-.097c0-.794.352-1.485 1.055-2.07.71-.593 1.67-.89 2.881-.89 1.204 0 2.135.287 2.793.86.664.567.996 1.426.996 2.578v4.59c0 .423.033.824.098 1.201.065.371.156.7.273.987V42h-1.65a3.203 3.203 0 0 1-.254-.635 4.103 4.103 0 0 1-.137-.781c-.241.417-.628.788-1.162 1.113-.527.326-1.211.488-2.051.488-.963 0-1.777-.27-2.441-.81-.658-.54-.986-1.318-.986-2.334Zm1.709-.088c0 .586.169 1.042.507 1.367.345.326.869.489 1.573.489.716 0 1.364-.244 1.943-.733.579-.495.869-1.022.869-1.582V37.04h-2.109c-.918 0-1.612.173-2.08.518-.469.345-.703.81-.703 1.396Zm8.15-1.846v-.312c0-1.471.38-2.686 1.142-3.643.768-.957 1.79-1.435 3.066-1.435.71 0 1.312.127 1.807.38.501.248.899.58 1.192.997v-5.987h1.718V42h-1.552l-.069-1.328h-.058c-.261.417-.655.775-1.182 1.074-.527.3-1.146.45-1.856.45-1.282 0-2.304-.48-3.066-1.436-.762-.964-1.142-2.181-1.142-3.653Zm1.748 0c0 1.042.227 1.915.683 2.618.456.703 1.169 1.054 2.139 1.054.651 0 1.201-.176 1.65-.527.456-.358.785-.765.987-1.22v-4.17c-.196-.456-.521-.86-.977-1.212-.456-.351-1.009-.527-1.66-.527-.97 0-1.683.352-2.139 1.055-.456.703-.683 1.575-.683 2.617v.312Zm8.833 1.934c0-1.016.401-1.81 1.201-2.383.808-.573 1.84-.86 3.096-.86h2.305v-.732c0-.618-.163-1.116-.489-1.494-.319-.377-.862-.566-1.63-.566-.775 0-1.335.16-1.68.478-.339.313-.508.687-.508 1.123v.078h-1.709v-.097c0-.794.352-1.485 1.055-2.07.709-.593 1.67-.89 2.881-.89 1.204 0 2.135.287 2.793.86.664.567.996 1.426.996 2.578v4.59c0 .423.032.824.097 1.201.065.371.157.7.274.987V42h-1.651a3.265 3.265 0 0 1-.254-.635 4.1 4.1 0 0 1-.136-.781c-.241.417-.628.788-1.162 1.113-.528.326-1.211.488-2.051.488-.964 0-1.777-.27-2.442-.81-.657-.54-.986-1.318-.986-2.334Zm1.709-.088c0 .586.169 1.042.508 1.367.345.326.869.489 1.572.489.716 0 1.364-.244 1.944-.733.579-.495.869-1.022.869-1.582V37.04h-2.11c-.918 0-1.611.173-2.08.518-.468.345-.703.81-.703 1.396Z"/><g clip-path="url(#a)"><path fill="#fff" d="M29.381 20h21.231v30H29.375l.006-30Z"/><path fill="#D52B1E" d="M18.769 20H29.38v30H18.77V20Zm31.843 0h10.613v30H50.619l-.007-30Zm-18.05 14.5-.83.275 3.837 3.375c.293.856-.1 1.113-.35 1.563l4.162-.526-.1 4.188.869-.019-.194-4.162 4.169.5c-.256-.544-.488-.832-.25-1.7l3.831-3.188-.669-.25c-.55-.425.238-2.037.35-3.056 0 0-2.23.769-2.375.363l-.575-1.094-2.037 2.237c-.219.056-.313-.031-.369-.218l.938-4.675-1.488.837c-.125.056-.25.006-.325-.137l-1.437-2.875-1.475 2.987c-.113.106-.225.119-.313.044l-1.431-.794.856 4.631c-.069.188-.231.238-.419.138l-1.95-2.207c-.25.407-.425 1.07-.762 1.22-.338.143-1.469-.282-2.225-.438.262.925 1.062 2.475.562 2.981Z"/></g><rect width="39" height="29" x="20.5" y="20.5" stroke="#D3D3D3" rx="14.5"/><defs><clipPath id="a"><rect width="40" height="30" x="20" y="20" fill="#fff" rx="15"/></clipPath></defs></svg>