<svg xmlns="http://www.w3.org/2000/svg" width="153" height="70" fill="none" viewBox="0 0 153 70">
  <rect width="152" height="69" x=".5" y=".5" fill="#DE2910" stroke="#363636" rx="14.5"/>
  <path fill="#FFDE00" d="M28 18 30.5 25h7.5l-6 4.5 2.5 7.5-6-4.5-6 4.5 2.5-7.5-6-4.5h7.5L28 18Z"/>
  <path fill="#FFDE00" d="m42 14 1 3h3l-2.5 2 1 3-2.5-2-2.5 2 1-3-2.5-2h3l1-3Zm8 4 1 3h3l-2.5 2 1 3-2.5-2-2.5 2 1-3-2.5-2h3l1-3Zm-4 8 1 3h3l-2.5 2 1 3-2.5-2-2.5 2 1-3-2.5-2h3l1-3Zm-8 0 1 3h3l-2.5 2 1 3-2.5-2-2.5 2 1-3-2.5-2h3l1-3Zm-4-8 1 3h3l-2.5 2 1 3-2.5-2-2.5 2 1-3-2.5-2h3l1-3Z"/>
</svg>
