<svg xmlns="http://www.w3.org/2000/svg" width="38" height="30" fill="none"><g clip-path="url(#a)"><path fill="#039" d="M38 0H0v30h38V0Z"/><path fill="#FC0" d="m19 3.333-.434 1.585.669.258L19 3.333Z"/><path fill="#FC0" d="m19 3.333.435 1.585-.669.258.235-1.843Z"/><path fill="#FC0" d="m20.338 4.485-1.384.073-.023.76 1.407-.833Z"/><path fill="#FC0" d="m20.338 4.442-1.156 1.023-.396-.631 1.552-.392Z"/><path fill="#FC0" d="m19.827 6.33-.412-1.567-.692.276 1.104 1.291Z"/><path fill="#FC0" d="m19.813 6.348-1.124-.957.428-.696.695 1.653Z"/><path fill="#FC0" d="m17.662 4.485 1.384.073.024.76-1.408-.833Z"/><path fill="#FC0" d="m17.662 4.442 1.157 1.023.395-.631-1.552-.392Z"/><path fill="#FC0" d="m18.173 6.33.412-1.567.692.276-1.104 1.291Z"/><path fill="#FC0" d="m18.188 6.348 1.124-.957-.428-.696-.696 1.653ZM19 23.333l-.434 1.586.669.257L19 23.333Z"/><path fill="#FC0" d="m19 23.333.435 1.586-.669.257.235-1.843Z"/><path fill="#FC0" d="m20.338 24.485-1.384.073-.023.76 1.407-.833Z"/><path fill="#FC0" d="m20.338 24.442-1.156 1.023-.396-.631 1.552-.392Z"/><path fill="#FC0" d="m19.827 26.33-.412-1.567-.692.276 1.104 1.291Z"/><path fill="#FC0" d="m19.813 26.348-1.124-.957.428-.696.695 1.653Z"/><path fill="#FC0" d="m17.662 24.485 1.384.073.024.76-1.408-.833Z"/><path fill="#FC0" d="m17.662 24.442 1.157 1.023.395-.631-1.552-.392Z"/><path fill="#FC0" d="m18.173 26.33.412-1.567.692.276-1.104 1.291Z"/><path fill="#FC0" d="m18.188 26.348 1.124-.957-.428-.696-.696 1.653ZM10.556 13.333l-.435 1.585.67.258-.235-1.843Z"/><path fill="#FC0" d="m10.556 13.333.435 1.585-.67.258.235-1.843Z"/><path fill="#FC0" d="m11.894 14.485-1.384.073-.023.76 1.407-.833Z"/><path fill="#FC0" d="m11.894 14.442-1.156 1.023-.396-.631 1.552-.392Z"/><path fill="#FC0" d="m11.383 16.33-.412-1.567-.692.276 1.104 1.291Z"/><path fill="#FC0" d="m11.368 16.348-1.124-.957.428-.696.696 1.653Z"/><path fill="#FC0" d="m9.218 14.485 1.384.073.023.76-1.407-.833Z"/><path fill="#FC0" d="m9.218 14.442 1.156 1.023.396-.631-1.552-.392Z"/><path fill="#FC0" d="m9.729 16.33.412-1.567.692.276L9.73 16.33Z"/><path fill="#FC0" d="m9.744 16.348 1.124-.957-.429-.696-.695 1.653ZM13.966 7.688l1.123-.956-.429-.698-.694 1.654Z"/><path fill="#FC0" d="m13.95 7.67.411-1.567.694.277-1.104 1.29Z"/><path fill="#FC0" d="m13.439 5.807 1.152.997.4-.656-1.552-.34Z"/><path fill="#FC0" d="m13.439 5.825 1.391.032.016.801-1.407-.833Z"/><path fill="#FC0" d="m14.755 4.673-.412 1.565.692.278-.28-1.843Z"/><path fill="#FC0" d="m14.76 4.673.453 1.608-.65.235.196-1.843Z"/><path fill="#FC0" d="m15.62 7.688-1.153-1 .4-.654.753 1.654Z"/><path fill="#FC0" d="m15.605 7.708-.452-1.605-.652.238 1.104 1.367Z"/><path fill="#FC0" d="m16.117 5.843-1.13.962-.422-.692 1.552-.27Z"/><path fill="#FC0" d="m16.106 5.856-1.397-.031.01.802 1.387-.77ZM12.515 11.33l-.41-1.567-.694.277 1.104 1.29Z"/><path fill="#FC0" d="m12.499 11.348-1.123-.956.429-.697.694 1.653Z"/><path fill="#FC0" d="m10.846 11.348 1.153-1-.4-.653-.753 1.653Z"/><path fill="#FC0" d="m10.86 11.368.453-1.604.651.237-1.104 1.367Z"/><path fill="#FC0" d="m10.349 9.503 1.13.962.422-.692-1.552-.27Z"/><path fill="#FC0" d="m10.36 9.516 1.396-.03-.01.801-1.387-.77Z"/><path fill="#FC0" d="m13.026 9.467-1.153.998-.4-.657 1.553-.34Z"/><path fill="#FC0" d="m13.026 9.485-1.392.032-.016.801 1.408-.833Z"/><path fill="#FC0" d="m11.71 8.334.412 1.565-.693.277.281-1.842Z"/><path fill="#FC0" d="m11.706 8.334-.454 1.607.65.235-.196-1.842ZM13.025 19.485l-1.375.099-.032.734 1.407-.833Z"/><path fill="#FC0" d="m13.025 19.423-1.16 1.042-.392-.612 1.552-.43Z"/><path fill="#FC0" d="m12.514 21.289-.385-1.526-.719.317 1.104 1.209Z"/><path fill="#FC0" d="m12.493 21.348-1.117-.895.434-.758.683 1.653Z"/><path fill="#FC0" d="m10.85 21.348 1.148-1.032-.404-.621-.743 1.653Z"/><path fill="#FC0" d="m10.86 21.4.44-1.637.664.205-1.104 1.433Z"/><path fill="#FC0" d="m11.709 18.333.413 1.517-.691.326.278-1.843Z"/><path fill="#FC0" d="M11.69 18.333 11.253 20l.665.177-.226-1.843Z"/><path fill="#FC0" d="m10.349 19.569 1.395-.084.012.75-1.407-.666Z"/><path fill="#FC0" d="m10.349 19.537 1.154.928.398-.727-1.552-.201ZM16.116 23.145l-1.375.099-.032.735 1.407-.834Z"/><path fill="#FC0" d="m16.116 23.083-1.161 1.042-.391-.612 1.552-.43Z"/><path fill="#FC0" d="m15.605 24.949-.385-1.526-.72.318 1.105 1.208Z"/><path fill="#FC0" d="m15.584 25.009-1.118-.896.435-.758.683 1.654Z"/><path fill="#FC0" d="m13.941 25.009 1.148-1.033-.404-.621-.744 1.654Z"/><path fill="#FC0" d="m13.95 25.061.441-1.637.664.205-1.104 1.432Z"/><path fill="#FC0" d="m14.8 21.994.413 1.517-.691.325.278-1.842Z"/><path fill="#FC0" d="m14.782 21.994-.44 1.665.666.177-.226-1.842Z"/><path fill="#FC0" d="m13.44 23.23 1.395-.085.012.75-1.407-.666Z"/><path fill="#FC0" d="m13.44 23.197 1.154.928.398-.726-1.553-.202ZM27.444 13.333l.435 1.585-.669.258.234-1.843Z"/><path fill="#FC0" d="m27.444 13.333-.435 1.585.67.258-.235-1.843Z"/><path fill="#FC0" d="m26.106 14.485 1.385.073.023.76-1.408-.833Z"/><path fill="#FC0" d="m26.106 14.442 1.157 1.023.396-.631-1.553-.392Z"/><path fill="#FC0" d="m26.618 16.33.411-1.567.693.276-1.104 1.291Z"/><path fill="#FC0" d="m26.632 16.348 1.124-.957-.428-.696-.696 1.653Z"/><path fill="#FC0" d="m28.783 14.485-1.385.073-.023.76 1.408-.833Z"/><path fill="#FC0" d="m28.783 14.442-1.157 1.023-.396-.631 1.553-.392Z"/><path fill="#FC0" d="m28.271 16.33-.411-1.567-.693.276 1.104 1.291Z"/><path fill="#FC0" d="m28.257 16.348-1.124-.957.428-.696.696 1.653ZM24.035 7.688l-1.124-.956.43-.698.694 1.654Z"/><path fill="#FC0" d="m24.05 7.67-.41-1.567-.694.277 1.104 1.29Z"/><path fill="#FC0" d="m24.561 5.807-1.152.997-.4-.656 1.552-.34Z"/><path fill="#FC0" d="m24.561 5.825-1.39.032-.017.801 1.407-.833Z"/><path fill="#FC0" d="m23.246 4.673.411 1.565-.692.278.28-1.843Z"/><path fill="#FC0" d="m23.241 4.673-.453 1.608.65.235-.197-1.843Z"/><path fill="#FC0" d="m22.38 7.688 1.154-1-.4-.654-.753 1.654Z"/><path fill="#FC0" d="m22.395 7.708.453-1.605.651.238-1.104 1.367Z"/><path fill="#FC0" d="m21.884 5.843 1.13.962.422-.692-1.552-.27Z"/><path fill="#FC0" d="m21.895 5.856 1.396-.031-.01.802-1.386-.77ZM25.486 11.33l.41-1.567.694.277-1.104 1.29Z"/><path fill="#FC0" d="m25.502 11.348 1.123-.956-.43-.697-.694 1.653Z"/><path fill="#FC0" d="m27.155 11.348-1.153-1 .4-.653.753 1.653Z"/><path fill="#FC0" d="m27.14 11.368-.452-1.604-.651.237 1.104 1.367Z"/><path fill="#FC0" d="m27.652 9.503-1.13.962-.422-.692 1.552-.27Z"/><path fill="#FC0" d="m27.641 9.516-1.397-.03.011.801 1.386-.77Z"/><path fill="#FC0" d="m24.975 9.467 1.152.998.4-.657-1.552-.34Z"/><path fill="#FC0" d="m24.975 9.485 1.391.032.016.801-1.407-.833Z"/><path fill="#FC0" d="m26.29 8.334-.411 1.565.692.277-.28-1.842Z"/><path fill="#FC0" d="m26.295 8.334.454 1.607-.65.235.196-1.842ZM24.975 19.485l1.376.099.032.734-1.408-.833Z"/><path fill="#FC0" d="m24.975 19.423 1.161 1.042.391-.612-1.552-.43Z"/><path fill="#FC0" d="m25.486 21.289.386-1.526.718.317-1.104 1.209Z"/><path fill="#FC0" d="m25.507 21.348 1.118-.895-.435-.758-.683 1.653Z"/><path fill="#FC0" d="m27.15 21.348-1.148-1.032.405-.621.743 1.653Z"/><path fill="#FC0" d="m27.14 21.4-.44-1.637-.663.205 1.104 1.433Z"/><path fill="#FC0" d="m26.291 18.333-.412 1.517.69.326-.277-1.843Z"/><path fill="#FC0" d="M26.31 18.333 26.748 20l-.665.177.227-1.843Z"/><path fill="#FC0" d="m27.652 19.569-1.396-.084-.012.75 1.408-.666Z"/><path fill="#FC0" d="m27.652 19.537-1.155.928-.397-.727 1.552-.201ZM21.884 23.145l1.376.099.032.735-1.408-.834Z"/><path fill="#FC0" d="m21.884 23.083 1.162 1.042.39-.612-1.552-.43Z"/><path fill="#FC0" d="m22.395 24.949.386-1.526.719.318-1.105 1.208Z"/><path fill="#FC0" d="m22.416 25.009 1.118-.896-.435-.758-.683 1.654Z"/><path fill="#FC0" d="m24.06 25.009-1.149-1.033.405-.621.743 1.654Z"/><path fill="#FC0" d="m24.05 25.061-.44-1.637-.664.205 1.104 1.432Z"/><path fill="#FC0" d="m23.2 21.994-.412 1.517.691.325-.278-1.842Z"/><path fill="#FC0" d="m23.219 21.994.439 1.665-.666.177.227-1.842Z"/><path fill="#FC0" d="m24.561 23.23-1.396-.085-.011.75 1.407-.666Z"/><path fill="#FC0" d="m24.561 23.197-1.154.928-.398-.726 1.552-.202Z"/></g><defs><clipPath id="a"><rect width="38" height="30" fill="#fff" rx="5"/></clipPath></defs></svg>