<svg xmlns="http://www.w3.org/2000/svg" width="38" height="30" fill="none"><g clip-path="url(#a)"><path fill="#F93" d="M0 0h38v10H0V0Z"/><path fill="#fff" d="M0 10h38v10H0V10Z"/><path fill="#128807" d="M0 20h38v10H0V20Z"/><path fill="#008" d="M19 19c2.099 0 3.8-1.79 3.8-4S21.1 11 19 11c-2.099 0-3.8 1.79-3.8 4s1.701 4 3.8 4Z"/><path fill="#fff" d="M19 18.5c1.836 0 3.325-1.567 3.325-3.5S20.836 11.5 19 11.5c-1.837 0-3.325 1.567-3.325 3.5s1.488 3.5 3.325 3.5Z"/><path fill="#008" d="M19 15.7c.367 0 .665-.313.665-.7 0-.387-.298-.7-.665-.7-.367 0-.665.313-.665.7 0 .387.298.7.665.7ZM22.274 15.637a.173.173 0 0 0 .192-.155.179.179 0 0 0-.148-.202.173.173 0 0 0-.191.155.178.178 0 0 0 .147.202Z"/><path fill="#008" d="m19 18.5.114-2.1-.114-1-.114 1L19 18.5ZM22.006 16.504a.165.165 0 0 0 .224-.092.185.185 0 0 0-.093-.235.165.165 0 0 0-.224.092.185.185 0 0 0 .093.235ZM18.142 18.379l.626-1.993.131-.998-.357.932-.4 2.059ZM21.534 17.273a.164.164 0 0 0 .24-.03.187.187 0 0 0-.034-.252.165.165 0 0 0-.24.03.187.187 0 0 0 .034.252ZM17.34 18.03l1.095-1.755.372-.927-.574.803-.893 1.878ZM20.888 17.885c.058.08.165.097.24.038a.186.186 0 0 0 .03-.253.166.166 0 0 0-.24-.037.186.186 0 0 0-.03.252ZM16.65 17.473l1.49-1.395.59-.793-.753.619-1.327 1.569ZM20.111 18.305c.035.09.135.133.223.093a.186.186 0 0 0 .096-.235.166.166 0 0 0-.223-.093.186.186 0 0 0-.096.235ZM16.118 16.753l1.785-.953.769-.603-.88.4-1.674 1.156ZM19.26 18.495a.17.17 0 0 0 .192.152.182.182 0 0 0 .152-.201.17.17 0 0 0-.192-.153.182.182 0 0 0-.152.202ZM15.786 15.908l1.957-.432.891-.374-.946.146-1.902.66ZM18.394 18.451c-.012.101.055.192.15.202.094.01.18-.063.191-.164.012-.102-.055-.192-.15-.202-.094-.01-.18.063-.191.164ZM15.678 14.959l1.988.134.951-.052-.945-.106-1.994.024ZM17.567 18.167a.184.184 0 0 0 .095.235.17.17 0 0 0 .224-.103.183.183 0 0 0-.095-.235.17.17 0 0 0-.224.103ZM15.786 14.103l1.902.656.946.129-.89-.378-1.958-.407ZM16.838 17.664a.187.187 0 0 0 .034.253.165.165 0 0 0 .24-.03.187.187 0 0 0-.034-.252.165.165 0 0 0-.24.03ZM16.119 13.247l1.674 1.155.88.4-.77-.602-1.784-.953ZM16.256 16.985a.186.186 0 0 0-.03.252c.058.08.165.097.24.038a.186.186 0 0 0 .03-.252.166.166 0 0 0-.24-.038ZM16.647 12.523l1.333 1.57.752.627-.593-.79-1.492-1.407ZM15.863 16.17a.183.183 0 0 0-.093.235c.036.093.136.139.223.102a.182.182 0 0 0 .093-.235.17.17 0 0 0-.223-.102ZM17.337 11.967l.9 1.88.573.809-.376-.925-1.097-1.764ZM15.681 15.274c-.093.012-.16.102-.148.202.012.1.098.172.192.161.094-.011.16-.102.148-.202-.012-.1-.098-.172-.191-.16ZM18.141 11.617l.402 2.06.357.939-.133-.996-.626-2.003ZM15.725 14.366a.168.168 0 0 0-.192.15.181.181 0 0 0 .149.201.168.168 0 0 0 .192-.149.181.181 0 0 0-.149-.202ZM19.043 11.505l-.13 2.088.044 1.002.098-.992-.012-2.098ZM15.993 13.495a.166.166 0 0 0-.223.093.185.185 0 0 0 .094.235.166.166 0 0 0 .223-.092.185.185 0 0 0-.094-.236ZM19.857 11.62l-.625 1.995-.13.997.357-.932.398-2.06ZM16.466 12.728a.165.165 0 0 0-.24.028.187.187 0 0 0 .033.253c.075.061.183.049.24-.029a.187.187 0 0 0-.033-.252ZM20.66 11.971l-1.095 1.754-.373.926.574-.802.895-1.878ZM17.112 12.116a.166.166 0 0 0-.24-.04.186.186 0 0 0-.03.253c.057.08.164.098.24.04a.186.186 0 0 0 .03-.253ZM21.35 12.528l-1.49 1.393-.591.793.753-.617 1.328-1.569ZM17.888 11.695a.166.166 0 0 0-.223-.094.186.186 0 0 0-.096.236c.035.09.135.132.223.093a.186.186 0 0 0 .096-.235ZM21.881 13.247l-1.785.953-.769.603.88-.4 1.674-1.156ZM18.738 11.505a.17.17 0 0 0-.192-.152.182.182 0 0 0-.151.202.17.17 0 0 0 .192.152.182.182 0 0 0 .151-.202ZM22.213 14.093l-1.957.431-.892.374.947-.145 1.902-.66ZM19.605 11.549c.012-.102-.055-.192-.15-.202-.094-.01-.18.063-.191.165-.012.1.055.191.15.201.094.01.18-.063.191-.164ZM22.32 15.05l-1.986-.138-.951.038.944.102 1.994-.002ZM20.432 11.832a.183.183 0 0 0-.094-.235.171.171 0 0 0-.224.104.183.183 0 0 0 .095.235.17.17 0 0 0 .223-.104ZM22.213 15.895l-1.902-.656-.946-.125.89.379 1.958.402ZM21.16 12.332a.186.186 0 0 0-.031-.253.166.166 0 0 0-.24.037.186.186 0 0 0 .032.252c.075.06.182.044.24-.036ZM21.88 16.747l-1.671-1.153-.88-.391.766.605 1.785.939ZM21.743 13.011a.187.187 0 0 0 .032-.252.165.165 0 0 0-.24-.03.187.187 0 0 0-.032.252.165.165 0 0 0 .24.03ZM21.351 17.473l-1.33-1.57-.752-.618.59.793 1.492 1.395ZM22.138 13.827a.184.184 0 0 0 .093-.236.167.167 0 0 0-.224-.094.184.184 0 0 0-.093.235.167.167 0 0 0 .224.095ZM20.662 18.03l-.898-1.878-.574-.804.376.926 1.096 1.756ZM22.319 14.722a.18.18 0 0 0 .147-.202.17.17 0 0 0-.192-.152.18.18 0 0 0-.147.201.17.17 0 0 0 .192.153ZM19.86 18.38l-.405-2.06-.356-.933.134.998.627 1.995Z"/></g><defs><clipPath id="a"><rect width="38" height="30" fill="#fff" rx="5"/></clipPath></defs></svg>