<svg xmlns="http://www.w3.org/2000/svg" width="185" height="70" fill="none"><rect width="184" height="69" x=".5" y=".5" stroke="#363636" rx="34.5"/><path fill="#C1B9B9" d="M79.01 42V27.781h1.767V42h-1.768Zm4.243 0V31.912h1.553l.068 1.309h.049c.365-.469.81-.837 1.338-1.104a3.919 3.919 0 0 1 1.777-.4c1.01 0 1.813.286 2.412.86.6.572.899 1.536.899 2.89V42h-1.71v-6.543c0-.82-.185-1.406-.556-1.758-.364-.358-.885-.537-1.562-.537-.573 0-1.081.156-1.524.469a3.2 3.2 0 0 0-1.035 1.22V42h-1.709Zm9.605-4.893v-.312c0-1.471.381-2.686 1.143-3.643.768-.957 1.79-1.435 3.066-1.435.71 0 1.312.127 1.807.38.501.248.898.58 1.191.997v-5.987h1.719V42h-1.553l-.068-1.328h-.059c-.26.417-.654.775-1.181 1.074-.528.3-1.146.45-1.856.45-1.282 0-2.304-.48-3.066-1.436-.762-.964-1.143-2.181-1.143-3.653Zm1.748 0c0 1.042.228 1.915.684 2.618.456.703 1.168 1.054 2.138 1.054.652 0 1.202-.176 1.65-.527.457-.358.785-.765.987-1.22v-4.17c-.195-.456-.52-.86-.976-1.212-.456-.351-1.01-.527-1.66-.527-.97 0-1.683.352-2.14 1.055-.455.703-.683 1.575-.683 2.617v.312Zm8.785 0v-.312c0-1.523.43-2.764 1.289-3.72.859-.964 2.005-1.446 3.438-1.446 1.438 0 2.584.482 3.437 1.445.859.957 1.289 2.198 1.289 3.72v.313c0 1.524-.43 2.767-1.289 3.73-.853.964-1.999 1.446-3.437 1.446-1.433 0-2.579-.482-3.438-1.445-.859-.964-1.289-2.207-1.289-3.73Zm1.748-.312v.312c0 1.062.251 1.953.752 2.676.501.723 1.244 1.084 2.227 1.084.983 0 1.725-.361 2.226-1.084.501-.723.752-1.614.752-2.676v-.312c0-1.055-.251-1.943-.752-2.666-.501-.723-1.243-1.084-2.226-1.084-.983 0-1.726.361-2.227 1.084-.501.723-.752 1.611-.752 2.666ZM114.461 42V31.912h1.553l.068 1.309h.049c.364-.469.81-.837 1.338-1.104a3.918 3.918 0 0 1 1.777-.4c1.009 0 1.813.286 2.412.86.599.572.899 1.536.899 2.89V42h-1.709v-6.543c0-.82-.186-1.406-.557-1.758-.365-.358-.885-.537-1.562-.537-.573 0-1.081.156-1.524.469-.443.312-.788.72-1.035 1.22V42h-1.709Zm9.605-4.893v-.312c0-1.523.413-2.764 1.24-3.72.834-.964 1.931-1.446 3.291-1.446 1.367 0 2.416.45 3.145 1.348.735.892 1.103 2.109 1.103 3.652v.693h-7.734v-1.367h6.016v-.215c0-.742-.209-1.377-.625-1.904-.417-.534-1.029-.8-1.836-.8-.957 0-1.674.36-2.149 1.083-.469.723-.703 1.615-.703 2.676v.312c0 1.062.247 1.953.742 2.676.502.723 1.273 1.084 2.315 1.084.644 0 1.198-.14 1.66-.42.469-.28.846-.615 1.133-1.006l1.103.89c-.312.474-.801.92-1.465 1.337-.664.41-1.474.615-2.431.615-1.55 0-2.738-.478-3.565-1.435-.827-.964-1.24-2.21-1.24-3.74Zm9.713 1.895h1.718v.078c0 .599.215 1.048.645 1.348.429.293.999.44 1.709.44.716 0 1.279-.14 1.689-.42.41-.287.615-.662.615-1.124 0-.462-.169-.814-.507-1.054-.332-.248-1.039-.502-2.119-.762-1.088-.26-1.944-.619-2.569-1.074-.625-.463-.937-1.107-.937-1.934 0-.833.338-1.52 1.015-2.06.684-.54 1.595-.811 2.735-.811 1.139 0 2.057.27 2.754.81.696.54 1.044 1.28 1.044 2.217v.069h-1.708v-.098c0-.508-.173-.899-.518-1.172-.345-.273-.869-.41-1.572-.41-.703 0-1.221.127-1.553.38-.332.255-.498.584-.498.987 0 .39.185.703.557.938.371.227 1.097.472 2.177.732 1.081.26 1.914.628 2.5 1.103.593.47.889 1.146.889 2.032 0 .898-.332 1.634-.996 2.207-.664.573-1.66.86-2.988.86-1.335 0-2.351-.29-3.047-.87-.69-.58-1.035-1.357-1.035-2.334v-.078ZM143.53 42V31.912h1.709V42h-1.709Zm-.225-13.242c0-.293.092-.537.274-.733.189-.201.456-.302.801-.302.351 0 .618.1.8.302.189.196.284.44.284.733 0 .3-.095.55-.284.752-.182.195-.449.293-.8.293-.345 0-.612-.101-.801-.303a1.069 1.069 0 0 1-.274-.742Zm3.678 10.283c0-1.016.4-1.81 1.201-2.383.807-.573 1.839-.86 3.096-.86h2.304v-.732c0-.618-.162-1.116-.488-1.494-.319-.377-.863-.566-1.631-.566-.775 0-1.334.16-1.679.478-.339.313-.508.687-.508 1.123v.078h-1.709v-.097c0-.794.351-1.485 1.054-2.07.71-.593 1.67-.89 2.881-.89 1.205 0 2.136.287 2.793.86.664.567.996 1.426.996 2.578v4.59c0 .423.033.824.098 1.201.065.371.156.7.273.987V42h-1.65a3.203 3.203 0 0 1-.254-.635 4.183 4.183 0 0 1-.137-.781c-.24.417-.628.788-1.162 1.113-.527.326-1.211.488-2.05.488-.964 0-1.778-.27-2.442-.81-.657-.54-.986-1.318-.986-2.334Zm1.709-.088c0 .586.169 1.042.508 1.367.345.326.869.489 1.572.489.716 0 1.364-.244 1.943-.733.58-.495.869-1.022.869-1.582V37.04h-2.109c-.918 0-1.611.173-2.08.518-.469.345-.703.81-.703 1.396Z"/><g clip-path="url(#a)"><path fill="#E70011" d="M20 20h40v15H20V20Z"/><path fill="#fff" d="M20 35h40v15H20V35Z"/></g><defs><clipPath id="a"><rect width="40" height="30" x="20" y="20" fill="#fff" rx="15"/></clipPath></defs></svg>