<svg xmlns="http://www.w3.org/2000/svg" width="48" height="32" fill="none"><g clip-path="url(#a)"><path fill="#fff" d="M46.764-.096H1.236C.552-.096 0 .47 0 1.17v29.37c0 .7.552 1.267 1.236 1.267h45.528c.684 0 1.236-.567 1.236-1.267V1.171c0-.7-.552-1.267-1.236-1.267ZM18.458 23.27a3.791 3.791 0 0 1-.17 1.122c-.01.035-.023.071-.035.107l-.035.096c-.01.03-.023.06-.035.09l-.035.084a2.324 2.324 0 0 1-.035.078l-.035.074-.035.07c-.012.021-.023.044-.034.066a1.58 1.58 0 0 1-.07.122l-.035.057c-.012.019-.023.038-.036.056-.01.018-.023.036-.035.054a4.327 4.327 0 0 1-.034.051l-.035.05a2.377 2.377 0 0 1-.035.05l-.035.046-.035.045-.035.044c-.01.016-.023.029-.034.043a.876.876 0 0 1-.035.04l-.035.042-.036.039a.686.686 0 0 1-.035.037l-.035.037-.035.035-.035.036-.035.034c-.012.01-.023.021-.035.034l-.035.032-.035.03-.034.03-.035.03-.035.03-.035.029-.036.027-.034.026a.502.502 0 0 1-.035.026.555.555 0 0 1-.035.025c-.012.01-.023.018-.035.025l-.035.024-.035.024-.035.022c-.012.006-.023.015-.035.021a.303.303 0 0 1-.035.022c-.012.007-.023.016-.035.022l-.035.02c-.012.007-.023.015-.035.02-.012.006-.023.014-.035.018a.204.204 0 0 1-.035.02l-.035.019-.035.018-.035.018a.473.473 0 0 1-.035.018l-.035.017-.035.017-.036.016-.035.017-.034.016a.224.224 0 0 0-.035.015l-.035.015-.036.014-.035.014-.035.013-.035.013-.035.013-.035.011c-.012.004-.023.01-.035.013l-.035.011-.035.01-.035.01-.036.01c-.01.004-.023.007-.035.01l-.034.009c-.012.002-.023.006-.035.01l-.035.008-.036.008a2.13 2.13 0 0 1-.035.008l-.034.007a.217.217 0 0 1-.035.007l-.036.007a.472.472 0 0 0-.035.006.47.47 0 0 0-.035.006c-.01.002-.023.002-.035.005l-.034.005a.528.528 0 0 1-.035.006l-.036.003a.232.232 0 0 1-.035.004c-.012.001-.023.001-.035.004l-.034.003-.035.003c-.012 0-.023 0-.035.002l-.035.002-.035.002-.035.001h-.034l-.036.002H9.543v-7.812l.075.02.035.009.035.008.034.01.036.009.035.009.035.007.035.008.034.009.036.007.035.009.035.007.035.007.034.008.035.007.036.008.035.008.035.007.035.007.035.007.035.007.035.007.035.006.035.008.035.005.035.007.036.006.035.006.035.006.034.006.035.007.035.006.036.006.035.005.035.005.035.006.035.005.035.006.035.006.035.005.035.004.035.006.035.005.036.005.034.004.035.005.035.005.035.004.035.005.036.004.034.004.035.006.035.003.035.005.036.005.034.003.035.004.035.003.035.004.035.004.036.003.034.004.035.004.035.003.036.003.035.004.035.003.034.002.035.003.036.002.035.003.034.004.035.002.035.002.035.003.036.002.035.002.034.002.035.003.036.002.035.002.036.001.034.002.035.002.036.002.035.001.035.002h.034l.035.002h.035l.035.002h.035l.036.001.034.001h.036l.035.001h.035l.035.002H13.505l.035-.002h.035l.036-.002h.034l.035-.002h.035l.035-.001.035-.002.035-.002.035-.001.035-.001.035-.002.035-.002.035-.002.035-.001.034-.003.036-.003.035-.002.035-.002.035-.003.035-.002.036-.004.035-.003.035-.004.034-.002.035-.005.035-.003.035-.004.035-.005.035-.003.034-.006.036-.004.035-.005.035-.004.035-.006c.012 0 .023-.003.035-.005l.035-.005.035-.005.035-.007.035-.006.035-.006c.012-.001.024-.003.035-.006a.219.219 0 0 1 .035-.007l.035-.007.035-.007.035-.007a.258.258 0 0 0 .035-.008l.034-.007.035-.007.035-.008.035-.008.036-.008c.011-.002.023-.006.035-.01l.034-.008.035-.01c.012-.002.023-.006.035-.01l.035-.01c.012-.003.023-.005.036-.01l.034-.009.035-.01.035-.01.036-.012.035-.012c.01-.003.023-.007.034-.012l.035-.012.035-.012.036-.012a.562.562 0 0 1 .035-.014l.035-.013c.011-.005.023-.01.035-.013l.035-.015a.306.306 0 0 0 .035-.015l.035-.015.035-.015.035-.015.035-.017.036-.017.035-.017.034-.017.035-.018.035-.018.036-.018.035-.02c.012-.005.024-.013.035-.018l.034-.02.036-.02.035-.02c.012-.008.023-.016.035-.022.01-.009.024-.015.035-.023.012-.007.023-.016.035-.022a.612.612 0 0 1 .034-.024l.036-.025.035-.025.035-.027.035-.026.034-.03c.013-.01.024-.018.036-.029l.035-.03c.012-.012.023-.02.035-.033.01-.012.024-.021.035-.034a.227.227 0 0 0 .035-.035 1.499 1.499 0 0 0 .07-.073l.035-.04.035-.04.035-.044.034-.046.035-.048.035-.051.035-.054.035-.058.035-.06.034-.065.036-.072.035-.079c.013-.027.024-.056.036-.085l.035-.095a2.768 2.768 0 0 0 .104-.41 3.695 3.695 0 0 0 .052-.626v-4.301H14.607v4.301c0 .067-.003.134-.008.199a1.842 1.842 0 0 1-.07.385 1.374 1.374 0 0 1-.07.2l-.035.078a1.973 1.973 0 0 1-.105.188c-.01.018-.023.035-.035.052l-.034.048-.036.044a.81.81 0 0 1-.07.08l-.036.036-.034.035a.626.626 0 0 1-.036.031l-.035.031-.035.027a.912.912 0 0 1-.035.027c-.011.009-.022.018-.034.025-.012.008-.023.018-.035.025l-.035.022c-.011.007-.023.015-.035.02-.012.007-.023.014-.036.02a.45.45 0 0 1-.034.02c-.011.006-.023.013-.035.018a.29.29 0 0 1-.035.018l-.035.017-.035.016-.036.015a.56.56 0 0 1-.07.028c-.011.005-.022.008-.034.012-.012.004-.023.009-.035.012a.405.405 0 0 1-.07.02l-.035.012c-.011.002-.023.006-.035.01l-.035.007-.035.008-.035.008a1.914 1.914 0 0 1-.07.012l-.035.006-.035.004-.035.004-.035.004c-.011.001-.023.003-.035.003-.011.002-.022.004-.034.004l-.036.001c-.011.002-.023.002-.035.002l-.036.002c-.01.002-.023.002-.034.002H12.535l-.036-.002h-.035l-.035-.002-.036-.002-.034-.001-.036-.01-.035-.003-.035-.003-.035-.003-.035-.002-.035-.003-.035-.003-.035-.004-.035-.004-.034-.004-.036-.005-.035-.003-.035-.007-.035-.004-.021.001-.036-.005-.034-.006-.035-.007-.035-.006-.036-.006-.035-.007-.035-.007-.034-.007-.035-.007-.035-.007-.036-.007-.035-.008-.034-.008-.035-.009-.035-.008-.036-.01-.035-.008-.035-.01-.034-.01-.035-.009-.035-.008-.036-.01-.035-.011-.034-.01-.035-.01-.036-.01-.035-.011-.035-.01-.035-.011-.034-.012-.036-.012-.035-.013-.036-.011-.034-.011-.035-.014-.035-.013-.035-.012-.035-.014L10.48 18l-.034-.013-.036-.015-.035-.013-.035-.014-.035-.013-.034-.015-.036-.015-.035-.014-.035-.015-.035-.016-.035-.015-.035-.015-.035-.015-.035-.016-.035-.016-.035-.016-.035-.015-.035-.018-.035-.015-.035-.018-.035-.017-.023-.012-.034-.017-.035-.018-.035-.017-.075-.036V8.443a3.804 3.804 0 0 1 .11-.909c.01-.044.023-.088.035-.132.01-.038.022-.076.034-.115.012-.035.023-.07.036-.104.012-.033.022-.064.035-.095L9.828 7c.01-.027.023-.055.035-.081l.034-.077c.012-.025.023-.049.036-.072l.035-.07.035-.065c.01-.02.023-.042.035-.062l.034-.06.035-.057c.012-.019.023-.037.036-.055l.035-.053.035-.052.035-.049.035-.048a.898.898 0 0 1 .07-.09.832.832 0 0 1 .035-.044l.035-.042.035-.04a.733.733 0 0 1 .035-.04l.036-.038.035-.038.035-.036.034-.036.035-.036.035-.033a1.453 1.453 0 0 1 .07-.064l.036-.03a.602.602 0 0 1 .035-.031l.035-.03.035-.03.035-.028.035-.027c.011-.01.023-.019.035-.027l.035-.027a.524.524 0 0 1 .035-.025l.036-.025.034-.025.035-.023a.495.495 0 0 1 .035-.023l.035-.022a.765.765 0 0 1 .035-.021l.036-.021.034-.021.035-.02c.011-.005.023-.013.035-.02.012-.005.023-.012.035-.019l.036-.018.034-.018.035-.018.035-.018.035-.017.035-.017.036-.016.034-.016.035-.015.035-.015.023-.012.035-.014.035-.013a.42.42 0 0 1 .035-.012l.034-.013.036-.012.035-.013.035-.011.035-.011.034-.01.035-.011.036-.01.035-.009.035-.008.034-.009.036-.008.035-.008.036-.008a.612.612 0 0 0 .035-.007l.034-.006.036-.007.035-.006c.012-.001.023-.004.035-.006a.472.472 0 0 0 .035-.004l.034-.005.035-.005.035-.004.035-.004.036-.002.035-.004.035-.002.035-.003.035-.002.035-.001.035-.001.034-.002H18.477v18.535h-.018Zm10 0a3.97 3.97 0 0 1-.065.697c-.011.056-.022.113-.036.166-.012.047-.021.092-.035.138a5.055 5.055 0 0 1-.07.226l-.034.098-.036.09a3.153 3.153 0 0 1-.035.084l-.034.077-.035.073-.035.07c-.012.022-.022.044-.036.066-.011.02-.021.043-.035.063a.608.608 0 0 1-.035.06c-.01.019-.023.039-.035.058a1.134 1.134 0 0 1-.034.055l-.035.054-.036.052c-.01.017-.022.034-.035.05a.941.941 0 0 1-.069.096l-.034.044c-.013.015-.023.03-.035.045l-.035.044-.035.04-.035.04a1.366 1.366 0 0 0-.035.039l-.036.037c-.011.013-.023.024-.035.036-.011.013-.023.024-.035.036-.01.012-.023.023-.035.036l-.035.034-.034.032-.035.032-.035.031a.976.976 0 0 1-.035.03l-.036.03-.035.03-.035.028a.388.388 0 0 1-.035.027l-.035.027c-.012.009-.023.018-.035.025-.012.01-.023.019-.034.026-.012.009-.023.017-.035.024-.013.01-.023.018-.037.025a.342.342 0 0 1-.035.023c-.012.009-.022.017-.035.023l-.034.022c-.013.008-.023.016-.035.021a.663.663 0 0 1-.035.022c-.013.007-.023.015-.035.021-.012.005-.023.013-.035.02l-.035.018-.035.02-.034.018a.479.479 0 0 1-.035.02l-.037.017-.034.019-.035.018-.035.017a.613.613 0 0 1-.035.016l-.035.017-.035.015-.035.015-.034.015c-.012.004-.023.01-.035.013l-.036.015-.035.013-.035.012-.035.014-.034.011a.762.762 0 0 1-.036.012c-.012.003-.023.008-.035.012l-.035.01-.035.01-.034.01a.757.757 0 0 1-.036.01l-.035.009c-.013.002-.022.007-.035.008l-.035.01-.035.008-.035.008-.035.007-.035.008-.035.005-.035.007a.47.47 0 0 0-.034.006c-.012.002-.023.002-.036.005l-.035.005-.035.005-.035.003-.035.005c-.012 0-.023.002-.035.004l-.036.003a1.79 1.79 0 0 1-.035.003c-.012 0-.022 0-.035.002l-.034.002-.035.002-.035.001h-.035l-.035.002H19.541V18.42l.075.064c.01.01.023.019.034.028l.035.028a.91.91 0 0 0 .035.027c.012.009.023.019.035.026a.525.525 0 0 0 .035.025.525.525 0 0 0 .035.025l.035.023.035.024.035.024c.012.007.023.015.036.021a.208.208 0 0 0 .035.022l.034.022.035.02.035.02.035.02.035.019.035.019.034.019.035.018.035.018.036.019.035.017.035.018.035.017.035.017.035.016.035.016.035.016.035.015.034.015.035.015.036.015.035.015c.012.003.023.008.035.014l.034.013c.012.004.023.01.035.013.012.005.023.008.035.014l.036.012.035.012.034.013.035.011.035.013.036.011.035.011.034.01.035.011.035.012.035.01.036.01.035.008.034.01.035.01.036.01.035.009.035.008.035.008.034.008.036.009.035.008.035.008.035.007.034.006.035.007.036.008.035.007.035.006.034.007.036.006.035.006.036.007.035.006.034.006.035.006.035.005.035.005.035.005.035.005.035.005.034.005.035.004.035.004.035.006.035.003.035.003.035.006.035.003.035.004.035.003.035.004.035.003.034.004.035.001.036.004.035.002.035.001.034.004.035.002.036.003.035.002.035.002.034.001.035.002.035.002.035.002.035.001.035.001.035.002h.035l.035.002.035.002h.035l.035.002h.035l.035.002H24.162l.034-.002H24.267l.035-.002h.035l.035-.002h.036l.035-.001.035-.002h.034l.035-.003h.035l.035-.001.017-.001h.018l.035-.002.034-.002.037-.001.035-.002.035-.003.035-.002.034-.002.035-.004.035-.001.035-.004.035-.002.035-.003.035-.004.034-.002.035-.004.035-.002.035-.004.036-.003.034-.005.035-.002.035-.005.036-.004.035-.003.034-.005.035-.004.035-.005.035-.004.036-.004.035-.005.034-.005.035-.003.035-.006.036-.006.035-.005.035-.004.034-.006.035-.006.036-.006.035-.005.035-.006.034-.005.035-.005.036-.007.035-.005.035-.007.035-.006.034-.006.036-.006.035-.006.035-.007.034-.007.035-.006.036-.006.035-.006.035-.008.035-.007.035-.006.034-.007.035-.008.035-.007.035-.007.035-.007.034-.007.035-.007.037-.009.035-.007.035-.008.034-.007.035-.007.035-.01.035-.006.035-.009.036-.008.035-.008.035-.008.035-.009.035-.009.035-.008.034-.01.035-.008.035-.008v-1.569l-.035.019-.035.017-.033.013-.035.018-.034.017-.035.017-.035.018-.035.017-.037.017-.034.017-.035.017-.035.017-.035.016-.035.016-.035.016-.034.017-.037.015-.035.015-.035.015-.034.015-.035.015-.035.014-.035.014-.035.014-.035.014-.035.014-.034.014-.035.013-.036.013-.035.012-.035.012-.034.012-.035.013-.036.012-.035.011-.035.011-.035.012-.034.011-.036.01-.035.012-.035.01-.035.01-.034.01-.036.01-.035.01-.035.01-.035.009-.035.008-.035.01-.035.008-.035.007-.035.008-.035.008-.035.008-.035.007-.035.009-.035.007-.035.007-.034.006-.036.006-.035.007-.035.005-.034.006-.036.006-.035.005-.035.005-.035.006-.035.004-.035.005-.035.005-.034.004-.035.004-.035.004-.058.001-.035.004-.034.002-.034.004-.035.003-.022.002h-.013l-.035.003-.036.002-.035.002-.036-.017-.035.002-.033.002h-.035l-.035.002H24.212l-.035-.001-.035-.001-.035-.002-.035-.002-.035-.001-.034-.004-.035-.002-.035-.003c-.012 0-.023-.002-.035-.004l-.035-.003-.035-.004-.034-.004-.035-.005-.035-.005-.035-.006-.036-.006a3.52 3.52 0 0 0-.035-.005l-.034-.008c-.012-.002-.024-.003-.035-.007a.272.272 0 0 1-.036-.008.238.238 0 0 1-.035-.007c-.012-.001-.023-.005-.035-.008l-.035-.009-.034-.009c-.012-.002-.024-.007-.035-.008l-.036-.01a1.694 1.694 0 0 0-.07-.022.283.283 0 0 1-.034-.012l-.035-.011-.035-.012-.035-.014a.564.564 0 0 0-.035-.014l-.035-.014-.035-.014-.035-.016a.61.61 0 0 0-.035-.017l-.035-.016a.344.344 0 0 1-.035-.018l-.035-.018-.035-.018c-.012-.005-.024-.012-.035-.018-.012-.008-.024-.015-.035-.02a.24.24 0 0 0-.035-.02c-.012-.007-.023-.015-.035-.021l-.034-.022-.035-.022c-.012-.008-.023-.017-.035-.024l-.035-.025-.036-.026-.034-.027-.035-.028-.035-.03-.035-.031-.035-.032-.035-.035a.651.651 0 0 1-.035-.036l-.034-.037-.035-.04-.035-.041a1.911 1.911 0 0 1-.035-.045l-.035-.046a2.064 2.064 0 0 0-.035-.049 2.638 2.638 0 0 0-.035-.052l-.036-.056c-.012-.018-.023-.04-.035-.06a2.22 2.22 0 0 1-.035-.064l-.035-.07-.035-.076c-.012-.029-.024-.055-.035-.085a2.128 2.128 0 0 1-.035-.096l-.035-.108-.035-.13a3.138 3.138 0 0 1-.085-.752 3.593 3.593 0 0 1 .05-.585 2.814 2.814 0 0 1 .105-.408 3.296 3.296 0 0 1 .14-.327l.035-.065.035-.06.036-.056c.01-.017.023-.035.035-.052l.035-.049a.978.978 0 0 1 .035-.046l.035-.044a1.72 1.72 0 0 1 .035-.042l.035-.039.034-.038.035-.035.035-.035.035-.032.035-.031c.01-.01.023-.02.035-.03.01-.01.023-.02.035-.029.01-.01.022-.018.034-.028a.585.585 0 0 1 .036-.026.49.49 0 0 1 .035-.025c.012-.008.023-.017.035-.024a.462.462 0 0 1 .035-.023l.034-.023.035-.022.035-.02a.438.438 0 0 1 .035-.02l.035-.018c.012-.006.023-.013.035-.018l.035-.018.035-.018.035-.017c.012-.004.023-.01.035-.015l.035-.016.035-.014.035-.014.035-.013a.588.588 0 0 0 .035-.014c.012-.003.023-.008.035-.012l.035-.012.034-.01a1.92 1.92 0 0 1 .035-.011l.035-.01.036-.011.035-.009c.012-.002.023-.006.035-.009l.034-.008a.494.494 0 0 0 .035-.01l.035-.006.036-.007.035-.007.034-.007.035-.005a.465.465 0 0 1 .036-.006l.035-.006.035-.005.035-.005.034-.004.035-.004.035-.003.035-.004.035-.002.035-.003.034-.003.035-.001.035-.002.035-.002h.035l.035-.002H24.423l.035.001.035.001.035.001.035.002.035.002.034.001.036.002.035.003h.013l.022.002.035.003.034.003.035.003.035.003.035.004.034.004.035.004.035.004.034.004.035.005.035.004.035.005.037.006.034.005.035.005.035.005.035.007.035.006.036.006.035.008.035.006.035.007.035.007.034.006.035.008.035.007.035.008.035.008.035.009.036.008.035.01.035.008.035.009.035.01.035.009.034.01.035.01.035.01.035.01.036.011.035.011.035.012.035.011.035.011.035.012.034.012.035.011.035.013.035.013.037.012.034.013.034.013.035.013.035.014.035.014.035.014.035.015.034.015.035.014.036.015.035.015.036.016.034.015.035.016.036.02.036.016.034.016.035.017.035.017.036.016.035.018.035.016.034.018.035.018.036.017.035.019.035.017.034.018v-1.569l-.034-.008-.035-.01-.035-.007-.036-.009-.035-.008-.035-.008-.034-.008-.035-.008-.036-.008-.035-.008-.048-.019-.035-.008-.035-.007-.035-.008-.034-.006-.035-.007-.037-.008-.034-.007-.036-.007-.035-.007-.034-.007-.035-.007-.035-.008-.035-.007-.035-.006-.035-.007-.034-.006-.035-.006-.036-.007-.035-.006-.035-.006-.034-.007-.035-.006-.036-.007-.035-.006-.035-.006-.034-.006-.035-.005-.036-.005-.035-.006-.035-.006-.035-.005-.034-.005-.036-.005-.035-.006-.035-.005-.035-.005-.035-.005-.035-.005-.035-.005-.035-.004-.035-.005-.035-.004-.035-.004-.035-.005-.035-.004-.035-.004-.035-.004-.034-.004-.036-.004-.035-.004-.035-.004-.034-.002-.026-.008-.035-.003-.035-.003-.035-.004-.035-.002-.034-.004-.035-.003-.035-.003-.035-.002-.035-.003-.035-.003-.035-.002-.034-.002-.035-.002-.035-.002-.037-.002-.031-.004-.036-.001-.018-.001h-.017l-.034-.002-.035-.002-.034-.002-.035-.001-.035-.001h-.035l-.035-.002h-.07l-.036-.002h-.036l-.034-.003h-.069l-.035-.002H23.692l-.036.001h-.035l-.035.001h-.035l-.035.002h-.07l-.035.002h-.035l-.035.001-.035.002h-.035l-.035.003-.035.001-.035.002-.035.002-.034.002-.035.001-.035.003-.036.002-.035.002-.034.003-.035.002-.035.002-.036.003-.035.002-.034.004-.035.003-.035.004-.035.003-.035.004-.035.003-.035.005-.034.003-.036.005-.035.004-.035.004-.035.005-.034.005-.035.004-.03.012-.034.004-.035.005-.035.006-.035.005-.034.006-.035.006-.036.006-.035.006-.036.006-.034.006-.035.007-.035.007-.036.007-.035.007-.035.007-.034.008-.035.008-.035.008-.036.008-.034.007-.035.009-.035.009-.035.008-.036.01-.03.008-.034.01-.035.01-.036.009-.035.01-.035.01-.034.011-.035.01-.035.011-.036.011-.035.012-.034.011-.035.012-.035.012-.036.013-.035.013-.035.013-.034.013-.035.014c-.012.004-.024.008-.035.014l-.036.014-.035.014-.035.014-.034.015-.035.015-.035.016-.035.015-.035.017-.035.017-.035.016-.035.018-.036.019-.035.018-.035.018-.034.02-.035.019-.035.019-.035.02-.035.02-.035.022a.74.74 0 0 1-.034.021l-.035.022a.786.786 0 0 0-.036.023l-.035.024-.035.023-.035.024a2.206 2.206 0 0 1-.035.026l-.035.025a.91.91 0 0 0-.07.054l-.034.028a2.918 2.918 0 0 0-.11.092V8.445a3.788 3.788 0 0 1 .144-1.04c.011-.038.022-.077.035-.115a2.113 2.113 0 0 1 .07-.199c.01-.03.023-.058.035-.088.01-.028.023-.055.035-.082l.035-.076c.011-.025.022-.05.035-.073l.036-.069c.01-.021.023-.043.035-.065l.034-.063.035-.06.035-.058.035-.054c.011-.019.023-.036.035-.054l.035-.052a.968.968 0 0 1 .034-.049l.035-.048.035-.047c.012-.015.023-.03.036-.044a.89.89 0 0 1 .035-.044l.035-.042.035-.04.035-.04a.762.762 0 0 1 .035-.038l.035-.038.035-.036.035-.036.034-.036.035-.033.036-.033.035-.032.035-.032.034-.03.035-.03.035-.028.036-.03.035-.026.035-.027c.01-.009.022-.018.034-.026l.035-.026.036-.024a.856.856 0 0 1 .035-.025l.035-.023a.471.471 0 0 1 .034-.023l.035-.022a.771.771 0 0 1 .035-.022l.036-.021a.693.693 0 0 1 .07-.04l.034-.02.036-.019c.011-.006.023-.013.035-.018l.035-.018.035-.018.034-.018.036-.017.035-.017.035-.016.035-.015.035-.015.034-.015.036-.014.035-.014c.012-.004.023-.01.035-.013l.034-.013.036-.013a.817.817 0 0 0 .035-.012l.036-.012c.01-.004.023-.008.035-.01a.543.543 0 0 1 .035-.012l.034-.01.035-.01.035-.01.035-.01.035-.008.035-.009.034-.008.035-.008.035-.007.035-.007.036-.006.034-.007.035-.006c.012-.001.023-.004.035-.006.012 0 .023-.002.035-.004l.035-.005.035-.005.035-.003.034-.005.035-.002.036-.004.035-.002.035-.003.034-.002.035-.001.036-.001.035-.002H28.459v18.536l-.002-.001Zm10 0a3.831 3.831 0 0 1-.05.61c-.012.063-.022.125-.036.186-.011.051-.022.099-.035.149-.01.041-.023.084-.035.127a4.479 4.479 0 0 1-.07.213c-.012.032-.021.061-.034.092-.013.029-.022.057-.036.086-.012.027-.021.054-.035.08-.012.026-.023.053-.035.075-.011.026-.023.05-.035.074-.011.021-.022.045-.035.066-.013.022-.022.044-.035.064l-.035.062c-.01.02-.022.04-.035.059a1.02 1.02 0 0 1-.035.056l-.034.055-.035.053c-.013.016-.022.034-.035.052-.012.016-.022.032-.036.049-.01.016-.023.031-.035.047l-.035.046-.034.045-.036.043a.545.545 0 0 1-.035.042.743.743 0 0 1-.035.04.512.512 0 0 1-.034.04.371.371 0 0 1-.036.037l-.035.038-.035.036-.035.034-.035.035c-.012.01-.023.022-.035.034a.608.608 0 0 1-.035.032l-.035.032-.034.03-.035.03-.035.029c-.012.01-.023.02-.036.029l-.035.028a4.76 4.76 0 0 0-.035.027l-.035.026c-.013.008-.023.018-.035.026-.012.008-.023.017-.036.024l-.035.026-.035.022c-.012.007-.023.017-.035.024-.012.007-.023.015-.035.02a.265.265 0 0 1-.034.023c-.012.006-.023.015-.035.021l-.028.026c-.012.006-.024.014-.037.019a.19.19 0 0 1-.035.019c-.011.007-.022.014-.035.02l-.034.017a.67.67 0 0 1-.035.02c-.012.006-.023.013-.035.018-.012.005-.023.013-.035.018-.012.005-.023.012-.035.018l-.036.017-.035.017-.035.016-.035.016-.035.016c-.011.005-.022.01-.035.014l-.034.015-.035.014-.035.013c-.012.005-.023.01-.035.013-.012.004-.023.01-.036.013a1.262 1.262 0 0 0-.034.013l-.035.01-.036.012-.035.01-.035.012-.035.009a.302.302 0 0 1-.035.01l-.035.01-.035.01-.035.008-.035.008-.035.008-.036.007-.035.008a.252.252 0 0 0-.035.007l-.035.006-.035.005-.035.005-.035.005-.035.006-.035.003c-.013 0-.023.002-.035.004l-.035.003c-.011 0-.022.003-.035.003l-.035.004c-.013 0-.022 0-.035.003l-.035.001a.45.45 0 0 1-.035.002l-.036.001h-.035l-.035.002H29.54v-7.557H35.247l.035-.001.035-.002.035-.002.034-.002.035-.001.035-.003.037-.003.035-.004c.011-.002.022-.003.034-.003l.035-.006.035-.004.037-.005.034-.005.035-.006.035-.008a.262.262 0 0 0 .035-.007c.012-.001.022-.005.035-.006l.018-.008.035-.008.035-.01c.011-.002.022-.006.035-.01.013-.002.022-.005.035-.009l.035-.01a.284.284 0 0 0 .035-.012l.035-.01c.011-.005.023-.008.035-.012a.283.283 0 0 1 .035-.013.434.434 0 0 1 .036-.014l.034-.013c.011-.006.023-.01.035-.014a.423.423 0 0 1 .035-.016l.035-.016c.012-.005.022-.011.036-.016l.035-.019a.335.335 0 0 0 .034-.017l.035-.018c.012-.006.023-.014.035-.019.012-.005.023-.013.035-.02.012-.005.023-.014.036-.019.01-.007.022-.015.034-.02.012-.009.024-.016.036-.023.012-.008.023-.017.035-.024.013-.008.023-.017.035-.024l.035-.026c.012-.008.023-.018.035-.028.012-.01.024-.018.034-.028l.035-.03c.013-.01.025-.02.035-.03l.037-.035c.01-.012.023-.021.034-.034l.035-.037.035-.04c.013-.014.025-.027.035-.042a.668.668 0 0 0 .036-.045l.035-.05.035-.052c.013-.018.023-.039.035-.056.013-.02.023-.043.035-.064.013-.022.023-.046.035-.07a.843.843 0 0 0 .035-.081 1.54 1.54 0 0 0 .105-.404 1.69 1.69 0 0 0-.175-1.01c-.012-.018-.022-.04-.035-.06-.012-.018-.022-.036-.035-.053a1.353 1.353 0 0 0-.07-.099c-.011-.015-.022-.029-.036-.043a.258.258 0 0 0-.035-.04c-.01-.014-.022-.026-.035-.039l-.035-.036a1.226 1.226 0 0 0-.034-.034l-.037-.032c-.01-.01-.022-.02-.035-.03l-.035-.03a.278.278 0 0 0-.035-.026c-.011-.01-.022-.019-.034-.026-.012-.01-.022-.019-.035-.026l-.035-.024c-.012-.008-.023-.016-.035-.022-.012-.006-.023-.016-.036-.022a.334.334 0 0 0-.034-.02c-.013-.007-.023-.014-.036-.02-.012-.007-.023-.014-.035-.018a.365.365 0 0 0-.035-.018l-.035-.019-.035-.017-.034-.018-.036-.015-.035-.015-.035-.015-.035-.015-.034-.013c-.013-.003-.023-.008-.036-.013l-.035-.012-.035-.011c-.012-.004-.024-.01-.035-.013l-.035-.01-.035-.01c-.013-.004-.022-.008-.035-.01l-.035-.01-.035-.008c-.012-.004-.023-.006-.035-.008a.164.164 0 0 0-.036-.008.238.238 0 0 0-.035-.007l-.035-.008-.035-.006-.034-.006-.035-.006-.036-.005-.035-.006-.035-.003-.035-.004-.035-.004-.036-.004-.035-.002-.032-.003v-.043l.032-.004.035-.007a.686.686 0 0 0 .036-.006l.035-.007.035-.008.035-.008c.012-.002.023-.006.035-.007l.036-.01.035-.01c.012-.002.022-.007.034-.01l.035-.01.035-.013c.013-.003.022-.007.035-.012a.254.254 0 0 1 .036-.012.633.633 0 0 1 .07-.028l.035-.015a.619.619 0 0 0 .035-.016l.035-.015c.012-.005.023-.011.035-.018.012-.006.023-.01.035-.018l.035-.018.035-.02c.012-.005.023-.012.036-.02l.034-.02.035-.023.035-.024c.012-.007.024-.016.035-.024l.036-.026c.01-.01.023-.018.035-.028l.034-.029.035-.031.035-.032.035-.035.036-.037.034-.04.036-.04.035-.044c.013-.016.023-.033.035-.048a.626.626 0 0 0 .035-.053l.035-.056a.742.742 0 0 0 .034-.063.797.797 0 0 0 .035-.072.835.835 0 0 0 .035-.082c.014-.033.025-.064.037-.097a1.607 1.607 0 0 0 .079-.51 1.788 1.788 0 0 0-.08-.524c-.011-.033-.022-.065-.036-.098a.676.676 0 0 0-.035-.08.769.769 0 0 0-.035-.07.62.62 0 0 0-.035-.061l-.034-.056a.474.474 0 0 0-.035-.05c-.012-.016-.022-.032-.035-.047l-.035-.043a.74.74 0 0 0-.036-.04l-.034-.037c-.013-.012-.023-.024-.036-.035l-.035-.033-.035-.032a1.015 1.015 0 0 0-.035-.03l-.035-.028-.034-.026c-.012-.009-.023-.018-.036-.025l-.035-.024-.035-.023-.035-.021-.034-.021c-.013-.006-.023-.013-.036-.02l-.035-.018-.035-.018c-.012-.005-.023-.012-.035-.018a.69.69 0 0 1-.035-.016l-.035-.015a.619.619 0 0 0-.035-.016c-.013-.004-.022-.01-.035-.014-.013-.005-.024-.01-.035-.013l-.035-.014-.036-.012-.035-.012-.035-.01c-.01-.005-.022-.007-.035-.012l-.034-.01-.035-.009-.036-.01-.035-.008-.035-.008-.035-.007-.035-.007-.036-.007-.035-.006a.4.4 0 0 0-.035-.006l-.034-.005-.032.002-.036-.004-.034-.005-.035-.003-.035-.004-.035-.003-.035-.003-.035-.002-.035-.002h-.014l-.02-.003-.035-.001-.037-.002-.035-.002-.034-.002-.035-.001-.035-.001-.035-.001H29.541v-3.85c0-.259.026-.512.075-.756.012-.052.022-.104.036-.156.011-.043.022-.088.035-.13.011-.039.022-.078.035-.116l.035-.104.035-.095.035-.088.034-.082.035-.077c.013-.024.023-.048.037-.072.01-.023.022-.047.035-.07.012-.021.022-.043.035-.065l.034-.062.035-.06.035-.057.035-.055.035-.053c.012-.018.023-.035.036-.052l.035-.05c.012-.016.022-.032.035-.046a.568.568 0 0 1 .035-.047c.012-.015.022-.03.035-.045l.034-.043.035-.042.035-.04.035-.04.035-.039.035-.037.035-.037.036-.036a.331.331 0 0 1 .035-.035l.035-.033.035-.033.035-.031.036-.032.035-.03.034-.03.035-.028.035-.028.034-.028.035-.026.035-.027.035-.025.035-.025.035-.025.035-.022.036-.024.035-.022.035-.022.035-.021c.012-.007.023-.015.035-.021l.035-.02a.686.686 0 0 1 .035-.02c.012-.005.023-.012.035-.018l.036-.019.034-.018.035-.018.035-.018.035-.017c.013-.005.022-.012.035-.017l.035-.015.035-.016.035-.015.035-.015.036-.014.034-.014.035-.013.035-.012.036-.013.035-.012.035-.012.035-.01c.012-.004.022-.008.036-.011l.035-.01.035-.011.035-.01.035-.01.035-.008.035-.009.035-.008.035-.008.035-.007c.012-.001.023-.004.035-.007l.035-.006.035-.006.035-.006.035-.005.034-.005.037-.005a.416.416 0 0 1 .035-.004l.035-.003.034-.004a.436.436 0 0 0 .035-.003l.035-.004.037-.002.035-.002.034-.002h.035l.035-.002c.013 0 .023 0 .035-.002H38.464v18.532h-.006Zm-7.132-6.965H33.424c.011.002.022.002.035.002.011.002.023.002.035.003.013 0 .023.002.035.004l.034.002a.879.879 0 0 1 .07.01l.02.004.015.003.036.009.035.01c.011.006.023.009.034.013a.305.305 0 0 1 .035.015l.035.016.036.017.035.019.034.02c.013.007.024.016.035.023.013.008.024.018.035.026.013.008.024.018.036.027l.035.032c.012.01.023.022.035.034a.382.382 0 0 1 .035.039l.036.043c.003.018.015.034.026.052.013.018.023.038.035.057.013.02.023.044.035.066a.93.93 0 0 1 .07.206 1.04 1.04 0 0 1-.035.578c-.01.03-.022.056-.035.086-.012.022-.022.046-.035.067-.012.02-.022.038-.035.057l-.035.048c-.011.015-.022.03-.036.044-.01.014-.022.025-.035.04-.01.011-.022.022-.035.033l-.035.032c-.012.01-.023.019-.036.027a.285.285 0 0 1-.035.026.203.203 0 0 1-.035.021.13.13 0 0 1-.035.021l-.035.02a.436.436 0 0 0-.034.017l-.035.016-.035.014c-.012.004-.023.01-.035.013l-.035.01-.035.01-.015.003a.58.58 0 0 1-.125.018l-.035.002-.035.003c-.012 0-.023 0-.034.002H31.309V16.31h.017v-.004Zm-.017-1.102V13.4H33.253l.035.002c.012 0 .023.002.035.003.012 0 .023.001.035.003l.035.004c.011 0 .02.002.026.003l.009.002a.217.217 0 0 1 .034.008l.035.008.036.01c.013.003.023.008.035.012.01.005.023.009.035.013l.034.016c.013.005.024.01.035.017l.036.019.035.02a.419.419 0 0 1 .035.024l.035.026c.013.009.023.019.035.03a.43.43 0 0 1 .035.031l.035.036a.503.503 0 0 1 .07.086l.034.054c.013.021.025.043.036.065.014.027.023.054.035.083a.915.915 0 0 1 .056.33c0 .072-.008.142-.021.207a.843.843 0 0 1-.106.269.587.587 0 0 1-.07.1c-.01.014-.021.028-.034.04-.012.012-.022.025-.035.036l-.035.032a.397.397 0 0 1-.035.03l-.035.025-.035.023c-.012.007-.023.015-.035.02-.012.007-.023.014-.036.02l-.035.017-.034.014-.035.014-.035.012a4.8 4.8 0 0 0-.07.019l-.035.007-.009.002-.026.003c-.01 0-.022.003-.035.003l-.035.004c-.012 0-.023.002-.035.003l-.035.001-.035.001H31.31v-.002Z"/></g><defs><clipPath id="a"><rect width="48" height="32" fill="#fff" rx="10"/></clipPath></defs></svg>