<svg xmlns="http://www.w3.org/2000/svg" width="178" height="70" fill="none"><rect width="177" height="69" x=".5" y=".5" fill="#fff" stroke="#363636" rx="34.5"/><g clip-path="url(#a)"><path fill="#00ABC2" d="M20 20h40v30H20V20Z"/><path fill="#FFEC2D" d="M41.612 36.638a4.038 4.038 0 1 0 0-8.076 4.038 4.038 0 0 0 0 8.076ZM41.612 28.013c.24-.003.33-.153.33-.333 0-.24-.33-1.383-.33-1.383s-.33 1.143-.33 1.383c0 .18.09.333.33.333ZM46.199 32.6c.003.24.153.33.333.33.24 0 1.383-.33 1.383-.33s-1.143-.33-1.383-.33c-.18 0-.333.09-.333.33ZM41.612 37.187c-.24.003-.33.153-.33.333 0 .24.33 1.383.33 1.383s.33-1.143.33-1.383c0-.18-.09-.333-.33-.333ZM37.025 32.6c-.003-.24-.153-.33-.333-.33-.24 0-1.383.33-1.383.33s1.143.33 1.383.33c.18 0 .333-.09.333-.33ZM43.367 28.362c.223.09.364-.015.433-.181.092-.222.224-1.404.224-1.404s-.742.93-.834 1.151c-.069.166-.044.342.177.434ZM45.85 34.355c-.09.223.015.364.181.433.222.092 1.404.224 1.404.224s-.93-.742-1.151-.834c-.166-.069-.342-.044-.434.177ZM39.857 36.838c-.223-.09-.364.015-.433.181-.091.222-.224 1.404-.224 1.404s.742-.93.834-1.151c.069-.166.044-.342-.177-.434ZM37.374 30.845c.089-.223-.015-.364-.182-.433-.221-.091-1.404-.224-1.404-.224s.93.742 1.152.834c.166.069.342.044.434-.177ZM44.855 29.357c.172.167.342.125.47-.003.169-.17.744-1.21.744-1.21s-1.042.574-1.212.744c-.127.127-.171.299-.002.468ZM44.855 35.843c-.167.172-.125.342.003.47.17.169 1.21.744 1.21.744s-.574-1.042-.744-1.211c-.127-.128-.299-.172-.468-.002ZM38.368 35.843c-.172-.167-.341-.125-.469.003-.17.17-.744 1.21-.744 1.21s1.041-.574 1.211-.744c.127-.127.172-.299.002-.468ZM38.368 29.357c.168-.172.125-.342-.002-.47-.17-.169-1.211-.744-1.211-.744s.575 1.042.744 1.211c.128.128.3.172.47.003ZM45.85 30.845c.094.22.267.246.433.177.222-.092 1.152-.834 1.152-.834s-1.182.133-1.404.224c-.166.07-.273.21-.181.433ZM43.367 36.838c-.22.094-.246.267-.177.434.091.221.834 1.151.834 1.151s-.133-1.182-.225-1.404c-.069-.166-.21-.273-.432-.181ZM37.374 34.355c-.095-.22-.268-.246-.434-.177-.221.092-1.151.834-1.151.834s1.182-.133 1.404-.224c.166-.07.273-.21.181-.433ZM39.857 28.362c.22-.094.246-.267.177-.434-.092-.222-.834-1.151-.834-1.151s.132 1.182.224 1.404c.07.166.21.273.433.181ZM42.511 28.102c.236.044.354-.085.39-.262.046-.235-.054-1.42-.054-1.42s-.547 1.055-.594 1.29c-.035.177.023.345.258.392ZM46.11 33.499c-.044.236.086.353.262.389.236.047 1.421-.053 1.421-.053s-1.056-.547-1.291-.595c-.177-.035-.345.023-.392.259ZM40.713 37.098c-.236-.044-.353.085-.389.262-.047.235.053 1.42.053 1.42s.548-1.055.595-1.29c.035-.177-.023-.345-.259-.392ZM37.114 31.701c.044-.236-.085-.353-.262-.389-.235-.047-1.42.053-1.42.053s1.055.548 1.29.595c.177.035.345-.024.392-.259ZM44.164 28.788c.201.131.36.057.46-.093.133-.2.494-1.333.494-1.333s-.91.767-1.043.966c-.1.15-.11.327.089.46Z"/><path fill="#FFEC2D" d="M45.424 35.152c-.13.2-.056.36.093.46.2.133 1.333.494 1.333.494s-.766-.91-.966-1.043c-.15-.1-.326-.11-.46.089ZM39.06 36.412c-.2-.131-.36-.057-.46.093-.133.2-.494 1.333-.494 1.333s.91-.767 1.043-.966c.1-.15.11-.327-.089-.46ZM37.8 30.048c.132-.2.057-.36-.093-.46-.2-.133-1.333-.494-1.333-.494s.767.91.966 1.043c.15.1.327.11.46-.089ZM45.428 30.055c.136.198.31.19.46.09.2-.133.968-1.042.968-1.042s-1.134.36-1.334.493c-.15.1-.227.26-.094.459ZM44.157 36.416c-.198.136-.19.31-.09.46.133.2 1.042.968 1.042.968s-.36-1.134-.493-1.334c-.1-.15-.26-.227-.459-.094ZM37.796 35.145c-.135-.198-.31-.19-.46-.09-.2.133-.967 1.042-.967 1.042s1.134-.36 1.333-.493c.15-.1.227-.26.094-.459ZM39.067 28.784c.198-.136.19-.31.09-.46-.133-.2-1.042-.968-1.042-.968s.36 1.134.493 1.334c.1.15.26.227.459.094ZM46.112 31.709c.05.235.214.294.39.26.236-.048 1.293-.593 1.293-.593s-1.185-.102-1.42-.055c-.177.035-.31.153-.263.388ZM42.503 37.1c-.235.05-.294.214-.259.39.047.236.592 1.293.592 1.293s.102-1.185.056-1.42c-.035-.177-.153-.31-.389-.263ZM37.112 33.49c-.05-.234-.214-.293-.39-.258-.236.047-1.293.592-1.293.592s1.185.102 1.42.055c.177-.035.31-.153.263-.388ZM40.721 28.1c.235-.05.294-.214.259-.39-.047-.236-.592-1.293-.592-1.293s-.102 1.185-.055 1.42c.035.177.153.31.388.263Z"/><path fill="#FFEC2D" d="M41.474 39.65c-.105.189-.168.408-.3.579-.408-.369-.996-.36-1.512-.381-.426-.024-.888-.063-1.218-.366-.345-.285-.63-.651-1.014-.882-.361-.078-.7-.234-.993-.459-.606-.495-.954-1.23-1.548-1.74-.111-.108-.246-.195-.372-.288-.12.03-.066.288-.213.156-.081-.06-.282-.063-.3.018.18.24.363.51.39.816-.126.012-.345-.027-.405.018.165.247.372.464.612.639-.114.018-.34.009-.384.054.224.215.502.367.804.441.06.084-.093.246.039.318.075.03.327.084.153.171-.12.078-.075.267.078.261.096.051.312.06.33.15-.087.084-.351.186-.126.27.212.12.45.19.693.201-.12.102-.27.159-.393.255.555.327 1.17.54 1.782.75.24.078.489.153.74.201-.731-.042-1.44-.258-2.105-.555-.345-.15-.69-.297-1.044-.426.153-.081.333-.102.495-.171-.336-.066-.7-.09-.99-.27.042-.084.21-.087.306-.129.18-.042.288-.09.039-.108-.252-.069-.54-.039-.765-.189.015-.09.249-.06.342-.099.12-.021.252-.039.348-.12-.39-.159-.9-.045-1.206-.39-.07-.132.219-.027.3-.048.21 0 .435.066.636-.018-.57-.249-1.18-.48-1.611-.942-.048-.075-.192-.279-.075-.303.336.045.579.411.942.354.048-.063-.21-.168-.276-.261a6.88 6.88 0 0 1-1.404-1.53c-.024-.201.285-.231.366-.078.402.39.765.84 1.266 1.104.18.087-.102-.102-.138-.171a8.958 8.958 0 0 1-1.227-1.737c-.06-.114-.153-.321.02-.381.172-.087.346.03.433.18.339.429.59.939 1.014 1.296-.36-.699-.747-1.44-.756-2.244.009-.156.018-.39.23-.387.18-.027.15.201.21.309.175.594.25 1.236.6 1.758-.074-.438-.191-.891-.113-1.338.018-.15.18-.192.29-.102.088.21.106.477.184.705a7.11 7.11 0 0 0 2.79 3.816 7.34 7.34 0 0 0 3.699 1.269c.12.012.24.015.357.021m4.092 2.733c-.216.132-.384-.102-.564-.171-.132.072-.144.306-.264.42-.144.165-.324-.048-.31-.21-.173.147-.26.48-.54.432-.134-.108-.233-.336-.335-.075-.081.126-.3.306-.417.114-.036-.168-.12-.366-.21-.099-.066.192-.27.33-.462.246-.108-.087.084-.411-.051-.39-.204.138-.324.471-.61.444-.11-.12.07-.333-.053-.471-.141.183-.3.453-.55.471-.12-.096.007-.375-.071-.414-.252.15-.522.423-.84.339.123-.48.645-.645 1.08-.681.753-.093 1.545.078 2.27-.195.118-.072.4-.171.3-.336-.09-.132.232-.081.262-.234-.018-.192.15-.165.312-.18.732-.033 1.455.12 2.184.147.054.354-.34.603-.66.495-.15.024-.375-.348-.33-.078-.03.144-.012.33-.141.426Zm-6.222-.726c.168.153.288-.03.447-.099a5.912 5.912 0 0 0 1.449-.819c.276-.228.516-.525.888-.6.726-.219 1.497-.192 2.223-.396.555-.756 1.494-1.029 2.283-1.464.177-.054.246-.201.3-.36.3-.477.71-.897 1.197-1.185.23-.136.5-.184.762-.138a1.272 1.272 0 0 1-.411.795c.177-.003.33-.114.504-.108.06.318-.282.483-.465.681.102.024.492.054.279.156-.27.186-.58.315-.828.534.23.042.258.09.024.174-.13.084-.372.114-.396.282.174.108-.078.21-.177.246-.186.045-.384.126-.135.27-.093.141-.297.171-.462.156.05.162.123.342-.084.414a3.23 3.23 0 0 1-1.608.672c.735.054 1.494-.081 2.12-.48.085-.099.52-.207.277-.288-.114-.048-.36-.102-.378-.189.342-.21.77-.135 1.137-.258.009-.12-.28-.087-.387-.114-.255-.021-.24-.087.006-.111.312-.084.666-.099.93-.3-.213-.102-.483-.015-.711-.096.387-.168.843-.186 1.19-.441.16-.177-.203-.12-.308-.117-.213.039-.312-.066-.07-.153.418-.309.943-.507 1.237-.951.069-.099.162-.399-.06-.294-.288.099-.543.423-.876.324.654-.507 1.272-1.08 1.719-1.779.024-.204-.294-.225-.375-.066-.42.402-.798.879-1.335 1.134a8.421 8.421 0 0 0 1.308-1.692c.08-.18.294-.399.18-.6-.19-.156-.423-.012-.52.171-.326.426-.572.921-.99 1.269.364-.699.745-1.446.75-2.25 0-.168-.03-.414-.257-.381-.18.03-.135.3-.21.435-.162.552-.24 1.149-.57 1.629.075-.447.204-.915.105-1.365-.048-.204-.375-.117-.33.084-.39 1.977-1.72 3.705-3.45 4.704a7.43 7.43 0 0 1-2.586.87c-.24.051-.504.021-.735.105-.564.429-.903 1.152-1.614 1.377-.321.159-.735.192-.963.486a.257.257 0 0 0-.024.126Zm1.55-.309a1.28 1.28 0 0 0-.317.051c-.141.021-.276.069-.414.09l-.057.012-.093.009a.327.327 0 0 1 0 .153.181.181 0 0 1-.042.06.165.165 0 0 1-.066.054.21.21 0 0 1-.078.021c-.027 0-.054 0-.081-.012a.218.218 0 0 1-.075-.045l-.084.015h-.078l-.084-.03a.473.473 0 0 1-.078-.039c-.102.06-.216.117-.28.222a.33.33 0 0 0-.047.159.426.426 0 0 0 .042.21c.012.018.02-.069.054-.081a.505.505 0 0 1 .2-.099c.06-.03.052 0 .028.048-.006.027-.04.12.006.072a1.95 1.95 0 0 1 .648-.123c.318-.033.636-.042.954-.045l.9.018c.144.006.288.036.429.012.033-.009.087-.009.108-.03-.066-.036-.141-.039-.21-.048h-.573c-.16-.015-.324-.018-.474-.078-.042-.015-.078-.054-.117-.012a.72.72 0 0 1-.177.039.71.71 0 0 1-.306-.054c.069-.096.153-.18.23-.27l-.185-.039c.11-.075.21-.162.318-.24Z"/><path fill="#FFEC2D" d="M39.8 41.699a.072.072 0 1 0 0-.144.072.072 0 0 0 0 .144Z"/><path fill="#FFEC2D" stroke="#FFEC2D" stroke-width=".024" d="M39.794 41.645a.03.03 0 1 0 0-.06.03.03 0 0 0 0 .06Z"/><path fill="#FFEC2D" d="M23.6 22.19s-.288-.246-.387-.123c-.156.195.486 1.17.486 1.512 0 .564-.378.717-.84.795-.312.054-.82-.021-.82-.021.097-.129.16-.168.319-.177a.664.664 0 0 1-.36-.609c0-.483.198-.684.198-1.23 0-.297-.246-.687-.246-.687.438.045.654.45.53.774a.21.21 0 0 0 .19-.057c.03.09-.018.195-.087.285.054.03.096.012.18-.006-.006.09-.06.192-.198.285.396-.102.636.171.636.459 0 .219-.15.375-.3.375a.303.303 0 0 1-.16-.051c-.03.06-.011.141.016.201-.108-.03-.18-.096-.13-.231a.267.267 0 0 1-.194-.09.234.234 0 0 1 .195-.09c-.06-.126.009-.195.108-.252 0 0-.063.252.096.252.072 0 .138-.021.138-.129 0-.093-.081-.222-.27-.213-.186.009-.34.129-.34.429 0 .276.226.414.52.42.264.012.465-.132.465-.405 0-.366-.525-1.194-.525-1.518 0-.243.216-.381.432-.381.276 0 .51.276.51.276l-.162.204v.003Z"/><path fill="#FFEC2D" d="M23.66 28.763c0 .609-.546.921-.975.921-.576 0-.885-.345-.885-.798 0-.255.048-.417.165-.66l1.326-2.751a.81.81 0 0 0 .06-.366c0-.246-.24-.447-.49-.45-.227-.009-.48.21-.48.459 0 .303.16.438.322.438.198 0 .276-.081.276-.222 0-.096-.045-.138-.114-.138-.171 0-.12.228-.12.228a.156.156 0 0 1-.117-.21.306.306 0 0 1-.165-.099.309.309 0 0 1 .165-.09c-.04-.132.015-.195.129-.225a.228.228 0 0 0-.015.144c.18-.054.459.03.459.342 0 .312-.216.573-.621.51.096.045.144.138.156.243-.075-.03-.156-.03-.156-.03.048.081.114.15.11.318-.074-.036-.146-.099-.24-.06.15.3-.035.708-.51.804a.977.977 0 0 0 .259-.639c0-.705-.195-.822-.195-1.314a.721.721 0 0 1 .315-.576v.009a.42.42 0 0 1-.28-.201 1.86 1.86 0 0 1 1.02.009.75.75 0 0 1 .54.36 1.08 1.08 0 0 1 0 .867c-.188.39-1.07 2.268-1.346 2.856a.92.92 0 0 0-.093.402c0 .36.33.486.516.486.225 0 .456-.171.456-.384 0-.135-.075-.219-.18-.219-.255 0-.24.216-.19.354-.158-.072-.248-.198-.224-.33a.42.42 0 0 1-.252-.144c.06-.078.138-.138.252-.141-.051-.207.09-.294.225-.342-.042.15-.072.327.189.327.189 0 .336.03.423.156l.02-.81c.013-.243-.323-.24-.54-.165.082-.279.247-.432.63-.393a.3.3 0 0 1-.191-.294c0-.228.186-.48.306-.555l.06 2.37v.003Z"/><path fill="#FFEC2D" d="M23.66 30.587c0-.609-.546-.921-.975-.921-.576 0-.885.345-.885.798 0 .255.048.417.165.66l1.326 2.751a.81.81 0 0 1 .06.366c0 .246-.24.447-.49.45-.227.009-.48-.21-.48-.459 0-.303.16-.438.322-.438.198 0 .276.081.276.222 0 .096-.045.138-.114.138-.171 0-.12-.228-.12-.228a.156.156 0 0 0-.117.21.306.306 0 0 0-.165.099.309.309 0 0 0 .165.09c-.04.132.015.195.129.225a.228.228 0 0 1-.015-.144c.18.054.459-.03.459-.342 0-.312-.216-.573-.621-.51.096-.045.144-.138.156-.243-.075.03-.156.03-.156.03.048-.081.114-.15.11-.318-.074.036-.146.099-.24.06.15-.3-.035-.708-.51-.804.175.204.259.42.259.639 0 .705-.195.822-.195 1.314a.721.721 0 0 0 .315.576v-.009a.42.42 0 0 0-.28.201 1.86 1.86 0 0 0 1.02-.009.752.752 0 0 0 .54-.36 1.08 1.08 0 0 0 0-.867c-.188-.39-1.07-2.268-1.346-2.856a.92.92 0 0 1-.093-.402c0-.36.33-.486.516-.486.225 0 .456.171.456.384 0 .135-.075.219-.18.219-.255 0-.24-.216-.19-.354-.158.072-.248.198-.224.33a.42.42 0 0 0-.252.144c.06.078.138.138.252.141-.051.207.09.294.225.342-.042-.15-.072-.327.189-.327.189 0 .336-.03.423-.156l.02.81c.013.243-.323.24-.54.165.082.279.247.432.63.393a.3.3 0 0 0-.191.294c0 .228.186.48.306.555l.06-2.37v-.003ZM23.6 22.19s.288-.246.387-.123c.156.195-.486 1.17-.486 1.512 0 .564.378.717.84.795.312.054.819-.021.819-.021-.096-.129-.159-.168-.318-.177.18-.09.36-.294.36-.609 0-.483-.198-.684-.198-1.23 0-.297.246-.687.246-.687-.438.045-.654.45-.531.774a.21.21 0 0 1-.189-.057c-.03.09.018.195.087.285-.054.03-.096.012-.18-.006.006.09.06.192.198.285-.396-.102-.636.171-.636.459 0 .219.15.375.3.375.048 0 .12-.021.159-.051.03.06.012.141-.015.201.108-.03.18-.096.129-.231a.267.267 0 0 0 .195-.09.234.234 0 0 0-.195-.09c.06-.126-.009-.195-.108-.252 0 0 .063.252-.096.252-.072 0-.138-.021-.138-.129 0-.093.081-.222.27-.213.186.009.339.129.339.429 0 .276-.225.414-.519.42-.264.012-.465-.132-.465-.405 0-.366.525-1.194.525-1.518 0-.243-.216-.381-.432-.381-.276 0-.51.276-.51.276l.162.204v.003Z"/><path fill="#FFEC2D" d="M23.54 28.763c0 .609.546.921.975.921.576 0 .885-.345.885-.798 0-.255-.048-.417-.165-.66l-1.326-2.751a.81.81 0 0 1-.06-.366c0-.246.24-.447.489-.45.228-.009.48.21.48.459 0 .303-.16.438-.321.438-.198 0-.276-.081-.276-.222 0-.096.045-.138.114-.138.17 0 .12.228.12.228a.156.156 0 0 0 .117-.21.306.306 0 0 0 .165-.099.309.309 0 0 0-.165-.09c.039-.132-.015-.195-.13-.225.021.045.027.096.016.144-.18-.054-.46.03-.46.342 0 .312.217.573.622.51-.096.045-.144.138-.156.243.075-.03.156-.03.156-.03-.048.081-.114.15-.111.318.075-.036.147-.099.24-.06-.15.3.036.708.51.804a.977.977 0 0 1-.258-.639c0-.705.195-.822.195-1.314a.721.721 0 0 0-.315-.576v.009a.42.42 0 0 0 .279-.201 1.86 1.86 0 0 0-1.02.009.75.75 0 0 0-.54.36 1.08 1.08 0 0 0 0 .867c.189.39 1.07 2.268 1.347 2.856a.92.92 0 0 1 .093.402c0 .36-.33.486-.516.486-.225 0-.456-.171-.456-.384 0-.135.075-.219.18-.219.255 0 .24.216.189.354.159-.072.249-.198.225-.33a.42.42 0 0 0 .252-.144c-.06-.078-.138-.138-.252-.141.05-.207-.09-.294-.225-.342.042.15.072.327-.19.327-.188 0-.335.03-.422.156l-.021-.81c-.012-.243.324-.24.54-.165-.081-.279-.246-.432-.63-.393a.3.3 0 0 0 .192-.294c0-.228-.186-.48-.306-.555l-.06 2.37v.003Z"/><path fill="#FFEC2D" d="M23.54 30.587c0-.609.546-.921.975-.921.576 0 .885.345.885.798 0 .255-.048.417-.165.66l-1.326 2.751a.81.81 0 0 0-.06.366c0 .246.24.447.489.45.228.009.48-.21.48-.459 0-.303-.16-.438-.321-.438-.198 0-.276.081-.276.222 0 .096.045.138.114.138.17 0 .12-.228.12-.228a.156.156 0 0 1 .117.21c.064.014.122.05.165.099a.309.309 0 0 1-.165.09c.039.132-.015.195-.13.225a.228.228 0 0 0 .016-.144c-.18.054-.46-.03-.46-.342 0-.312.217-.573.622-.51-.096-.045-.144-.138-.156-.243.075.03.156.03.156.03-.048-.081-.114-.15-.111-.318.075.036.147.099.24.06-.15-.3.036-.708.51-.804a.977.977 0 0 0-.258.639c0 .705.195.822.195 1.314a.721.721 0 0 1-.315.576v-.009a.42.42 0 0 1 .279.201 1.86 1.86 0 0 1-1.02-.009.752.752 0 0 1-.54-.36 1.08 1.08 0 0 1 0-.867c.189-.39 1.07-2.268 1.347-2.856a.92.92 0 0 0 .093-.402c0-.36-.33-.486-.516-.486-.225 0-.456.171-.456.384 0 .135.075.219.18.219.255 0 .24-.216.189-.354.159.072.249.198.225.33a.42.42 0 0 1 .252.144c-.06.078-.138.138-.252.141.05.207-.09.294-.225.342.042-.15.072-.327-.19-.327-.188 0-.335-.03-.422-.156l-.021.81c-.012.243.324.24.54.165-.081.279-.246.432-.63.393a.3.3 0 0 1 .192.294c0 .228-.186.48-.306.555l-.06-2.37v-.003ZM23.6 47.81s-.288.246-.387.123c-.156-.195.486-1.17.486-1.512 0-.564-.378-.717-.84-.795-.312-.054-.82.021-.82.021.097.129.16.168.319.177a.664.664 0 0 0-.36.609c0 .483.198.684.198 1.23 0 .297-.246.687-.246.687.438-.045.654-.45.53-.774a.21.21 0 0 1 .19.057c.03-.09-.018-.195-.087-.285.054-.03.096-.012.18.006-.006-.09-.06-.192-.198-.285.396.102.636-.171.636-.459 0-.219-.15-.375-.3-.375a.303.303 0 0 0-.16.051c-.03-.06-.011-.141.016-.201-.108.03-.18.096-.13.231a.267.267 0 0 0-.194.09c.045.06.114.09.195.09-.06.126.009.195.108.252 0 0-.063-.252.096-.252.072 0 .138.021.138.129 0 .093-.081.222-.27.213-.186-.009-.34-.129-.34-.429 0-.276.226-.414.52-.42.264-.012.465.132.465.405 0 .366-.525 1.194-.525 1.518 0 .243.216.381.432.381.276 0 .51-.276.51-.276l-.162-.204v-.003Z"/><path fill="#FFEC2D" d="M23.66 41.237c0-.609-.546-.921-.975-.921-.576 0-.885.345-.885.798 0 .255.048.417.165.66l1.326 2.751a.81.81 0 0 1 .06.366c0 .246-.24.447-.49.45-.227.009-.48-.21-.48-.459 0-.303.16-.438.322-.438.198 0 .276.081.276.222 0 .096-.045.138-.114.138-.171 0-.12-.228-.12-.228a.156.156 0 0 0-.117.21.306.306 0 0 0-.165.099.309.309 0 0 0 .165.09c-.04.132.015.195.129.225a.228.228 0 0 1-.015-.144c.18.054.459-.03.459-.342 0-.312-.216-.573-.621-.51.096-.045.144-.138.156-.243-.075.03-.156.03-.156.03.048-.081.114-.15.11-.318-.074.036-.146.099-.24.06.15-.3-.035-.708-.51-.804.175.204.259.42.259.639 0 .705-.195.822-.195 1.314a.721.721 0 0 0 .315.576v-.009a.42.42 0 0 0-.28.201 1.86 1.86 0 0 0 1.02-.009.75.75 0 0 0 .54-.36 1.08 1.08 0 0 0 0-.867c-.188-.39-1.07-2.268-1.346-2.856a.92.92 0 0 1-.093-.402c0-.36.33-.486.516-.486.225 0 .456.171.456.384 0 .135-.075.219-.18.219-.255 0-.24-.216-.19-.354-.158.072-.248.198-.224.33a.42.42 0 0 0-.252.144c.06.078.138.138.252.141-.051.207.09.294.225.342-.042-.15-.072-.327.189-.327.189 0 .336-.03.423-.156l.02.81c.013.243-.323.24-.54.165.082.279.247.432.63.393a.3.3 0 0 0-.191.294c0 .228.186.48.306.555l.06-2.37v-.003Z"/><path fill="#FFEC2D" d="M23.66 39.413c0 .609-.546.921-.975.921-.576 0-.885-.345-.885-.798 0-.255.048-.417.165-.66l1.326-2.751a.81.81 0 0 0 .06-.366c0-.246-.24-.447-.49-.45-.227-.009-.48.21-.48.459 0 .303.16.438.322.438.198 0 .276-.081.276-.222 0-.096-.045-.138-.114-.138-.171 0-.12.228-.12.228a.156.156 0 0 1-.117-.21.306.306 0 0 1-.165-.099.309.309 0 0 1 .165-.09c-.04-.132.015-.195.129-.225a.228.228 0 0 0-.015.144c.18-.054.459.03.459.342 0 .312-.216.573-.621.51.096.045.144.138.156.243-.075-.03-.156-.03-.156-.03.048.081.114.15.11.318-.074-.036-.146-.099-.24-.06.15.3-.035.708-.51.804a.977.977 0 0 0 .259-.639c0-.705-.195-.822-.195-1.314a.72.72 0 0 1 .315-.576v.009a.42.42 0 0 1-.28-.201 1.86 1.86 0 0 1 1.02.009.75.75 0 0 1 .54.36 1.08 1.08 0 0 1 0 .867c-.188.39-1.07 2.268-1.346 2.856a.92.92 0 0 0-.093.402c0 .36.33.486.516.486.225 0 .456-.171.456-.384 0-.135-.075-.219-.18-.219-.255 0-.24.216-.19.354-.158-.072-.248-.198-.224-.33a.42.42 0 0 1-.252-.144c.06-.078.138-.138.252-.141-.051-.207.09-.294.225-.342-.042.15-.072.327.189.327.189 0 .336.03.423.156l.02-.81c.013-.243-.323-.24-.54-.165.082-.279.247-.432.63-.393a.3.3 0 0 1-.191-.294c0-.228.186-.48.306-.555l.06 2.37v.003ZM23.6 47.81s.288.246.387.123c.156-.195-.486-1.17-.486-1.512 0-.564.378-.717.84-.795.312-.054.819.021.819.021-.096.129-.159.168-.318.177.18.09.36.294.36.609 0 .483-.198.684-.198 1.23 0 .297.246.687.246.687-.438-.045-.654-.45-.531-.774a.21.21 0 0 0-.189.057c-.03-.09.018-.195.087-.285-.054-.03-.096-.012-.18.006.006-.09.06-.192.198-.285-.396.102-.636-.171-.636-.459 0-.219.15-.375.3-.375.048 0 .12.021.159.051.03-.06.012-.141-.015-.201.108.03.18.096.129.231.084.006.15.036.195.09a.234.234 0 0 1-.195.09c.06.126-.009.195-.108.252 0 0 .063-.252-.096-.252-.072 0-.138.021-.138.129 0 .093.081.222.27.213.186-.009.339-.129.339-.429 0-.276-.225-.414-.519-.42-.264-.012-.465.132-.465.405 0 .366.525 1.194.525 1.518 0 .243-.216.381-.432.381-.276 0-.51-.276-.51-.276l.162-.204v-.003Z"/><path fill="#FFEC2D" d="M23.54 41.237c0-.609.546-.921.975-.921.576 0 .885.345.885.798 0 .255-.048.417-.165.66l-1.326 2.751a.81.81 0 0 0-.06.366c0 .246.24.447.489.45.228.009.48-.21.48-.459 0-.303-.16-.438-.321-.438-.198 0-.276.081-.276.222 0 .096.045.138.114.138.17 0 .12-.228.12-.228a.156.156 0 0 1 .117.21c.064.014.122.05.165.099a.309.309 0 0 1-.165.09c.039.132-.015.195-.13.225a.228.228 0 0 0 .016-.144c-.18.054-.46-.03-.46-.342 0-.312.217-.573.622-.51-.096-.045-.144-.138-.156-.243.075.03.156.03.156.03-.048-.081-.114-.15-.111-.318.075.036.147.099.24.06-.15-.3.036-.708.51-.804a.977.977 0 0 0-.258.639c0 .705.195.822.195 1.314a.721.721 0 0 1-.315.576v-.009a.42.42 0 0 1 .279.201 1.86 1.86 0 0 1-1.02-.009.75.75 0 0 1-.54-.36 1.08 1.08 0 0 1 0-.867c.189-.39 1.07-2.268 1.347-2.856a.92.92 0 0 0 .093-.402c0-.36-.33-.486-.516-.486-.225 0-.456.171-.456.384 0 .135.075.219.18.219.255 0 .24-.216.189-.354.159.072.249.198.225.33a.42.42 0 0 1 .252.144c-.06.078-.138.138-.252.141.05.207-.09.294-.225.342.042-.15.072-.327-.19-.327-.188 0-.335-.03-.422-.156l-.021.81c-.012.243.324.24.54.165-.081.279-.246.432-.63.393a.3.3 0 0 1 .192.294c0 .228-.186.48-.306.555l-.06-2.37v-.003Z"/><path fill="#FFEC2D" d="M23.54 39.413c0 .609.546.921.975.921.576 0 .885-.345.885-.798 0-.255-.048-.417-.165-.66l-1.326-2.751a.81.81 0 0 1-.06-.366c0-.246.24-.447.489-.45.228-.009.48.21.48.459 0 .303-.16.438-.321.438-.198 0-.276-.081-.276-.222 0-.096.045-.138.114-.138.17 0 .12.228.12.228a.156.156 0 0 0 .117-.21.306.306 0 0 0 .165-.099.309.309 0 0 0-.165-.09c.039-.132-.015-.195-.13-.225.021.045.027.096.016.144-.18-.054-.46.03-.46.342 0 .312.217.573.622.51-.096.045-.144.138-.156.243.075-.03.156-.03.156-.03-.048.081-.114.15-.111.318.075-.036.147-.099.24-.06-.15.3.036.708.51.804a.977.977 0 0 1-.258-.639c0-.705.195-.822.195-1.314a.72.72 0 0 0-.315-.576v.009A.42.42 0 0 0 25.16 35a1.86 1.86 0 0 0-1.02.009.75.75 0 0 0-.54.36 1.08 1.08 0 0 0 0 .867c.189.39 1.07 2.268 1.347 2.856a.92.92 0 0 1 .093.402c0 .36-.33.486-.516.486-.225 0-.456-.171-.456-.384 0-.135.075-.219.18-.219.255 0 .24.216.189.354.159-.072.249-.198.225-.33a.42.42 0 0 0 .252-.144c-.06-.078-.138-.138-.252-.141.05-.207-.09-.294-.225-.342.042.15.072.327-.19.327-.188 0-.335.03-.422.156l-.021-.81c-.012-.243.324-.24.54-.165-.081-.279-.246-.432-.63-.393a.3.3 0 0 0 .192-.294c0-.228-.186-.48-.306-.555l-.06 2.37v.003Z"/></g><path fill="#000" d="M68.821 42V27.781h1.768v7.022l6.24-7.022h2.119l-8.36 9.248V42h-1.767Zm8.398 0-5.459-7.393 1.143-1.24L79.387 42H77.22Zm2.223-2.959c0-1.016.4-1.81 1.201-2.383.807-.573 1.84-.86 3.096-.86h2.304v-.732c0-.618-.162-1.116-.488-1.494-.319-.377-.863-.566-1.63-.566-.775 0-1.335.16-1.68.478-.339.313-.508.687-.508 1.123v.078h-1.71v-.097c0-.794.352-1.485 1.055-2.07.71-.593 1.67-.89 2.881-.89 1.205 0 2.136.287 2.793.86.664.567.996 1.426.996 2.578v4.59c0 .423.033.824.098 1.201.065.371.156.7.273.987V42h-1.65a3.21 3.21 0 0 1-.254-.635 4.102 4.102 0 0 1-.137-.781c-.24.417-.628.788-1.162 1.113-.527.326-1.21.488-2.05.488-.964 0-1.778-.27-2.442-.81-.657-.54-.986-1.318-.986-2.334Zm1.709-.088c0 .586.17 1.042.508 1.367.345.326.869.489 1.572.489.716 0 1.364-.244 1.943-.733.58-.495.87-1.022.87-1.582V37.04h-2.11c-.918 0-1.611.173-2.08.518-.469.345-.703.81-.703 1.396ZM89.115 42v-1.26l5.772-7.422h-5.694v-1.406h7.764v1.23l-5.791 7.452h6.074V42h-8.125Zm8.912-2.959c0-1.016.4-1.81 1.201-2.383.807-.573 1.839-.86 3.096-.86h2.305v-.732c0-.618-.163-1.116-.489-1.494-.319-.377-.862-.566-1.631-.566-.774 0-1.334.16-1.679.478-.339.313-.508.687-.508 1.123v.078h-1.71v-.097c0-.794.353-1.485 1.056-2.07.709-.593 1.67-.89 2.88-.89 1.205 0 2.136.287 2.793.86.664.567.997 1.426.997 2.578v4.59c0 .423.032.824.097 1.201.065.371.156.7.274.987V42h-1.651a3.203 3.203 0 0 1-.254-.635 4.1 4.1 0 0 1-.136-.781c-.241.417-.629.788-1.163 1.113-.527.326-1.21.488-2.05.488-.964 0-1.778-.27-2.442-.81-.657-.54-.986-1.318-.986-2.334Zm1.709-.088c0 .586.17 1.042.508 1.367.345.326.869.489 1.572.489.716 0 1.364-.244 1.943-.733.58-.495.87-1.022.87-1.582V37.04h-2.11c-.918 0-1.611.173-2.08.518-.469.345-.703.81-.703 1.396ZM108.5 42V27.107h1.709v9.444l4.326-4.639h1.963l-6.289 6.66V42h-1.709Zm6.465 0-3.945-5.273 1.074-1.192L116.968 42h-2.002Zm2.662 0V27.107h1.709v6.065a3.724 3.724 0 0 1 1.357-1.055 4.129 4.129 0 0 1 1.817-.4c.944 0 1.715.286 2.314.86.599.572.898 1.536.898 2.89V42h-1.709v-6.543c0-.82-.185-1.406-.556-1.758-.365-.358-.886-.537-1.563-.537-.573 0-1.08.156-1.523.469a3.213 3.213 0 0 0-1.035 1.21V42h-1.709Zm9.605-2.998h1.719v.078c0 .599.214 1.048.644 1.348.43.293.999.44 1.709.44.716 0 1.279-.14 1.69-.42.41-.287.615-.662.615-1.124 0-.462-.17-.814-.508-1.054-.332-.248-1.038-.502-2.119-.762-1.087-.26-1.944-.619-2.569-1.074-.625-.463-.937-1.107-.937-1.934 0-.833.338-1.52 1.016-2.06.683-.54 1.595-.811 2.734-.811s2.057.27 2.754.81c.696.54 1.045 1.28 1.045 2.217v.069h-1.709v-.098c0-.508-.173-.899-.518-1.172-.345-.273-.869-.41-1.572-.41-.703 0-1.221.127-1.553.38-.332.255-.498.584-.498.987 0 .39.186.703.557.938.371.227 1.097.472 2.178.732 1.08.26 1.914.628 2.5 1.103.592.47.888 1.146.888 2.032 0 .898-.332 1.634-.996 2.207-.664.573-1.66.86-2.988.86-1.335 0-2.35-.29-3.047-.87-.69-.58-1.035-1.357-1.035-2.334v-.078Zm8.257-5.762v-1.328h5.723v1.328h-5.723Zm1.807 6.23V29.237h1.709v10.235c0 .495.091.84.273 1.035.189.195.482.293.879.293.176 0 .349-.016.518-.049.176-.04.351-.091.527-.156V42a2.726 2.726 0 0 1-.635.195c-.26.059-.547.088-.859.088-.736 0-1.322-.221-1.758-.664-.436-.45-.654-1.165-.654-2.148Zm4.605-.429c0-1.016.4-1.81 1.201-2.383.807-.573 1.839-.86 3.096-.86h2.305v-.732c0-.618-.163-1.116-.489-1.494-.319-.377-.862-.566-1.631-.566-.774 0-1.334.16-1.679.478-.339.313-.508.687-.508 1.123v.078h-1.709v-.097c0-.794.351-1.485 1.055-2.07.709-.593 1.669-.89 2.88-.89 1.205 0 2.136.287 2.793.86.664.567.996 1.426.996 2.578v4.59c0 .423.033.824.098 1.201.065.371.156.7.274.987V42h-1.651a3.203 3.203 0 0 1-.254-.635 4.1 4.1 0 0 1-.136-.781c-.241.417-.629.788-1.163 1.113-.527.326-1.21.488-2.05.488-.964 0-1.778-.27-2.442-.81-.657-.54-.986-1.318-.986-2.334Zm1.709-.088c0 .586.169 1.042.508 1.367.345.326.869.489 1.572.489.716 0 1.364-.244 1.943-.733.58-.495.87-1.022.87-1.582V37.04h-2.11c-.918 0-1.611.173-2.08.518-.469.345-.703.81-.703 1.396ZM152.376 42V31.912h1.553l.068 1.309h.049a3.923 3.923 0 0 1 1.338-1.104 3.918 3.918 0 0 1 1.777-.4c1.009 0 1.813.286 2.412.86.599.572.899 1.536.899 2.89V42h-1.709v-6.543c0-.82-.186-1.406-.557-1.758-.364-.358-.885-.537-1.562-.537-.573 0-1.081.156-1.524.469-.442.312-.787.72-1.035 1.22V42h-1.709Z"/><defs><clipPath id="a"><rect width="40" height="30" x="20" y="20" fill="#fff" rx="15"/></clipPath></defs></svg>