<svg xmlns="http://www.w3.org/2000/svg" width="195" height="70" fill="none"><rect width="194" height="69" x=".5" y=".5" fill="#fff" stroke="#363636" rx="34.5"/><path fill="#000" d="M79.966 42V27.781h1.767v7.022l6.24-7.022h2.12l-8.36 9.248V42h-1.767Zm8.398 0-5.459-7.393 1.143-1.24L90.532 42h-2.168Zm1.45 4.063v-1.456c.17.053.356.092.558.118.201.032.4.048.595.048.456 0 .85-.182 1.182-.546.332-.365.687-1.117 1.064-2.256l-3.77-10.059h1.67l2.432 6.738c.091.254.173.492.245.713.071.222.133.43.185.625h.059c.052-.195.113-.403.185-.625.078-.221.16-.459.244-.713l2.295-6.738h1.631l-4.14 11.455c-.333.925-.756 1.638-1.27 2.139-.514.501-1.152.752-1.914.752-.26 0-.488-.017-.684-.049a3.291 3.291 0 0 1-.566-.147ZM99.206 42V31.912h1.553l.068 1.309h.049c.26-.43.602-.801 1.025-1.114.424-.319.928-.478 1.514-.478.137 0 .283.016.44.049.156.026.266.052.332.078v1.592a3.484 3.484 0 0 0-.401-.059 5.288 5.288 0 0 0-.478-.02c-.567 0-1.058.154-1.475.46a2.83 2.83 0 0 0-.918 1.152V42h-1.709Zm5.621 2.822 1.054-1.299c.287.32.687.603 1.202.85.514.254 1.097.38 1.748.38.859 0 1.543-.253 2.05-.76.508-.509.762-1.241.762-2.198v-1.016c-.299.423-.7.765-1.201 1.026-.501.254-1.107.38-1.816.38-1.27 0-2.286-.478-3.047-1.435-.762-.957-1.143-2.171-1.143-3.643v-.312c0-1.471.381-2.686 1.143-3.643.761-.957 1.78-1.435 3.056-1.435.704 0 1.322.146 1.856.44.534.292.931.65 1.191 1.074h.059l.068-1.319h1.553v9.883c0 1.439-.417 2.539-1.25 3.3-.827.769-1.911 1.153-3.252 1.153-.82 0-1.579-.137-2.275-.41-.697-.267-1.283-.606-1.758-1.016Zm1.357-7.715c0 1.042.228 1.915.684 2.618.456.696 1.168 1.044 2.138 1.044.652 0 1.205-.175 1.661-.527.455-.358.781-.765.976-1.22v-4.15c-.202-.457-.53-.86-.986-1.212-.449-.358-.999-.537-1.651-.537-.97 0-1.682.352-2.138 1.055-.456.703-.684 1.575-.684 2.617v.312Zm8.453 8.956v-1.456c.169.053.355.092.557.118.201.032.4.048.595.048.456 0 .85-.182 1.182-.546.332-.365.687-1.117 1.064-2.256l-3.769-10.059h1.67l2.431 6.738c.092.254.173.492.245.713.071.222.133.43.185.625h.059c.052-.195.114-.403.185-.625.078-.221.16-.459.244-.713l2.295-6.738h1.631l-4.14 11.455c-.333.925-.756 1.638-1.27 2.139-.514.501-1.152.752-1.914.752-.26 0-.488-.017-.684-.049a3.288 3.288 0 0 1-.566-.147ZM123.225 42v-1.26l5.772-7.422h-5.693v-1.406h7.763v1.23l-5.791 7.452h6.074V42h-8.125Zm8.863-2.998h1.719v.078c0 .599.215 1.048.645 1.348.429.293.999.44 1.709.44.716 0 1.279-.14 1.689-.42.41-.287.615-.662.615-1.124 0-.462-.169-.814-.508-1.054-.332-.248-1.038-.502-2.119-.762-1.087-.26-1.943-.619-2.568-1.074-.625-.463-.938-1.107-.938-1.934 0-.833.339-1.52 1.016-2.06.684-.54 1.595-.811 2.734-.811 1.14 0 2.058.27 2.754.81.697.54 1.045 1.28 1.045 2.217v.069h-1.709v-.098c0-.508-.172-.899-.517-1.172-.345-.273-.869-.41-1.573-.41-.703 0-1.22.127-1.552.38-.332.255-.498.584-.498.987 0 .39.185.703.556.938.371.227 1.097.472 2.178.732s1.914.628 2.5 1.103c.592.47.889 1.146.889 2.032 0 .898-.332 1.634-.996 2.207-.664.573-1.661.86-2.989.86-1.334 0-2.35-.29-3.047-.87-.69-.58-1.035-1.357-1.035-2.334v-.078Zm8.258-5.762v-1.328h5.722v1.328h-5.722Zm1.806 6.23V29.237h1.709v10.235c0 .495.091.84.274 1.035.189.195.482.293.879.293.175 0 .348-.016.517-.049.176-.04.352-.091.528-.156V42a2.742 2.742 0 0 1-.635.195 3.924 3.924 0 0 1-.86.088c-.735 0-1.321-.221-1.757-.664-.437-.45-.655-1.165-.655-2.148Zm4.605-.429c0-1.016.401-1.81 1.202-2.383.807-.573 1.839-.86 3.095-.86h2.305v-.732c0-.618-.163-1.116-.488-1.494-.319-.377-.863-.566-1.631-.566-.775 0-1.335.16-1.68.478-.338.313-.508.687-.508 1.123v.078h-1.709v-.097c0-.794.352-1.485 1.055-2.07.71-.593 1.67-.89 2.881-.89 1.204 0 2.135.287 2.793.86.664.567.996 1.426.996 2.578v4.59c0 .423.033.824.098 1.201.065.371.156.7.273.987V42h-1.65a3.203 3.203 0 0 1-.254-.635 4.103 4.103 0 0 1-.137-.781c-.241.417-.628.788-1.162 1.113-.527.326-1.211.488-2.051.488-.963 0-1.777-.27-2.441-.81-.658-.54-.987-1.318-.987-2.334Zm1.709-.088c0 .586.17 1.042.508 1.367.345.326.869.489 1.572.489.717 0 1.364-.244 1.944-.733.579-.495.869-1.022.869-1.582V37.04h-2.109c-.918 0-1.612.173-2.08.518-.469.345-.704.81-.704 1.396ZM157.232 42V31.912h1.552l.069 1.309h.049a3.91 3.91 0 0 1 1.337-1.104 3.922 3.922 0 0 1 1.778-.4c1.009 0 1.813.286 2.412.86.599.572.898 1.536.898 2.89V42h-1.709v-6.543c0-.82-.185-1.406-.556-1.758-.365-.358-.886-.537-1.563-.537-.573 0-1.081.156-1.523.469-.443.312-.788.72-1.035 1.22V42h-1.709Z"/><g clip-path="url(#a)"><mask id="b" width="41" height="30" x="19" y="20" maskUnits="userSpaceOnUse" style="mask-type:luminance"><path fill="#fff" d="M19.995 20h40.002v30H19.995V20Z"/></mask><g fill-rule="evenodd" clip-rule="evenodd" mask="url(#b)"><path fill="red" d="M17.475 20h45.047v30H17.475V20Z"/><path fill="#FF0" d="M31.157 35.299c.797-.973 2.455-.024 3.808-.72-1.605.087-2.478-.774-3.744-.651 1.313-.809 2.432.263 3.897-.164-1.94-.164-1.858-1.037-3.627-1.16 1.57-.668 2.343.69 3.885.38-1.817-.416-2.051-1.482-3.399-1.71 1.969-.294 1.84.867 3.768 1.007-1.957-.838-1.448-1.57-3.082-2.209 1.834-.04 1.71 1.23 3.574 1.559-1.594-1.008-1.4-1.928-2.707-2.649 1.553.03 1.699 1.618 3.287 2.11-1.412-1.12-1.043-2.069-2.262-3.07 1.547.363 1.319 1.734 2.93 2.613-1.195-1.325-.738-2.274-1.776-3.358 1.489.475.92 1.782 2.461 3.024-.879-1.46-.334-2.39-1.207-3.615 1.383.709.715 2.044 1.993 3.369-.604-1.494 0-2.42-.616-3.744 1.184.878.48 2.302 1.436 3.662-.352-1.875.457-2.18.205-3.82.896 1.1-.105 2.203.586 3.826-.088-1.846.896-2.274.727-3.75.884 1.324-.499 2.478.082 3.896.146-1.746 1.294-2.203 1.312-3.563.703 1.248-.82 2.15-.574 3.81.498-1.829 1.722-2.052 1.875-3.282.416 1.441-1.254 2.11-1.154 3.715.498-1.623 2.027-1.817 2.343-3.012.194 1.523-1.312 1.799-1.74 3.486.791-1.377 2.18-1.488 2.8-2.578-.046 1.512-1.745 1.711-2.267 3.123.979-1.201 2.21-.996 3.188-2.056-.106 1.365-1.834 1.289-2.754 2.7 1.06-.978 2.66-.685 3.474-1.529-.04 1.208-2.162 1.114-3.164 2.198 1.23-.68 2.801-.282 3.703-.909-.164 1.055-2.402.81-3.474 1.641 1.476-.41 2.619.217 3.808-.234-.58 1.025-2.613.375-3.691 1.043 1.29-.217 2.648.562 3.815.31-.381.89-2.614-.058-3.81.498 1.43-.011 2.362.909 3.692.844-.72.809-2.677-.299-3.82-.111 1.395.293 2.46 1.441 3.516 1.5-.873.662-2.49-.85-3.809-.662 1.36.363 2.496 1.904 3.27 1.94-.838.573-2.49-1.32-3.621-1.249 1.376.621 2.003 2.197 2.912 2.42-1.12.357-2.221-1.711-3.422-1.787 1.394.879 1.47 2.226 2.543 2.824-1.131.276-1.934-2.062-3.123-2.262 1.142.838 1.318 2.637 2.074 3.2-1.149.058-1.565-2.385-2.742-2.737 1.008.844.767 2.672 1.552 3.457-1.195-.252-1.043-2.379-2.29-3.1.896 1.137.439 2.749 1.025 3.657-1.166-.469-.662-2.379-1.77-3.457.604 1.207-.047 2.613.434 3.78-1.067-.522-.352-2.778-1.166-3.675.375 1.395-.317 2.55-.035 3.797-1.09-1.26.164-2.531-.78-3.814.246 1.47-.785 2.502-.62 3.732-.862-1.008.468-2.619-.206-3.89.14 1.447-1.19 2.718-1.096 3.632-.703-1.172.78-2.554.381-3.884-.082 1.382-1.43 2.132-1.681 3.392-.451-1.389 1.148-2.39 1.008-3.756-.458 1.295-1.758 1.817-2.215 3.076-.375-1.388 1.523-2.12 1.57-3.574-.586 1.36-2.139 1.664-2.654 2.707-.194-1.377 1.98-1.992 2.062-3.298-.703 1.253-2.402 1.306-2.988 2.302-.088-1.37 2.203-1.54 2.56-2.976-.697 1.066-2.56.931-3.34 1.798.124-1.271 2.602-1.347 3-2.496-.925.891-2.636.528-3.603 1.23.54-1.253 2.865-.99 3.387-1.892-1.026.533-2.848.012-3.75.551.82-1.183 2.625-.474 3.65-1.289-1.664.24-2.666-.422-3.82-.117h.006Z"/><path fill="#FF0" d="M45.834 35.006a5.815 5.815 0 1 1-9.928-4.11 5.812 5.812 0 0 1 9.923 4.11h.005Z"/><path fill="red" d="M45.084 35.018a5.057 5.057 0 1 1-10.113 0 5.057 5.057 0 0 1 10.114 0Z"/><path fill="#FF0" d="M44.381 35.03a4.342 4.342 0 1 1-8.683 0 4.342 4.342 0 0 1 8.683 0Z"/><path fill="red" d="M36.342 32.188c1.202-.03 2.696.081 3.686.867a5.69 5.69 0 0 1 3.545-.838l.644 1.178a5.919 5.919 0 0 0-2.93.48 4.998 4.998 0 0 1 2.028 4.225c-.158.199-.41.416-.568.615.234-1.67-.645-3.533-1.928-4.512 1.043 1.5 1.658 2.848 1.488 4.711l-.586.375c.27-1.64-.117-3.574-1.33-4.687.703 1.025 1.395 2.87.961 4.746-.188.058-.48.217-.668.27a5.624 5.624 0 0 0-.633-4.612c-.808 1.16-1.072 2.93-.615 4.57-.223-.058-.392-.129-.621-.181-.334-1.758.129-3.75.932-4.788-.82.475-1.588 2.502-1.371 4.57l-.545-.251c-.264-1.541.433-3.551 1.435-4.711-1.137.715-2.062 2.478-1.904 4.37-.176-.151-.334-.228-.51-.386-.2-1.652.762-3.316 1.88-4.312-.942-.428-1.757-.51-2.929-.492.182-.381.352-.827.54-1.213v.005Z"/></g></g><defs><clipPath id="a"><rect width="40" height="30" x="20" y="20" fill="#fff" rx="15"/></clipPath></defs></svg>