<svg xmlns="http://www.w3.org/2000/svg" width="139" height="40" fill="none" viewBox="0 0 139 40">
  <path fill="#fff" d="M15.35 5.853 7.378 30.766H0L11.428 0h4.664l-.742 5.853Zm6.615 24.913L13.972 5.853 13.145 0h4.728l11.47 30.766h-7.378Zm-.339-11.453v5.325H5.534v-5.325h16.092ZM37.358 12.7v18.066h-6.615V7.903h6.212l.403 4.796Zm-.848 5.831-1.675.043c0-1.606.19-3.078.572-4.417.396-1.352.969-2.528 1.718-3.528s1.675-1.775 2.777-2.325c1.117-.55 2.403-.824 3.859-.824 1.017 0 1.943.155 2.777.465a5.233 5.233 0 0 1 2.142 1.416c.608.634 1.074 1.465 1.399 2.493.325 1.014.488 2.233.488 3.656v15.256h-6.615V16.313c0-1.014-.128-1.782-.382-2.303-.24-.536-.594-.902-1.06-1.1-.466-.197-1.025-.295-1.675-.295-.707 0-1.336.155-1.887.465-.537.296-.99.711-1.357 1.246a5.852 5.852 0 0 0-.827 1.881c-.17.718-.254 1.493-.254 2.324Zm13.378-.338-2.099.17c0-1.55.184-2.987.551-4.311.368-1.324.92-2.473 1.654-3.444a7.693 7.693 0 0 1 2.735-2.304c1.103-.55 2.382-.824 3.838-.824 1.074 0 2.05.155 2.926.465.89.31 1.653.81 2.29 1.5.65.69 1.151 1.6 1.505 2.726.353 1.113.53 2.48.53 4.1v14.495H57.16V16.271c0-1-.128-1.761-.382-2.283-.24-.52-.594-.88-1.06-1.077-.453-.197-.997-.296-1.633-.296-.707 0-1.321.148-1.844.444a3.764 3.764 0 0 0-1.315 1.183c-.353.493-.615 1.078-.784 1.754a9.016 9.016 0 0 0-.255 2.197Z"/>
  <path fill="url(#a)" d="M80.758 20.074h-7.76v-5.346h7.76c1.145 0 2.064-.19 2.757-.57.706-.38 1.222-.902 1.547-1.564.34-.676.51-1.437.51-2.282 0-.874-.17-1.684-.51-2.43a4.08 4.08 0 0 0-1.547-1.839c-.693-.465-1.612-.697-2.757-.697H75.5v25.42h-6.912V0h12.17c2.46 0 4.566.444 6.318 1.331 1.767.888 3.117 2.106 4.05 3.656.947 1.535 1.42 3.296 1.42 5.282 0 1.987-.473 3.712-1.42 5.177-.933 1.465-2.283 2.606-4.05 3.423-1.752.803-3.858 1.205-6.318 1.205Z"/>
  <path fill="url(#b)" d="M108.3 25.314V15.51c0-.69-.106-1.282-.318-1.775a2.505 2.505 0 0 0-.997-1.162c-.452-.282-1.039-.423-1.76-.423-.607 0-1.138.106-1.59.317a2.367 2.367 0 0 0-1.018.909c-.226.394-.339.88-.339 1.458h-6.615c0-1.029.233-1.987.7-2.874.466-.888 1.13-1.67 1.993-2.346.876-.676 1.922-1.197 3.138-1.563 1.215-.38 2.579-.57 4.092-.57 1.795 0 3.392.302 4.791.908 1.414.591 2.53 1.486 3.35 2.683.82 1.184 1.23 2.677 1.23 4.48v9.572c0 1.38.078 2.465.233 3.254.17.775.41 1.451.721 2.029v.359h-6.679c-.311-.662-.544-1.48-.699-2.451a19.171 19.171 0 0 1-.233-3Zm.826-8.494.043 3.634h-3.286c-.735 0-1.372.092-1.909.275-.523.183-.947.437-1.272.76-.325.31-.565.677-.721 1.1-.141.408-.212.859-.212 1.352 0 .465.113.887.34 1.268.226.366.537.655.932.866.396.211.856.317 1.379.317.862 0 1.597-.17 2.205-.507.622-.338 1.102-.747 1.441-1.226.34-.493.509-.95.509-1.373l1.59 2.747a16.29 16.29 0 0 1-.933 1.754 8.029 8.029 0 0 1-1.399 1.669c-.565.507-1.251.923-2.056 1.247-.792.324-1.746.486-2.863.486-1.441 0-2.749-.29-3.922-.867-1.173-.591-2.113-1.401-2.82-2.43-.692-1.028-1.039-2.211-1.039-3.55 0-1.197.22-2.26.657-3.19.439-.93 1.096-1.719 1.972-2.367.89-.648 2.007-1.134 3.35-1.458 1.343-.338 2.912-.507 4.707-.507h3.307Z"/>
  <path fill="url(#c)" d="m125.876 28.125 6-20.222H139l-9.223 26.286a14.145 14.145 0 0 1-.806 1.86 7.9 7.9 0 0 1-1.335 1.901c-.551.606-1.258 1.1-2.12 1.48-.863.38-1.923.57-3.181.57-.636 0-1.131-.035-1.484-.106a18.494 18.494 0 0 1-1.357-.295l-.021-4.797h.488c.155.014.311.021.466.021.792 0 1.428-.084 1.908-.254.495-.169.877-.422 1.145-.76.283-.324.509-.74.679-1.247l1.717-4.437Zm-2.014-20.222 4.749 16.27.806 6.995-4.474.232-8.205-23.497h7.124Z"/>
  <defs>
    <linearGradient id="a" x1="99.192" x2="99.192" y1="0" y2="40.077" gradientUnits="userSpaceOnUse">
      <stop stop-color="#2792F4"/>
      <stop offset="1" stop-color="#7170E5"/>
    </linearGradient>
    <linearGradient id="b" x1="99.192" x2="99.192" y1="0" y2="40.077" gradientUnits="userSpaceOnUse">
      <stop stop-color="#2792F4"/>
      <stop offset="1" stop-color="#7170E5"/>
    </linearGradient>
    <linearGradient id="c" x1="99.192" x2="99.192" y1="0" y2="40.077" gradientUnits="userSpaceOnUse">
      <stop stop-color="#2792F4"/>
      <stop offset="1" stop-color="#7170E5"/>
    </linearGradient>
  </defs>
</svg>
