<svg xmlns="http://www.w3.org/2000/svg" width="178" height="70" fill="none"><rect width="177" height="69" x=".5" y=".5" stroke="#363636" rx="34.5"/><path fill="#C1B9B9" d="M79.95 42V27.781h2.285l4.209 10.82c.078.202.15.41.215.626.071.208.133.413.185.615h.078c.046-.202.101-.407.166-.615.072-.215.147-.424.225-.625l4.209-10.82h2.295V42h-1.71V30.936a6.68 6.68 0 0 1 .05-.674h-.069c-.039.201-.1.426-.185.674a11.31 11.31 0 0 1-.235.673L87.635 42h-1.543L82.04 31.61a10.22 10.22 0 0 1-.235-.684 6.123 6.123 0 0 1-.166-.664h-.078c.02.182.032.403.039.664.013.254.02.482.02.683V42h-1.67Zm15.718-2.959c0-1.016.4-1.81 1.201-2.383.807-.573 1.84-.86 3.096-.86h2.305v-.732c0-.618-.163-1.116-.489-1.494-.319-.377-.862-.566-1.631-.566-.774 0-1.334.16-1.68.478-.338.313-.507.687-.507 1.123v.078h-1.71v-.097c0-.794.353-1.485 1.056-2.07.71-.593 1.67-.89 2.88-.89 1.205 0 2.136.287 2.793.86.664.567.997 1.426.997 2.578v4.59c0 .423.032.824.097 1.201.065.371.156.7.274.987V42h-1.651a3.203 3.203 0 0 1-.254-.635 4.1 4.1 0 0 1-.136-.781c-.241.417-.629.788-1.163 1.113-.527.326-1.21.488-2.05.488-.964 0-1.778-.27-2.442-.81-.657-.54-.986-1.318-.986-2.334Zm1.709-.088c0 .586.17 1.042.508 1.367.345.326.869.489 1.572.489.716 0 1.364-.244 1.943-.733.58-.495.87-1.022.87-1.582V37.04h-2.11c-.918 0-1.611.173-2.08.518-.469.345-.703.81-.703 1.396ZM106.211 42V27.107h1.709V42h-1.709Zm3.433-2.959c0-1.016.4-1.81 1.201-2.383.807-.573 1.839-.86 3.096-.86h2.304v-.732c0-.618-.162-1.116-.488-1.494-.319-.377-.863-.566-1.631-.566-.775 0-1.334.16-1.68.478-.338.313-.507.687-.507 1.123v.078h-1.709v-.097c0-.794.351-1.485 1.054-2.07.71-.593 1.67-.89 2.881-.89 1.205 0 2.136.287 2.793.86.664.567.996 1.426.996 2.578v4.59c0 .423.033.824.098 1.201.065.371.156.7.273.987V42h-1.65a3.203 3.203 0 0 1-.254-.635 4.103 4.103 0 0 1-.137-.781c-.241.417-.628.788-1.162 1.113-.527.326-1.211.488-2.051.488-.963 0-1.777-.27-2.441-.81-.657-.54-.986-1.318-.986-2.334Zm1.709-.088c0 .586.169 1.042.508 1.367.345.326.869.489 1.572.489.716 0 1.364-.244 1.943-.733.58-.495.869-1.022.869-1.582V37.04h-2.109c-.918 0-1.611.173-2.08.518-.469.345-.703.81-.703 1.396Zm7.661 7.11v-1.456c.17.053.355.092.557.118.202.032.4.048.596.048.456 0 .849-.182 1.181-.546.332-.365.687-1.117 1.065-2.256l-3.77-10.059h1.67l2.432 6.738c.091.254.172.492.244.713.072.222.134.43.186.625h.058c.052-.195.114-.403.186-.625.078-.221.159-.459.244-.713l2.295-6.738h1.631l-4.141 11.455c-.332.925-.755 1.638-1.269 2.139-.515.501-1.153.752-1.915.752-.26 0-.488-.017-.683-.049a3.323 3.323 0 0 1-.567-.147Zm8.775-7.061h1.719v.078c0 .599.215 1.048.645 1.348.429.293.999.44 1.709.44.716 0 1.279-.14 1.689-.42.41-.287.615-.662.615-1.124 0-.462-.169-.814-.507-1.054-.332-.248-1.039-.502-2.12-.762-1.087-.26-1.943-.619-2.568-1.074-.625-.463-.937-1.107-.937-1.934 0-.833.338-1.52 1.015-2.06.684-.54 1.595-.811 2.735-.811 1.139 0 2.057.27 2.753.81.697.54 1.045 1.28 1.045 2.217v.069h-1.709v-.098c0-.508-.172-.899-.517-1.172-.345-.273-.869-.41-1.572-.41-.704 0-1.221.127-1.553.38-.332.255-.498.584-.498.987 0 .39.185.703.556.938.372.227 1.097.472 2.178.732s1.914.628 2.5 1.103c.593.47.889 1.146.889 2.032 0 .898-.332 1.634-.996 2.207-.664.573-1.66.86-2.989.86-1.334 0-2.35-.29-3.046-.87-.69-.58-1.036-1.357-1.036-2.334v-.078ZM137.541 42V31.912h1.709V42h-1.709Zm-.225-13.242c0-.293.092-.537.274-.733.189-.201.456-.302.801-.302.351 0 .618.1.8.302.189.196.284.44.284.733 0 .3-.095.55-.284.752-.182.195-.449.293-.8.293-.345 0-.612-.101-.801-.303a1.069 1.069 0 0 1-.274-.742Zm3.678 10.283c0-1.016.4-1.81 1.201-2.383.807-.573 1.839-.86 3.096-.86h2.304v-.732c0-.618-.162-1.116-.488-1.494-.319-.377-.863-.566-1.631-.566-.775 0-1.334.16-1.68.478-.338.313-.507.687-.507 1.123v.078h-1.709v-.097c0-.794.351-1.485 1.054-2.07.71-.593 1.67-.89 2.881-.89 1.205 0 2.136.287 2.793.86.664.567.996 1.426.996 2.578v4.59c0 .423.033.824.098 1.201.065.371.156.7.273.987V42h-1.65a3.203 3.203 0 0 1-.254-.635 4.103 4.103 0 0 1-.137-.781c-.241.417-.628.788-1.162 1.113-.527.326-1.211.488-2.051.488-.963 0-1.777-.27-2.441-.81-.657-.54-.986-1.318-.986-2.334Zm1.709-.088c0 .586.169 1.042.508 1.367.345.326.869.489 1.572.489.716 0 1.364-.244 1.943-.733.58-.495.869-1.022.869-1.582V37.04h-2.109c-.918 0-1.611.173-2.08.518-.469.345-.703.81-.703 1.396Z"/><g clip-path="url(#a)"><mask id="b" width="40" height="30" x="20" y="20" maskUnits="userSpaceOnUse" style="mask-type:luminance"><path fill="#fff" d="M20 20h40v30H20V20Z"/></mask><g mask="url(#b)"><path fill="#C00" d="M20 20h40v30H20V20Z"/><path fill="#C00" d="M20 20h40v2.144H20V20Z"/><path fill="#fff" d="M20 22.144h40v2.144H20v-2.144Z"/><path fill="#C00" d="M20 24.288h40v2.143H20v-2.143Z"/><path fill="#fff" d="M20 26.431h40v2.131H20v-2.13Z"/><path fill="#C00" d="M20 28.569h40v2.143H20V28.57Z"/><path fill="#fff" d="M20 30.712h40v2.144H20v-2.144Z"/><path fill="#C00" d="M20 32.856h40V35H20v-2.144Z"/><path fill="#fff" d="M20 35h40v2.144H20V35Z"/><path fill="#C00" d="M20 37.144h40v2.144H20v-2.144Z"/><path fill="#fff" d="M20 39.288h40v2.143H20v-2.143Z"/><path fill="#C00" d="M20 41.431h40v2.132H20V41.43Z"/><path fill="#fff" d="M20 43.569h40v2.143H20V43.57Z"/><path fill="#C00" d="M20 45.712h40v2.144H20v-2.144Z"/><path fill="#fff" d="M20 47.856h40V50H20v-2.144Z"/><path fill="#006" d="M20 20.031h20v17.144H20V20.031Z"/><path fill="#FC0" d="m32.969 24.613.375 2.543 1.437-2.125-.775 2.45 2.22-1.3-1.757 1.875 2.562-.2-2.393.925 2.393.925-2.562-.2 1.756 1.875-2.219-1.3.77 2.457-1.438-2.132-.375 2.544-.37-2.544-1.437 2.125.775-2.45-2.218 1.3 1.75-1.875-2.563.2 2.4-.925-2.394-.925 2.563.2-1.756-1.875 2.218 1.3-.775-2.456 1.438 2.131.375-2.543Zm-2.081.106a4.445 4.445 0 0 0-4.228 7.79 4.443 4.443 0 0 0 4.228.335 4.999 4.999 0 0 1-7.182-1.456 5 5 0 0 1 7.182-6.67Z"/></g></g><defs><clipPath id="a"><rect width="40" height="30" x="20" y="20" fill="#fff" rx="15"/></clipPath></defs></svg>