<svg xmlns="http://www.w3.org/2000/svg" width="192" height="70" fill="none"><rect width="191" height="69" x=".5" y=".5" stroke="#363636" rx="34.5"/><path fill="#C1B9B9" d="M79.08 42V27.781h4.56c1.53 0 2.702.394 3.516 1.182.814.781 1.221 1.816 1.221 3.105 0 1.29-.407 2.334-1.22 3.135-.815.794-1.986 1.191-3.516 1.191h-2.793V42H79.08Zm1.768-7.07h2.793c1.1 0 1.868-.277 2.304-.83.443-.56.664-1.237.664-2.032 0-.794-.221-1.461-.664-2.002-.436-.546-1.204-.82-2.304-.82h-2.793v5.684ZM89.68 42V27.107h1.71v6.065a3.727 3.727 0 0 1 1.357-1.055 4.125 4.125 0 0 1 1.816-.4c.944 0 1.716.286 2.315.86.599.572.898 1.536.898 2.89V42h-1.709v-6.543c0-.82-.186-1.406-.557-1.758-.364-.358-.885-.537-1.562-.537-.573 0-1.08.156-1.524.469a3.22 3.22 0 0 0-1.035 1.21V42h-1.709Zm10.309 0V31.912h1.708V42H99.99Zm-.225-13.242c0-.293.091-.537.273-.733.189-.201.456-.302.801-.302.352 0 .619.1.801.302.189.196.283.44.283.733 0 .3-.094.55-.283.752-.182.195-.449.293-.801.293-.345 0-.612-.101-.801-.303a1.068 1.068 0 0 1-.273-.742ZM104.077 42V27.107h1.709V42h-1.709Zm4.087 0V31.912h1.709V42h-1.709Zm-.224-13.242c0-.293.091-.537.273-.733.189-.201.456-.302.801-.302.352 0 .619.1.801.302.189.196.283.44.283.733 0 .3-.094.55-.283.752-.182.195-.449.293-.801.293-.345 0-.612-.101-.801-.303a1.068 1.068 0 0 1-.273-.742Zm4.244 17.344v-14.19h1.552l.069 1.328h.049c.26-.423.657-.781 1.191-1.074.54-.3 1.162-.45 1.865-.45 1.276 0 2.295.476 3.057 1.427.762.95 1.142 2.164 1.142 3.642v.313c0 1.484-.38 2.705-1.142 3.662-.762.957-1.781 1.435-3.057 1.435-.709 0-1.315-.127-1.816-.38a3.461 3.461 0 0 1-1.201-1.016v5.303h-1.709Zm1.709-7.07c.201.455.53.862.986 1.22.456.351 1.009.527 1.66.527.97 0 1.68-.351 2.129-1.054.456-.71.684-1.586.684-2.627v-.313c0-1.041-.228-1.91-.684-2.607-.449-.703-1.159-1.055-2.129-1.055-.651 0-1.204.18-1.66.537-.456.358-.785.762-.986 1.211v4.16Zm8.823 7.07v-14.19h1.553l.069 1.328h.048c.261-.423.658-.781 1.192-1.074.54-.3 1.162-.45 1.865-.45 1.276 0 2.295.476 3.057 1.427.761.95 1.142 2.164 1.142 3.642v.313c0 1.484-.381 2.705-1.142 3.662-.762.957-1.781 1.435-3.057 1.435-.71 0-1.315-.127-1.816-.38a3.465 3.465 0 0 1-1.202-1.016v5.303h-1.709Zm1.709-7.07c.202.455.531.862.987 1.22.455.351 1.009.527 1.66.527.97 0 1.68-.351 2.129-1.054.456-.71.683-1.586.683-2.627v-.313c0-1.041-.227-1.91-.683-2.607-.449-.703-1.159-1.055-2.129-1.055-.651 0-1.205.18-1.66.537-.456.358-.785.762-.987 1.211v4.16ZM133.337 42V31.912h1.709V42h-1.709Zm-.225-13.242c0-.293.092-.537.274-.733.189-.201.456-.302.801-.302.351 0 .618.1.8.302.189.196.284.44.284.733 0 .3-.095.55-.284.752-.182.195-.449.293-.8.293-.345 0-.612-.101-.801-.303a1.069 1.069 0 0 1-.274-.742ZM137.356 42V31.912h1.553l.068 1.309h.049a3.923 3.923 0 0 1 1.338-1.104 3.918 3.918 0 0 1 1.777-.4c1.01 0 1.814.286 2.413.86.598.572.898 1.536.898 2.89V42h-1.709v-6.543c0-.82-.186-1.406-.557-1.758-.364-.358-.885-.537-1.562-.537-.573 0-1.081.156-1.524.469-.442.312-.787.72-1.035 1.22V42h-1.709Zm9.605-4.893v-.312c0-1.523.414-2.764 1.241-3.72.833-.964 1.93-1.446 3.291-1.446 1.367 0 2.415.45 3.144 1.348.736.892 1.104 2.109 1.104 3.652v.693h-7.735v-1.367h6.016v-.215c0-.742-.208-1.377-.625-1.904-.417-.534-1.029-.8-1.836-.8-.957 0-1.673.36-2.149 1.083-.468.723-.703 1.615-.703 2.676v.312c0 1.062.248 1.953.743 2.676.501.723 1.272 1.084 2.314 1.084.645 0 1.198-.14 1.66-.42.469-.28.847-.615 1.133-1.006l1.103.89c-.312.474-.8.92-1.464 1.337-.664.41-1.475.615-2.432.615-1.549 0-2.738-.478-3.564-1.435-.827-.964-1.241-2.21-1.241-3.74Zm9.713 1.895h1.719v.078c0 .599.214 1.048.644 1.348.43.293.999.44 1.709.44.716 0 1.279-.14 1.69-.42.41-.287.615-.662.615-1.124 0-.462-.169-.814-.508-1.054-.332-.248-1.038-.502-2.119-.762-1.087-.26-1.944-.619-2.569-1.074-.625-.463-.937-1.107-.937-1.934 0-.833.339-1.52 1.016-2.06.683-.54 1.595-.811 2.734-.811s2.057.27 2.754.81c.696.54 1.045 1.28 1.045 2.217v.069h-1.709v-.098c0-.508-.173-.899-.518-1.172-.345-.273-.869-.41-1.572-.41-.703 0-1.221.127-1.553.38-.332.255-.498.584-.498.987 0 .39.186.703.557.938.371.227 1.097.472 2.178.732 1.08.26 1.914.628 2.5 1.103.592.47.888 1.146.888 2.032 0 .898-.332 1.634-.996 2.207-.664.573-1.66.86-2.988.86-1.335 0-2.35-.29-3.047-.87-.69-.58-1.035-1.357-1.035-2.334v-.078Z"/><g clip-path="url(#a)"><path fill="#0038A8" d="M20 20h40v15H20V20Z"/><path fill="#CE1126" d="M20 35h40v15H20V35Z"/><path fill="#fff" d="M45.981 35 20 50V20"/><path fill="#FCD116" d="m21.669 22.65.893.788 1.038-.575-.463 1.093.875.813-1.187-.1-.506 1.075-.269-1.157-1.175-.15 1.019-.625-.225-1.162Zm20.237 10.769.025 1.187 1.125.394-1.125.388-.025 1.187-.718-.944-1.138.344.675-.975-.675-.975 1.138.344.718-.95ZM22.325 44.256l.5 1.075 1.188-.1-.87.813.463 1.094-1.037-.57-.9.776.225-1.169-1.019-.612 1.181-.15.269-1.157Zm7.137-15.562-.387.387.194 2.938-.188.019-.356-2.682-.319.313.475 2.4c-.384.075-.75.226-1.075.444l-1.356-2.025H26l1.65 2.143c-.051.04-.101.082-.15.125l-1.944-2.218h-.55v.55l2.213 1.937-.125.156-2.144-1.643v.443l2.031 1.356a3.015 3.015 0 0 0-.444 1.075l-2.393-.474-.319.312 2.681.356a1.025 1.025 0 0 0-.018.194l-2.938-.188-.387.388.387.388 2.938-.194.018.194-2.681.356.313.312 2.4-.475c.075.384.226.75.443 1.075l-2.031 1.357v.45l2.144-1.644c.04.051.081.101.125.15l-2.213 1.937v.55h.556l1.938-2.212.156.125L26 39.513h.45l1.356-2.032c.319.213.688.369 1.075.444l-.475 2.4.313.313.356-2.682a.97.97 0 0 0 .194.019l-.188 2.938.381.387.394-.387-.194-2.938.188-.019.356 2.688.319-.319-.475-2.4a2.97 2.97 0 0 0 1.075-.444l1.356 2.032h.45l-1.65-2.144a2.99 2.99 0 0 0 .15-.125l1.944 2.212h.55v-.55l-2.212-1.937.124-.15 2.144 1.643v-.45l-2.031-1.356a2.97 2.97 0 0 0 .444-1.075l2.394.475.318-.312-2.681-.356a.97.97 0 0 0 .019-.194l2.937.187.388-.381-.388-.388-2.937.188-.019-.188 2.681-.356-.312-.312-2.4.468a2.97 2.97 0 0 0-.444-1.075l2.031-1.356v-.444l-2.144 1.644a2.937 2.937 0 0 0-.125-.15l2.213-1.937v-.556h-.55l-1.938 2.218a2.98 2.98 0 0 0-.156-.125l1.65-2.143h-.45l-1.356 2.025a2.97 2.97 0 0 0-1.075-.444l.475-2.394-.313-.313-.356 2.676-.194-.02.188-2.937-.388-.387Z"/></g><defs><clipPath id="a"><rect width="40" height="30" x="20" y="20" fill="#fff" rx="15"/></clipPath></defs></svg>