<svg xmlns="http://www.w3.org/2000/svg" width="72" height="31" fill="none"><g clip-path="url(#a)"><path fill="#fff" d="M.991 29.39v-2.492h1.853v.422H1.496v.552H2.75v.42H1.496v.678h1.396v.42h-1.9ZM3.34 26.898h.48v.442h-.48v-.442Zm0 .687h.48v1.805h-.48v-1.805ZM5.98 29.39h-.478v-.921c0-.195-.01-.321-.03-.379a.266.266 0 0 0-.267-.18.383.383 0 0 0-.223.068.341.341 0 0 0-.135.18c-.025.075-.037.213-.037.414v.818h-.479v-1.805h.445v.265a.727.727 0 0 1 .597-.306c.105 0 .201.019.289.057a.487.487 0 0 1 .199.146.523.523 0 0 1 .093.2c.018.075.027.182.027.322v1.121ZM6.968 26.898v.916c.154-.18.339-.27.554-.27.11 0 .21.02.298.061a.489.489 0 0 1 .292.368c.016.077.025.196.025.358v1.06h-.479v-.954c0-.19-.009-.31-.027-.361a.238.238 0 0 0-.097-.121.31.31 0 0 0-.173-.045c-.08 0-.15.019-.212.057a.337.337 0 0 0-.138.175 1.046 1.046 0 0 0-.043.344v.904h-.48v-2.492h.48ZM9.695 28.816l.477.08a.783.783 0 0 1-.29.398.857.857 0 0 1-.497.137c-.315 0-.548-.103-.7-.308a1.03 1.03 0 0 1-.178-.622c0-.299.078-.533.235-.703a.775.775 0 0 1 .595-.254c.27 0 .482.089.637.266.156.178.23.45.224.815h-1.2a.483.483 0 0 0 .116.33.363.363 0 0 0 .276.119c.075 0 .138-.02.189-.061a.378.378 0 0 0 .116-.197Zm.027-.483c-.003-.139-.039-.243-.107-.315a.33.33 0 0 0-.249-.108.334.334 0 0 0-.26.114.441.441 0 0 0-.1.309h.716ZM10.612 26.898h.48v.442h-.48v-.442Zm0 .687h.48v1.805h-.48v-1.805ZM12.437 27.585v.38h-.328v.728c0 .147.003.234.01.258l.042.06.081.024a.623.623 0 0 0 .193-.046l.04.37a.96.96 0 0 1-.378.072.596.596 0 0 1-.233-.044.338.338 0 0 1-.153-.111.446.446 0 0 1-.067-.187 2.356 2.356 0 0 1-.015-.336v-.787h-.22v-.381h.22v-.359l.48-.279v.638h.328ZM12.793 26.898h.479v2.492h-.479v-2.492ZM13.788 26.898h.479v.442h-.48v-.442Zm0 .687h.479v1.805h-.48v-1.805ZM16.36 28.119l-.472.085a.343.343 0 0 0-.109-.213.328.328 0 0 0-.218-.071.36.36 0 0 0-.286.123c-.07.082-.107.22-.107.412 0 .214.037.366.109.454a.355.355 0 0 0 .29.132.323.323 0 0 0 .223-.076c.058-.052.1-.14.123-.267l.47.08c-.048.216-.142.378-.28.488-.14.11-.325.165-.558.165-.265 0-.476-.084-.633-.25-.157-.166-.236-.397-.236-.692 0-.298.079-.53.237-.696.158-.166.371-.25.64-.25.22 0 .396.048.526.143.13.095.224.239.28.433ZM17.224 26.898v.916c.154-.18.34-.27.554-.27.11 0 .21.02.298.061a.489.489 0 0 1 .292.368c.017.077.025.196.025.358v1.06h-.479v-.954c0-.19-.009-.31-.027-.361a.238.238 0 0 0-.096-.121.31.31 0 0 0-.173-.045c-.08 0-.151.019-.213.057a.334.334 0 0 0-.138.175 1.045 1.045 0 0 0-.043.344v.904h-.479v-2.492h.48ZM19.951 28.816l.477.08a.783.783 0 0 1-.29.398.857.857 0 0 1-.497.137c-.315 0-.548-.103-.699-.308-.119-.164-.178-.371-.178-.622 0-.299.078-.533.235-.703a.775.775 0 0 1 .594-.254c.27 0 .482.089.638.266.155.178.23.45.223.815h-1.2a.483.483 0 0 0 .116.33.363.363 0 0 0 .276.119c.075 0 .138-.02.19-.061a.379.379 0 0 0 .115-.197Zm.028-.483c-.004-.139-.04-.243-.108-.315a.33.33 0 0 0-.248-.108.334.334 0 0 0-.26.114.44.44 0 0 0-.1.309h.716ZM21.327 29.39h-.479v-1.805h.445v.257a.771.771 0 0 1 .205-.24.376.376 0 0 1 .208-.058c.109 0 .214.03.315.09l-.149.417a.418.418 0 0 0-.224-.079.267.267 0 0 0-.171.056c-.047.036-.083.103-.11.2-.027.096-.04.297-.04.605v.557ZM23.249 29.39v-2.492h1.852v.422h-1.347v.552h1.254v.42h-1.254v.678h1.395v.42h-1.9ZM26.79 29.39v-.27a.73.73 0 0 1-.927.23.47.47 0 0 1-.21-.223.999.999 0 0 1-.065-.4v-1.142h.479v.83c0 .253.009.409.026.466.018.057.05.102.096.136.047.034.106.05.177.05a.379.379 0 0 0 .353-.233c.024-.067.036-.229.036-.488v-.761h.479v1.805h-.445ZM28.213 29.39h-.48v-1.805h.446v.257a.771.771 0 0 1 .205-.24.376.376 0 0 1 .207-.058c.11 0 .214.03.315.09l-.148.417a.417.417 0 0 0-.225-.079.267.267 0 0 0-.17.056c-.047.036-.084.103-.11.2-.027.096-.04.297-.04.605v.557ZM29.026 28.462c0-.159.04-.312.118-.46a.805.805 0 0 1 .333-.34.994.994 0 0 1 .482-.118.904.904 0 0 1 .935.939.93.93 0 0 1-.265.679c-.177.179-.4.269-.667.269-.166 0-.324-.038-.474-.112a.767.767 0 0 1-.344-.33 1.092 1.092 0 0 1-.118-.527Zm.491.026c0 .178.043.316.128.41.085.096.19.144.315.144s.23-.048.315-.143c.084-.095.127-.233.127-.415 0-.177-.043-.313-.127-.408a.405.405 0 0 0-.315-.143.407.407 0 0 0-.315.143c-.085.096-.128.232-.128.412ZM31.239 28.248h.94v.478h-.94v-.478ZM32.267 29.39v-.453l1.312-1.617h-1.163v-.422h1.828v.391l-1.368 1.681h1.42v.42h-2.029ZM34.994 28.136l-.434-.079a.673.673 0 0 1 .252-.387c.12-.084.296-.126.532-.126.213 0 .372.025.477.076.104.05.178.114.22.192.043.078.064.22.064.427l-.005.558c0 .159.008.276.023.35.016.076.044.157.086.243h-.473a1.728 1.728 0 0 1-.046-.14l-.018-.057a.763.763 0 0 1-.56.238c-.187 0-.333-.05-.44-.151a.502.502 0 0 1-.162-.383c0-.102.025-.192.073-.273a.48.48 0 0 1 .206-.183c.088-.043.215-.08.38-.111a2.62 2.62 0 0 0 .466-.118v-.048c0-.091-.023-.157-.068-.196-.046-.039-.131-.058-.258-.058a.34.34 0 0 0-.199.05.347.347 0 0 0-.116.176Zm.64.387c-.06.02-.158.045-.29.074a.89.89 0 0 0-.261.082.2.2 0 0 0-.094.169c0 .067.025.125.075.173a.26.26 0 0 0 .191.073.413.413 0 0 0 .247-.085.295.295 0 0 0 .114-.158.927.927 0 0 0 .019-.232v-.096ZM37.08 26.898v.916a.706.706 0 0 1 .553-.27c.11 0 .21.02.298.061a.49.49 0 0 1 .292.368c.017.077.025.196.025.358v1.06h-.479v-.954c0-.19-.01-.31-.027-.361a.237.237 0 0 0-.096-.121.311.311 0 0 0-.173-.045c-.08 0-.151.019-.214.057a.336.336 0 0 0-.137.175c-.029.077-.043.192-.043.344v.904H36.6v-2.492h.48ZM38.758 26.898h.479v2.492h-.48v-2.492ZM40.944 29.39v-.27a.73.73 0 0 1-.927.23.472.472 0 0 1-.21-.223 1.005 1.005 0 0 1-.065-.4v-1.142h.479v.83c0 .253.009.409.026.466.017.057.05.102.096.136.047.034.106.05.178.05a.38.38 0 0 0 .22-.067.346.346 0 0 0 .133-.166c.023-.067.035-.229.035-.488v-.761h.48v1.805h-.446ZM43.555 29.39h-.479v-.921c0-.195-.01-.321-.03-.379a.267.267 0 0 0-.266-.18.385.385 0 0 0-.224.068.343.343 0 0 0-.135.18c-.025.075-.037.213-.037.414v.818h-.479v-1.805h.445v.265a.726.726 0 0 1 .596-.306c.106 0 .203.019.29.057a.49.49 0 0 1 .199.146.532.532 0 0 1 .093.2c.018.075.027.182.027.322v1.121ZM44.02 29.51l.547.066c.01.063.03.107.063.13.046.035.117.051.215.051a.554.554 0 0 0 .281-.056.228.228 0 0 0 .096-.12.733.733 0 0 0 .022-.22v-.263c-.143.195-.324.292-.542.292a.667.667 0 0 1-.578-.308 1.045 1.045 0 0 1-.166-.605c0-.302.072-.533.218-.694a.709.709 0 0 1 .545-.24c.224 0 .409.1.554.295v-.253h.448v1.62c0 .213-.018.372-.053.478a.598.598 0 0 1-.148.248.658.658 0 0 1-.255.141c-.106.034-.24.05-.403.05-.307 0-.524-.052-.653-.157a.492.492 0 0 1-.192-.398l.002-.058Zm.428-1.06c0 .192.037.332.112.421a.346.346 0 0 0 .275.134.381.381 0 0 0 .296-.137c.081-.092.121-.227.121-.406 0-.187-.038-.325-.116-.416a.368.368 0 0 0-.293-.136.354.354 0 0 0-.283.133c-.075.089-.112.225-.112.407ZM46.053 28.875l.48-.073a.35.35 0 0 0 .125.212c.062.048.15.072.262.072a.477.477 0 0 0 .28-.068.153.153 0 0 0 .063-.128l-.035-.09a.383.383 0 0 0-.16-.063c-.386-.084-.63-.162-.734-.232a.466.466 0 0 1-.215-.407.5.5 0 0 1 .186-.394c.124-.107.316-.16.576-.16.248 0 .432.04.552.121.12.08.204.2.249.357l-.452.083a.277.277 0 0 0-.11-.161.4.4 0 0 0-.23-.057.522.522 0 0 0-.272.053l-.054.097.048.087c.043.032.192.076.447.134.255.058.433.129.534.212.1.085.15.204.15.356 0 .165-.069.307-.208.426-.138.12-.343.179-.615.179-.246 0-.441-.05-.585-.15a.689.689 0 0 1-.282-.406ZM48.684 29.39l-.729-1.805h.503l.34.921.1.308.049-.155.05-.153.345-.921h.493l-.72 1.805h-.43ZM51.2 28.816l.477.08a.783.783 0 0 1-.29.398.856.856 0 0 1-.497.137c-.315 0-.548-.103-.699-.308-.119-.164-.178-.371-.178-.622 0-.299.078-.533.234-.703a.776.776 0 0 1 .595-.254c.27 0 .482.089.638.266.155.178.23.45.223.815h-1.2a.481.481 0 0 0 .116.33.363.363 0 0 0 .276.119c.075 0 .138-.02.19-.061a.378.378 0 0 0 .115-.197Zm.028-.483c-.004-.139-.04-.243-.108-.315a.329.329 0 0 0-.248-.108.332.332 0 0 0-.26.114.44.44 0 0 0-.1.309h.716ZM52.576 29.39h-.479v-1.805h.445v.257a.77.77 0 0 1 .205-.24.375.375 0 0 1 .207-.058c.11 0 .215.03.316.09l-.149.417a.418.418 0 0 0-.224-.079.267.267 0 0 0-.171.056c-.047.036-.083.103-.11.2-.027.096-.04.297-.04.605v.557ZM53.483 29.39v-2.492h.48v1.323l.56-.636h.59l-.619.66.663 1.145h-.516l-.455-.81-.224.232v.578h-.479ZM56.514 28.816l.477.08a.78.78 0 0 1-.29.398.858.858 0 0 1-.497.137c-.315 0-.548-.103-.7-.308a1.03 1.03 0 0 1-.178-.622c0-.299.078-.533.235-.703a.775.775 0 0 1 .595-.254c.27 0 .482.089.637.266.156.178.23.45.223.815h-1.2a.486.486 0 0 0 .116.33.363.363 0 0 0 .277.119c.075 0 .138-.02.189-.061a.378.378 0 0 0 .116-.197Zm.027-.483c-.003-.139-.04-.243-.107-.315a.33.33 0 0 0-.25-.108.332.332 0 0 0-.258.114.441.441 0 0 0-.1.309h.715ZM57.909 26.898v.916a.706.706 0 0 1 .553-.27c.11 0 .21.02.299.061a.489.489 0 0 1 .292.368c.016.077.025.196.025.358v1.06h-.48v-.954c0-.19-.009-.31-.026-.361a.237.237 0 0 0-.097-.121.311.311 0 0 0-.173-.045c-.08 0-.15.019-.213.057a.336.336 0 0 0-.137.175c-.03.077-.043.192-.043.344v.904h-.48v-2.492h.48ZM60.046 29.39h-.48v-1.805h.446v.257a.772.772 0 0 1 .205-.24.376.376 0 0 1 .207-.058c.109 0 .214.03.315.09l-.148.417a.418.418 0 0 0-.225-.079.267.267 0 0 0-.17.056c-.047.036-.084.103-.11.2-.027.096-.04.297-.04.605v.557ZM60.802 28.875l.48-.073c.02.093.062.163.125.212.062.048.15.072.262.072a.476.476 0 0 0 .28-.068.153.153 0 0 0 .063-.128l-.035-.09a.383.383 0 0 0-.16-.063c-.386-.084-.63-.162-.734-.232a.466.466 0 0 1-.215-.407c0-.156.062-.288.186-.394.124-.107.316-.16.576-.16.247 0 .431.04.552.121.12.08.204.2.249.357l-.452.083a.277.277 0 0 0-.11-.161.4.4 0 0 0-.23-.057.522.522 0 0 0-.272.053l-.054.097.048.087c.043.032.192.076.447.134.255.058.433.129.534.212.1.085.15.204.15.356 0 .165-.069.307-.208.426-.138.12-.343.179-.615.179-.247 0-.441-.05-.585-.15a.688.688 0 0 1-.282-.406ZM63.394 29.39h-.479v-1.805h.445v.257a.771.771 0 0 1 .205-.24.376.376 0 0 1 .208-.058c.109 0 .214.03.315.09l-.149.417a.417.417 0 0 0-.224-.079.268.268 0 0 0-.171.056c-.046.036-.083.103-.11.2-.027.096-.04.297-.04.605v.557ZM64.676 28.136l-.434-.079a.678.678 0 0 1 .252-.387c.12-.084.296-.126.532-.126.213 0 .373.025.477.076.104.05.178.114.22.192.043.078.064.22.064.427l-.005.558c0 .159.008.276.023.35.016.076.044.157.086.243h-.473a1.653 1.653 0 0 1-.046-.14l-.017-.057a.865.865 0 0 1-.263.179.763.763 0 0 1-.298.059c-.186 0-.333-.05-.44-.151a.502.502 0 0 1-.162-.383c0-.102.025-.192.074-.273a.476.476 0 0 1 .205-.183c.088-.043.215-.08.381-.111.224-.043.379-.081.465-.118v-.048c0-.091-.022-.157-.068-.196-.045-.039-.131-.058-.257-.058a.341.341 0 0 0-.2.05.346.346 0 0 0-.116.176Zm.641.387c-.061.02-.158.045-.291.074a.89.89 0 0 0-.261.082.2.2 0 0 0-.094.169c0 .067.025.125.075.173.05.05.114.073.191.073a.415.415 0 0 0 .248-.085.3.3 0 0 0 .114-.158.958.958 0 0 0 .018-.232v-.096ZM67.475 29.39v-.27a.73.73 0 0 1-.927.23.47.47 0 0 1-.21-.223.998.998 0 0 1-.065-.4v-1.142h.48v.83c0 .253.008.409.026.466.018.057.05.102.096.136.047.034.106.05.177.05a.379.379 0 0 0 .353-.233c.024-.067.036-.229.036-.488v-.761h.479v1.805h-.445ZM68.404 27.585h.441v.246c.159-.191.347-.287.565-.287a.61.61 0 0 1 .301.071.55.55 0 0 1 .21.216.839.839 0 0 1 .258-.216.634.634 0 0 1 .294-.071.66.66 0 0 1 .338.08c.092.055.16.134.206.238.033.077.05.202.05.374v1.154h-.48V28.36c0-.18-.016-.295-.049-.347-.044-.068-.112-.102-.205-.102-.067 0-.13.02-.189.061a.339.339 0 0 0-.128.179c-.026.079-.039.203-.039.373v.867h-.479v-.989c0-.176-.008-.29-.025-.34a.217.217 0 0 0-.08-.114.255.255 0 0 0-.145-.037c-.074 0-.14.02-.2.06a.325.325 0 0 0-.126.17 1.27 1.27 0 0 0-.039.373v.877h-.479v-1.805ZM.931 23.81l.72-.07c.043.24.131.418.264.53.132.114.311.17.536.17.238 0 .417-.05.538-.15a.45.45 0 0 0 .182-.353.335.335 0 0 0-.077-.221.62.62 0 0 0-.266-.158 8.714 8.714 0 0 0-.592-.16c-.397-.098-.675-.218-.835-.361a.95.95 0 0 1-.337-.736c0-.186.053-.36.158-.522a.99.99 0 0 1 .458-.37c.199-.085.44-.128.72-.128.46 0 .807.101 1.04.302.232.201.354.47.365.806l-.74.032c-.031-.188-.099-.323-.203-.405-.104-.082-.26-.124-.469-.124-.214 0-.383.044-.504.133a.265.265 0 0 0-.118.227c0 .085.036.16.11.221.093.079.32.16.68.244.36.085.626.173.798.264.173.09.308.214.405.37.098.158.146.352.146.583a1.077 1.077 0 0 1-.67.996c-.213.09-.478.134-.797.134-.463 0-.819-.107-1.067-.32-.249-.214-.396-.526-.445-.934ZM4.681 21.344h.702v.648h-.702v-.648Zm0 1.007h.702v2.648h-.702V22.35ZM8.671 24.999H7.97v-1.351c0-.287-.015-.471-.045-.555a.387.387 0 0 0-.39-.266.565.565 0 0 0-.327.1.5.5 0 0 0-.199.264c-.036.11-.054.313-.054.609v1.199h-.702V22.35h.652v.389c.232-.3.524-.449.875-.449.155 0 .297.028.425.084a.718.718 0 0 1 .291.213.78.78 0 0 1 .138.294c.026.11.038.267.038.471V25ZM9.473 25.173l.802.098c.013.093.044.156.092.191.067.05.172.075.315.075.184 0 .321-.027.413-.082a.34.34 0 0 0 .14-.177c.021-.058.032-.165.032-.322v-.386c-.21.286-.475.429-.794.429a.98.98 0 0 1-.848-.451c-.163-.238-.245-.534-.245-.888 0-.444.107-.783.321-1.017.214-.235.48-.352.799-.352.328 0 .599.144.812.432v-.372h.658v2.376c0 .312-.026.546-.078.7a.87.87 0 0 1-.217.365.972.972 0 0 1-.374.207 1.98 1.98 0 0 1-.591.074c-.45 0-.77-.077-.958-.23a.724.724 0 0 1-.282-.585l.003-.085Zm.627-1.553c0 .28.054.487.164.617.109.13.243.196.404.196a.56.56 0 0 0 .434-.2c.118-.134.178-.333.178-.595 0-.275-.057-.478-.17-.611a.542.542 0 0 0-.43-.2.518.518 0 0 0-.416.196c-.11.13-.164.33-.164.597ZM12.818 21.344h.702v3.655h-.702v-3.655ZM15.93 24.156l.7.117c-.09.256-.232.451-.426.585-.194.134-.437.2-.728.2-.462 0-.803-.15-1.025-.45-.175-.242-.262-.546-.262-.913 0-.439.115-.783.345-1.031.23-.249.52-.373.872-.373.395 0 .707.13.935.39.228.26.337.659.327 1.196h-1.76c.006.208.062.37.17.485a.533.533 0 0 0 .405.173c.11 0 .203-.03.278-.09a.555.555 0 0 0 .17-.289Zm.041-.708c-.005-.203-.057-.357-.158-.462a.484.484 0 0 0-.365-.159.49.49 0 0 0-.38.167c-.1.111-.149.263-.147.454h1.05ZM18.975 24.999v-3.655h2.716v.618h-1.977v.81h1.84v.616h-1.84v.995h2.048v.616h-2.787ZM24.284 24.999v-.396a1.07 1.07 0 0 1-1.36.339.69.69 0 0 1-.307-.33c-.063-.141-.095-.336-.095-.586v-1.675h.703v1.217c0 .372.012.6.038.684.026.084.073.15.142.2a.438.438 0 0 0 .26.073.555.555 0 0 0 .517-.343c.035-.097.053-.335.053-.714v-1.117h.702v2.648h-.653ZM26.49 24.999h-.702V22.35h.653v.377c.111-.179.211-.296.3-.352a.555.555 0 0 1 .304-.085c.16 0 .314.044.463.132l-.218.611a.62.62 0 0 0-.33-.114.389.389 0 0 0-.25.08c-.068.055-.122.152-.16.294-.04.14-.06.437-.06.887v.818ZM27.801 23.638c0-.233.058-.458.173-.676.115-.218.277-.384.488-.499a1.45 1.45 0 0 1 .706-.172c.402 0 .731.13.988.39.256.26.385.589.385.987 0 .4-.13.732-.39.995a1.314 1.314 0 0 1-.978.395c-.243 0-.475-.054-.695-.164a1.13 1.13 0 0 1-.504-.482 1.604 1.604 0 0 1-.173-.774Zm.72.037c0 .263.062.463.188.603.125.14.279.21.462.21s.337-.07.461-.21c.124-.14.186-.342.186-.608 0-.26-.062-.459-.186-.599a.594.594 0 0 0-.461-.209.597.597 0 0 0-.462.21c-.126.14-.188.34-.188.603ZM32.825 24.999v-3.655h1.187c.45 0 .743.018.88.054.21.056.386.175.527.358.142.184.212.421.212.712 0 .224-.04.413-.122.566a1.007 1.007 0 0 1-.31.36 1.079 1.079 0 0 1-.385.174 4.257 4.257 0 0 1-.767.052h-.483V25h-.74Zm.74-3.037v1.037h.404c.292 0 .487-.019.585-.057a.488.488 0 0 0 .231-.18.488.488 0 0 0 .084-.284.473.473 0 0 0-.117-.329.512.512 0 0 0-.298-.162 3.587 3.587 0 0 0-.532-.025h-.358ZM36.912 23.159l-.637-.115c.072-.256.195-.445.37-.568.175-.123.435-.185.78-.185.313 0 .546.037.7.111a.696.696 0 0 1 .323.282c.063.114.094.323.094.627l-.008.817c0 .234.012.405.034.516.023.11.065.229.127.355H38a2.543 2.543 0 0 1-.068-.207 1.194 1.194 0 0 0-.025-.082c-.12.116-.248.203-.385.261a1.101 1.101 0 0 1-.437.087c-.274 0-.489-.073-.646-.221a.736.736 0 0 1-.236-.561c0-.15.035-.283.107-.4a.702.702 0 0 1 .301-.27c.129-.062.315-.117.559-.163.328-.061.555-.119.682-.172v-.07c0-.135-.033-.23-.1-.288-.067-.057-.192-.086-.377-.086a.503.503 0 0 0-.293.074.51.51 0 0 0-.17.258Zm.94.568a4.43 4.43 0 0 1-.427.108c-.195.041-.323.082-.383.122a.291.291 0 0 0-.137.247c0 .098.036.182.11.254a.383.383 0 0 0 .28.107.61.61 0 0 0 .362-.125.443.443 0 0 0 .168-.231 1.42 1.42 0 0 0 .027-.342v-.14ZM39.056 22.351h.747l.635 1.88.62-1.88h.727l-.937 2.548-.168.461c-.061.155-.12.273-.176.355a.773.773 0 0 1-.192.198.845.845 0 0 1-.268.118 1.394 1.394 0 0 1-.359.042c-.134 0-.267-.014-.397-.042l-.063-.548c.11.021.21.032.298.032.163 0 .284-.048.362-.143a.997.997 0 0 0 .18-.366l-1.01-2.655ZM42.336 22.351h.647v.362c.232-.281.508-.422.828-.422.17 0 .317.035.442.105.125.07.227.175.307.317.117-.142.243-.247.378-.317a.927.927 0 0 1 .432-.105c.195 0 .36.04.495.118.135.08.236.195.303.348.048.114.072.296.072.55v1.692h-.702v-1.513c0-.263-.024-.433-.073-.51-.065-.099-.165-.149-.3-.149-.098 0-.19.03-.277.09a.497.497 0 0 0-.187.263c-.04.116-.058.298-.058.547V25h-.703v-1.451c0-.258-.012-.424-.037-.499a.316.316 0 0 0-.116-.167.37.37 0 0 0-.214-.055.512.512 0 0 0-.292.087.478.478 0 0 0-.186.252c-.038.11-.057.292-.057.546V25h-.702v-2.648ZM48.63 24.156l.7.117c-.09.256-.232.451-.426.585-.194.134-.437.2-.728.2-.462 0-.803-.15-1.025-.45-.175-.242-.263-.546-.263-.913 0-.439.115-.783.345-1.031.23-.249.52-.373.873-.373.394 0 .706.13.935.39.227.26.337.659.327 1.196h-1.76c.005.208.062.37.17.485a.534.534 0 0 0 .405.173c.11 0 .203-.03.278-.09a.554.554 0 0 0 .17-.289Zm.04-.708c-.004-.203-.057-.357-.157-.462a.484.484 0 0 0-.365-.159.49.49 0 0 0-.38.167c-.1.111-.15.263-.147.454h1.05ZM52.508 24.999h-.702v-1.351c0-.287-.015-.471-.045-.555a.39.39 0 0 0-.146-.196.42.42 0 0 0-.244-.07.565.565 0 0 0-.327.1.5.5 0 0 0-.199.264c-.036.11-.054.313-.054.609v1.199h-.702V22.35h.652v.389c.232-.3.524-.449.875-.449.155 0 .297.028.425.084a.722.722 0 0 1 .291.213.77.77 0 0 1 .137.294c.027.11.04.267.04.471V25ZM54.592 22.351v.558h-.48v1.068c0 .215.004.342.014.377l.062.089a.198.198 0 0 0 .119.034.914.914 0 0 0 .282-.066l.06.543a1.4 1.4 0 0 1-.555.105.887.887 0 0 1-.342-.064.502.502 0 0 1-.224-.165.65.65 0 0 1-.099-.272 3.379 3.379 0 0 1-.022-.494v-1.155h-.322v-.558h.322v-.526l.705-.409v.935h.48ZM54.985 24.243l.705-.107c.03.136.09.24.183.31.091.071.22.106.384.106.182 0 .319-.033.41-.1a.223.223 0 0 0 .093-.186.184.184 0 0 0-.05-.132c-.035-.034-.114-.064-.235-.093-.567-.124-.926-.238-1.077-.341a.682.682 0 0 1-.315-.596c0-.23.09-.422.272-.579.181-.156.463-.234.845-.234.363 0 .633.059.81.177a.909.909 0 0 1 .365.524l-.663.122a.408.408 0 0 0-.161-.237.591.591 0 0 0-.339-.082c-.185 0-.317.025-.397.077a.165.165 0 0 0-.08.142c0 .05.023.093.07.127.063.047.282.113.656.197.374.085.635.189.784.312.146.125.22.298.22.52a.799.799 0 0 1-.305.627c-.203.174-.504.261-.903.261-.361 0-.647-.073-.858-.219a1.01 1.01 0 0 1-.414-.596ZM62.928 24.999h-.805l-.32-.83H60.34l-.303.83h-.785l1.427-3.655h.783l1.467 3.655Zm-1.362-1.446-.505-1.357-.495 1.357h1ZM64.141 24.999h-.702V22.35h.652v.377c.112-.179.212-.296.301-.352a.555.555 0 0 1 .304-.085c.16 0 .314.044.463.132l-.218.611a.621.621 0 0 0-.33-.114.389.389 0 0 0-.25.08c-.068.055-.122.152-.161.294-.04.14-.059.437-.059.887v.818ZM67.152 24.156l.7.117c-.09.256-.232.451-.426.585-.195.134-.437.2-.729.2-.461 0-.803-.15-1.025-.45-.175-.242-.262-.546-.262-.913 0-.439.115-.783.345-1.031.23-.249.52-.373.872-.373.395 0 .707.13.935.39.228.26.338.659.327 1.196h-1.76c.006.208.062.37.17.485a.533.533 0 0 0 .406.173c.11 0 .202-.03.277-.09a.555.555 0 0 0 .17-.289Zm.04-.708c-.005-.203-.057-.357-.157-.462a.484.484 0 0 0-.366-.159.49.49 0 0 0-.38.167c-.1.111-.148.263-.147.454h1.05ZM69.14 23.159l-.637-.115c.071-.256.195-.445.37-.568.174-.123.434-.185.78-.185.312 0 .545.037.7.111.152.074.26.168.323.282.062.114.093.323.093.627l-.007.817c0 .234.011.405.034.516.022.11.064.229.126.355h-.695a2.392 2.392 0 0 1-.067-.207 1.433 1.433 0 0 0-.025-.082c-.12.116-.249.203-.385.261a1.101 1.101 0 0 1-.438.087c-.273 0-.488-.073-.646-.221a.737.737 0 0 1-.236-.561c0-.15.036-.283.107-.4a.705.705 0 0 1 .302-.27c.129-.062.315-.117.558-.163.328-.061.556-.119.682-.172v-.07c0-.135-.032-.23-.1-.288-.066-.057-.192-.086-.377-.086a.505.505 0 0 0-.293.074.51.51 0 0 0-.17.258Zm.94.568c-.09.03-.233.066-.428.108-.195.041-.322.082-.382.122a.291.291 0 0 0-.138.247c0 .098.037.182.11.254a.383.383 0 0 0 .28.107.609.609 0 0 0 .362-.125.44.44 0 0 0 .168-.231c.018-.06.027-.174.027-.342v-.14ZM16.502 6.98H11.7c0-.786-.093-1.314-.277-1.582C11.137 5 10.348 4.8 9.058 4.8c-1.254 0-2.085.115-2.49.344-.406.23-.61.73-.61 1.499 0 .696.18 1.155.54 1.375.259.156.6.247 1.024.275l.969.068c2.076.137 3.372.234 3.889.29 1.641.164 2.831.6 3.57 1.305.58.55.927 1.27 1.037 2.158.065.532.097 1.133.097 1.802 0 1.54-.148 2.668-.442 3.382-.535 1.312-1.736 2.14-3.605 2.488-.783.147-1.98.22-3.592.22-2.69 0-4.563-.159-5.621-.48-1.299-.393-2.156-1.19-2.57-2.389-.23-.667-.345-1.78-.345-3.336h4.802v.398c0 .83.24 1.364.718 1.603.33.164.73.25 1.2.26h1.766c.9 0 1.476-.046 1.724-.138.441-.173.731-.452.87-.838.073-.238.11-.545.11-.92 0-.843-.309-1.355-.924-1.54-.23-.072-1.301-.173-3.212-.301-1.535-.11-2.602-.215-3.198-.317-1.572-.293-2.62-.896-3.143-1.812-.46-.778-.69-1.956-.69-3.531 0-1.2.125-2.161.373-2.884.248-.724.649-1.273 1.201-1.65.81-.576 1.846-.915 3.107-1.016A40.427 40.427 0 0 1 9.106.978c2.015 0 3.452.116 4.308.345 2.09.56 3.134 2.129 3.134 4.707 0 .211-.015.527-.046.95ZM37.619 20.008V.878h9.616c1.32 0 2.326.106 3.018.321 1.581.495 2.642 1.507 3.186 3.036.28.803.421 2.012.421 3.626 0 1.94-.156 3.335-.464 4.184-.617 1.68-1.886 2.646-3.803 2.897-.226.038-1.185.071-2.879.098l-.856.029H42.78v4.939H37.62Zm5.161-9.377h3.218c1.02-.037 1.641-.115 1.864-.238.305-.167.51-.502.612-1.004.065-.335.098-.832.098-1.492 0-.81-.065-1.41-.195-1.801-.186-.549-.63-.883-1.334-1.004-.14-.019-.473-.029-1.002-.029h-3.26v5.568ZM64.878 16.702h-6.901l-.928 3.306h-5.34L57.472.878h7.786l5.833 19.13h-5.228l-.985-3.306Zm-1.025-3.727-2.419-8.293-2.346 8.293h4.765Z"/><path fill="#E5E5E5" d="M30.494 3.569c2.129 0 4.03.978 5.278 2.51l1.113-2.38a9.767 9.767 0 0 0-6.721-2.652c-4.067 0-7.547 2.45-8.974 5.92h-2.17l-1.281 2.739h2.79a9.283 9.283 0 0 0-.034.768c0 .313.017.624.048.93H19.14l-1.28 2.741h3.396c1.469 3.38 4.905 5.754 8.908 5.754 2.018 0 3.89-.603 5.44-1.633v-3.359a6.802 6.802 0 0 1-10.8-.762h7.112l1.281-2.74h-9.44a6.894 6.894 0 0 1-.04-1.7H33.99l1.28-2.739H24.606a6.806 6.806 0 0 1 5.89-3.397Z"/><path fill="#fff" d="M30.494 3.65c2.029 0 3.929.905 5.214 2.481l.083.102.056-.119 1.112-2.38.025-.054-.043-.04A9.836 9.836 0 0 0 30.164.965a9.863 9.863 0 0 0-5.523 1.672 9.55 9.55 0 0 0-3.527 4.297l.075-.05h-2.222l-.022.046-1.28 2.74-.056.117h2.92l-.081-.089a9.461 9.461 0 0 0-.035.775c0 .307.016.624.047.939l.082-.09h-1.454l-.022.047-1.282 2.74-.054.117h3.526l-.076-.05c1.532 3.526 5.058 5.804 8.984 5.804a9.873 9.873 0 0 0 5.485-1.646l.036-.024V14.69l-.143.163a6.73 6.73 0 0 1-5.048 2.285 6.715 6.715 0 0 1-5.622-3.038l-.069.127h7.166l.022-.047 1.28-2.74.056-.117h-9.57l.081.07a6.87 6.87 0 0 1-.04-1.679l-.082.074H34.044l.022-.047 1.28-2.74.056-.117H24.604l.072.123a6.754 6.754 0 0 1 5.818-3.356Zm-5.89 3.398h10.668l-.075-.117-1.28 2.74.074-.047H23.642l-.008.074a7.134 7.134 0 0 0 .04 1.72l.012.07H33.197l-.075-.118-1.28 2.74.074-.047H24.65l.084.126a6.876 6.876 0 0 0 5.76 3.113 6.896 6.896 0 0 0 5.172-2.34l-.145-.054v3.358l.036-.068a9.712 9.712 0 0 1-5.393 1.619c-3.86 0-7.327-2.24-8.832-5.705l-.022-.05H17.86l.075.118 1.28-2.74-.074.047H20.633l-.008-.09a9.317 9.317 0 0 1-.048-.923c0-.232.012-.482.035-.761l.007-.089h-2.88l.074.117 1.281-2.74-.074.047h2.225l.02-.05a9.395 9.395 0 0 1 3.468-4.223 9.703 9.703 0 0 1 5.43-1.645c2.5 0 4.866.934 6.665 2.63l-.019-.095-1.111 2.38.138-.018a6.87 6.87 0 0 0-5.342-2.54 6.92 6.92 0 0 0-5.961 3.438l-.072.123h.143Z"/></g><defs><clipPath id="a"><path fill="#fff" d="M0 0h72v31H0z"/></clipPath></defs></svg>