<svg xmlns="http://www.w3.org/2000/svg" width="208" height="70" fill="none"><rect width="207" height="69" x=".5" y=".5" fill="#fff" stroke="#363636" rx="34.5"/><path fill="#000" d="M80.272 38.123v-.185h1.767v.185c0 .886.287 1.55.86 1.992.579.436 1.383.654 2.412.654 1.035 0 1.826-.224 2.373-.673.547-.456.82-1.048.82-1.778 0-.67-.264-1.204-.791-1.601-.52-.397-1.51-.814-2.969-1.25-1.504-.456-2.578-.98-3.222-1.572-.639-.593-.958-1.449-.958-2.569 0-1.094.41-2.005 1.23-2.734.821-.73 1.964-1.094 3.429-1.094 1.451 0 2.607.38 3.466 1.143.866.761 1.3 1.741 1.3 2.94v.165H88.22v-.166c0-.775-.254-1.396-.762-1.865-.501-.469-1.247-.703-2.236-.703-1.003 0-1.739.205-2.207.615-.47.404-.704.957-.704 1.66 0 .632.241 1.133.723 1.504.482.365 1.465.768 2.95 1.211 1.49.436 2.574.976 3.251 1.621.677.638 1.016 1.537 1.016 2.695 0 1.16-.443 2.11-1.328 2.852-.886.742-2.09 1.113-3.614 1.113-1.523 0-2.744-.368-3.662-1.103-.917-.742-1.376-1.761-1.376-3.057Zm10.952-1.016v-.312c0-1.523.43-2.764 1.29-3.72.859-.964 2.005-1.446 3.437-1.446 1.439 0 2.584.482 3.437 1.445.86.957 1.289 2.198 1.289 3.72v.313c0 1.524-.429 2.767-1.289 3.73-.853.964-1.998 1.446-3.437 1.446-1.432 0-2.578-.482-3.438-1.445-.86-.964-1.289-2.207-1.289-3.73Zm1.748-.312v.312c0 1.062.25 1.953.752 2.676.501.723 1.244 1.084 2.227 1.084.983 0 1.725-.361 2.226-1.084.502-.723.752-1.614.752-2.676v-.312c0-1.055-.25-1.943-.752-2.666-.501-.723-1.243-1.084-2.226-1.084-.983 0-1.725.361-2.227 1.084-.501.723-.752 1.611-.752 2.666Zm9.224 1.65v-6.533h1.709v6.553c0 .82.183 1.406.547 1.758.371.351.896.527 1.573.527.573 0 1.077-.156 1.513-.469a3.386 3.386 0 0 0 1.045-1.22v-7.149h1.709V42h-1.553l-.068-1.318h-.049a3.99 3.99 0 0 1-1.347 1.113 3.84 3.84 0 0 1-1.758.4c-1.016 0-1.823-.286-2.422-.86-.599-.578-.899-1.542-.899-2.89Zm8.912-5.205v-1.328h5.723v1.328h-5.723Zm1.807 6.23V29.237h1.709v10.235c0 .495.091.84.273 1.035.189.195.482.293.879.293.176 0 .348-.016.518-.049.176-.04.351-.091.527-.156V42a2.726 2.726 0 0 1-.635.195c-.26.059-.547.088-.859.088-.736 0-1.322-.221-1.758-.664-.436-.45-.654-1.165-.654-2.148Zm5.171 2.53V27.107h1.709v6.065a3.728 3.728 0 0 1 1.358-1.055 4.125 4.125 0 0 1 1.816-.4c.944 0 1.716.286 2.315.86.599.572.898 1.536.898 2.89V42h-1.709v-6.543c0-.82-.186-1.406-.557-1.758-.364-.358-.885-.537-1.562-.537-.573 0-1.081.156-1.524.469a3.23 3.23 0 0 0-1.035 1.21V42h-1.709Zm14.513 0V27.781h1.768v7.022l6.24-7.022h2.119l-8.359 9.248V42h-1.768Zm8.399 0-5.459-7.393 1.142-1.24L143.166 42h-2.168Zm1.88-4.893v-.312c0-1.523.43-2.764 1.289-3.72.86-.964 2.005-1.446 3.438-1.446 1.438 0 2.584.482 3.437 1.445.86.957 1.289 2.198 1.289 3.72v.313c0 1.524-.429 2.767-1.289 3.73-.853.964-1.999 1.446-3.437 1.446-1.433 0-2.578-.482-3.438-1.445-.859-.964-1.289-2.207-1.289-3.73Zm1.748-.312v.312c0 1.062.251 1.953.752 2.676.501.723 1.244 1.084 2.227 1.084.983 0 1.725-.361 2.226-1.084.502-.723.752-1.614.752-2.676v-.312c0-1.055-.25-1.943-.752-2.666-.501-.723-1.243-1.084-2.226-1.084-.983 0-1.726.361-2.227 1.084-.501.723-.752 1.611-.752 2.666ZM153.948 42V31.912h1.553l.068 1.309h.049c.26-.43.602-.801 1.025-1.114.424-.319.928-.478 1.514-.478.137 0 .283.016.439.049.157.026.267.052.333.078v1.592a3.484 3.484 0 0 0-.401-.059 5.288 5.288 0 0 0-.478-.02c-.567 0-1.058.154-1.475.46a2.83 2.83 0 0 0-.918 1.152V42h-1.709Zm5.23-4.893v-.312c0-1.523.414-2.764 1.24-3.72.834-.964 1.931-1.446 3.291-1.446 1.368 0 2.416.45 3.145 1.348.736.892 1.103 2.109 1.103 3.652v.693h-7.734v-1.367h6.016v-.215c0-.742-.209-1.377-.625-1.904-.417-.534-1.029-.8-1.836-.8-.957 0-1.673.36-2.149 1.083-.468.723-.703 1.615-.703 2.676v.312c0 1.062.248 1.953.742 2.676.502.723 1.273 1.084 2.315 1.084.644 0 1.198-.14 1.66-.42.469-.28.846-.615 1.133-1.006l1.103.89c-.312.474-.8.92-1.465 1.337-.664.41-1.474.615-2.431.615-1.55 0-2.738-.478-3.565-1.435-.826-.964-1.24-2.21-1.24-3.74Zm9.761 1.934c0-1.016.401-1.81 1.202-2.383.807-.573 1.839-.86 3.095-.86h2.305v-.732c0-.618-.163-1.116-.488-1.494-.319-.377-.863-.566-1.631-.566-.775 0-1.335.16-1.68.478-.338.313-.508.687-.508 1.123v.078h-1.709v-.097c0-.794.352-1.485 1.055-2.07.71-.593 1.67-.89 2.881-.89 1.204 0 2.135.287 2.793.86.664.567.996 1.426.996 2.578v4.59c0 .423.033.824.098 1.201.065.371.156.7.273.987V42h-1.65a3.203 3.203 0 0 1-.254-.635 4.103 4.103 0 0 1-.137-.781c-.241.417-.628.788-1.162 1.113-.527.326-1.211.488-2.051.488-.963 0-1.777-.27-2.441-.81-.658-.54-.987-1.318-.987-2.334Zm1.709-.088c0 .586.17 1.042.508 1.367.345.326.869.489 1.573.489.716 0 1.363-.244 1.943-.733.579-.495.869-1.022.869-1.582V37.04h-2.109c-.918 0-1.612.173-2.08.518-.469.345-.704.81-.704 1.396Z"/><g clip-path="url(#a)"><mask id="b" width="42" height="31" x="19" y="20" maskUnits="userSpaceOnUse" style="mask-type:luminance"><path fill="#fff" d="M19.999 20.002h40.002v30H19.999v-30Z"/></mask><g mask="url(#b)"><path fill="#fff" fill-rule="evenodd" d="M19.999 20.002h40.008v30H19.999v-30Z" clip-rule="evenodd"/><path fill="#000001" fill-rule="evenodd" d="m24.382 29.113 4.162-6.24 1.04.694-4.162 6.24-1.04-.694Zm1.56 1.04 4.162-6.239 1.04.694-4.162 6.24-1.04-.694Zm1.56 1.041 4.162-6.24 1.04.694-4.162 6.24-1.04-.694ZM47.261 44.372l4.162-6.24 1.04.694-4.162 6.24-1.04-.694Zm1.56 1.04 4.162-6.24 1.04.694-4.162 6.24-1.04-.694Zm1.56 1.04 4.161-6.24 1.04.694-4.161 6.24-1.04-.694Z" clip-rule="evenodd"/><path fill="#000" fill-rule="evenodd" d="m48.822 40.905 5.2 3.468-5.2-3.468Z" clip-rule="evenodd"/><path stroke="#fff" stroke-width="1.25" d="m48.822 40.905 5.2 3.468"/><path fill="#CD2E3A" fill-rule="evenodd" d="M33.743 30.848a7.5 7.5 0 1 1 12.479 8.323l-12.48-8.323Z" clip-rule="evenodd"/><path fill="#0047A0" fill-rule="evenodd" d="M33.743 30.848a7.5 7.5 0 0 0 12.48 8.323 3.75 3.75 0 1 0-6.24-4.161l-6.24-4.162Z" clip-rule="evenodd"/><path fill="#CD2E3A" d="M39.982 35.01a3.75 3.75 0 1 0-6.24-4.162 3.75 3.75 0 0 0 6.24 4.162Z"/><path fill="#000001" fill-rule="evenodd" d="m28.56 47.148-4.16-6.24 1.04-.693 4.16 6.24-1.04.693Zm1.56-1.04-4.16-6.24 1.04-.693 4.16 6.24-1.04.693Zm1.56-1.04-4.161-6.24 1.04-.694 4.161 6.24-1.04.694ZM51.44 31.89l-4.162-6.24 1.04-.693 4.161 6.24-1.04.693ZM53 30.85l-4.162-6.24 1.04-.694 4.161 6.24-1.04.694Zm1.56-1.04-4.162-6.24 1.04-.694 4.161 6.24-1.04.693Z" clip-rule="evenodd"/><path fill="#000" fill-rule="evenodd" d="m27.78 43.161 1.56-1.04-1.56 1.04Zm21.059-14.044 1.82-1.214-1.82 1.214Zm3.38-2.254 1.56-1.04-1.56 1.04Z" clip-rule="evenodd"/><path stroke="#fff" stroke-width="1.25" d="m27.78 43.161 1.56-1.04m19.499-13.004 1.82-1.214m1.56-1.04 1.56-1.04"/></g></g><rect width="39" height="29" x="20.5" y="20.5" stroke="#D3D3D3" rx="14.5"/><defs><clipPath id="a"><rect width="40" height="30" x="20" y="20" fill="#fff" rx="15"/></clipPath></defs></svg>