<svg xmlns="http://www.w3.org/2000/svg" width="72" height="36" fill="none"><path fill="#fff" d="M6.778 13.692c-1.012 0-1.828 1.592-2.11 2.47-.309.878-1.124 11.058-1.124 11.058l2.222.137 1.322-11.058 4.33.137-1.405 10.92h2.53l1.576-13.691c0 .027-6.328.027-7.34.027Zm2.138 13.692c-.197-.74.928-9.247.928-9.247H7.79s-.197 4.912-.929 8.342c-.956 3.457-4.05 3.594-4.05 3.594l.113 2.387c2.081.302 4.669-2.826 4.669-2.826 2.081 3.128 4.05 2.69 4.05 2.69l.197-2.388c-1.8-.466-2.728-1.811-2.925-2.552ZM22.64 15.777v-1.81h-2.475v1.756h-4.979l-.73 2.14s4.471 0 5.005.137c.535.137 1.154.521.816 4.253-.365 3.76-3.684 9.549-3.684 9.549h3.572c1.153-.906 2.08-14.076 2.08-14.076h1.295v-1.948h-.9Zm-5.935 3.238s-1.884 7.244-2.418 8.26c-.535 1.042-.9 1.673-1.266 2.057-.366.384-.366 2.442-.366 2.442s-.45.385 1.519-.247c1.969-.658 4.753-12.54 4.753-12.54l-2.222.028ZM30.347 8.561s-2.053 4.143-2.419 4.665c-.366.521-1.266.905-1.266.905l-.28 2.717h1.602c-.084.384-2.053 15.256-2.053 15.256h3.235l1.968-18.467 2.419-5.049h-3.206v-.027Zm16.565 2.58.282-2.443h-3.15l-.282 2.58h-9.956c-.169 1.042-1.153 2.963-1.153 2.963h10.66l-.788 5.049c2.953 9.823-5.738 14.46-5.738 14.46 4.303 0 6.807-3.1 7.707-6.064.9-2.963 1.687-13.692 1.687-13.692l.985-.137.365-2.717h-.619Z"/><path fill="#fff" d="M30.347 8.561s-2.053 4.143-2.419 4.665c-.366.521-1.266.905-1.266.905l-.28 2.717h1.602c-.084.384-2.053 15.256-2.053 15.256h3.235l1.968-18.467 2.419-5.049h-3.206v-.027Zm16.565 2.58.282-2.443h-3.15l-.282 2.58h-9.956c-.169 1.042-1.153 2.963-1.153 2.963h10.66l-.788 5.049c2.953 9.823-5.738 14.46-5.738 14.46 4.303 0 6.807-3.1 7.707-6.064.9-2.963 1.687-13.692 1.687-13.692l.985-.137.365-2.717h-.619ZM68.147 16.902c1.153-.137 1.04-2.743 1.04-2.743H56.082l-.759 2.057h9.703c0 .686-.562 1.647-.562 1.647H61.51v-.549h-3.432l-.281.823s-1.716-.411-2.39.686c-.676 1.098-1.435 10.701-1.435 10.701l2.475-.137.478-2.744h2.56l-.197 2.881h2.756l.197-3.155h2.278c.478 0 .562-1.646.562-1.646l-2.475-.138.085-1.234s1.519 0 2.194-.138c.674-.137.562-2.058.562-2.058h-2.39l.084-.96h2.84c1.52 3.43-1.996 9.33-1.996 9.33h3.15c.196-.412 1.715-11.113 1.715-11.113h-.844c-.337-.96.141-1.51.141-1.51Zm-8.55 7.683c-.366 0-2.56-.137-2.56-.137s-.196-1.097.197-1.235c.394-.137 2.672.138 2.672.138s.057 1.234-.309 1.234Zm.478-3.567H57.6s-.366-.686 0-.823h2.756s.282.823-.28.823Zm-5.822 9.878c-1.997-.137-1.997-1.783-1.997-1.783l1.716-12.348h-3.516l-.197 2.195h.844s-.956 9.055-1.125 10.564c-.197 1.51-1.237 1.098-1.237 1.098v2.058h1.912c.282 0 .956-1.098.956-1.098.675 1.098 2.672 1.235 2.672 1.235h13.304l.28-1.92s-11.615.137-13.612 0Z"/><path fill="#fff" d="M40.444 18.302c-1.913-2.278-4.95-1.537-6.778 1.646-1.828 3.183-1.772 7.628.168 9.906 1.913 2.277 4.95 1.536 6.778-1.62 1.829-3.237 1.744-7.655-.168-9.932Zm-2.082 7.82H34.96l.478-4.884h3.235l-.31 4.884ZM37.21 2.14c3.543 0 6.609.604 9.14 1.784 1.997.933 3.657 2.222 4.922 3.841 1.463 1.866 2.11 3.76 2.363 4.83h-2.363c-1.631-6.421-7.706-9.796-17.634-9.796-1.463 0-2.925.082-4.36.192 2.87-.576 5.513-.85 7.932-.85Zm0-.768c-5.457 0-12.6 1.372-21.994 4.994 0 0 9.31-2.854 18.422-2.854 7.79 0 15.44 2.086 16.987 9.796h3.938c.028.027-1.181-11.936-17.353-11.936ZM5.09 8.424v.384h-.787l-.028.027v3.074h-.281V8.835l-.028-.027h-.788v-.384h1.913Zm.029-.028h-1.94v.412h.787v3.1h.337V8.836h.816v-.439ZM7.453 8.424v.384H6.047l-.028.027v1.07l.028.028h1.322v.357H6.047l-.028.027v1.207l.028.028h1.462v.384H5.737V8.424h1.716Zm.028-.028H5.737v3.513h1.828v-.412h-1.49V10.29h1.35v-.412h-1.35v-1.07h1.434v-.412h-.028ZM10.153 8.424v3.457h-.31L8.579 9.137H8.55v2.744h-.281V8.424h.309l1.266 2.744h.028V8.45l.281-.027Zm0-.028h-.31v2.744L8.55 8.396h-.338v3.513h.31V9.165l1.294 2.744h.337V8.396ZM11.897 8.424c.169 0 .281 0 .365.027a.587.587 0 0 1 .282.165c.084.082.14.192.197.33.056.136.084.301.084.466 0 .301-.056.548-.197.74-.14.193-.366.302-.703.302h-.619l-.028.028v1.4h-.281V8.423h.9Zm-.59 1.674h.618c.197 0 .366-.055.45-.165.084-.11.14-.274.14-.494a.781.781 0 0 0-.084-.384c-.056-.11-.14-.165-.197-.22-.056-.027-.168-.027-.309-.027h-.619l-.028.027.028 1.263Zm.59-1.702h-.928v3.513h.31v-1.427h.618c.337 0 .59-.11.703-.302.14-.192.197-.467.197-.74 0-.166-.028-.33-.085-.467a.943.943 0 0 0-.196-.33.675.675 0 0 0-.31-.164c-.028-.055-.14-.083-.31-.083Zm-.59 1.674V8.808h.618c.14 0 .253 0 .31.027.084.028.14.11.196.192.057.11.085.22.085.385 0 .192-.028.356-.141.466-.113.11-.225.165-.45.165l-.619.027ZM14.26 8.424l.984 3.457h-.338l-.281-1.043h-1.069l-.253 1.043h-.31l.929-3.457h.337Zm-.563 2.058h.815l.028-.028-.253-.96a7.547 7.547 0 0 1-.168-.713h-.028c-.029.219-.085.439-.141.658l-.253 1.043Zm.562-2.086h-.337l-.928 3.513h.337l.253-1.07h1.04l.282 1.07h.366l-1.013-3.513Zm-.562 2.086.253-1.043c.056-.22.112-.439.14-.658.029.192.085.439.17.713l.252.96h-.815v.028ZM17.494 8.424l-.957 2.003v1.454h-.28v-1.454l-.93-2.003h.338l.479 1.042c.084.193.168.385.253.604h.028c.084-.192.169-.384.253-.631l.478-1.015h.338Zm.028-.028h-.366l-.478 1.043c-.113.22-.197.44-.253.631a13.425 13.425 0 0 1-.253-.604l-.478-1.07H15.3l.928 2.03v1.483h.337v-1.482l.957-2.03ZM18 11.442v.44h-.281v-.44h.28Zm.028-.027h-.338v.494h.338v-.494ZM19.913 8.369c.225 0 .45.082.59.274.17.165.282.412.338.714l-.281.082c-.057-.247-.141-.439-.254-.549a.58.58 0 0 0-.421-.164c-.197 0-.366.054-.479.192-.14.137-.225.301-.28.521-.057.22-.085.439-.085.686 0 .302.028.549.084.796.056.22.169.384.281.521.141.11.282.165.422.165.197 0 .338-.083.478-.22.113-.137.197-.357.254-.658l.28.11c-.055.356-.196.658-.365.85-.169.192-.365.302-.619.302-.253 0-.478-.082-.618-.22-.17-.164-.282-.356-.366-.658a3.406 3.406 0 0 1-.14-.933c0-.357.056-.686.14-.96a1.21 1.21 0 0 1 .394-.604c.253-.192.45-.247.647-.247Zm0-.028a.92.92 0 0 0-.59.22c-.17.137-.31.357-.423.631a3.16 3.16 0 0 0-.14.96c0 .33.028.659.14.933.085.302.197.522.366.659.169.165.365.22.647.22a.85.85 0 0 0 .647-.302c.168-.193.309-.494.365-.879l-.337-.11a1.21 1.21 0 0 1-.253.66.516.516 0 0 1-.45.219.685.685 0 0 1-.422-.165c-.14-.11-.225-.274-.282-.494a3.225 3.225 0 0 1-.084-.768c0-.22.028-.466.084-.686.057-.22.141-.384.254-.521a.625.625 0 0 1 .478-.192c.168 0 .31.054.393.164.113.11.197.302.254.549l.309-.11c-.056-.274-.169-.549-.338-.713a.767.767 0 0 0-.618-.275ZM22.64 8.369a.92.92 0 0 1 .591.22c.17.164.31.356.394.63.084.275.14.577.14.933 0 .357-.056.659-.14.933-.084.275-.225.494-.422.631a.905.905 0 0 1-.562.22.92.92 0 0 1-.59-.22 1.544 1.544 0 0 1-.395-.658 2.882 2.882 0 0 1-.14-.878c0-.576.112-1.043.31-1.345.224-.302.505-.466.815-.466Zm0 3.238c.254 0 .45-.137.62-.384.168-.247.224-.604.224-1.07 0-.275-.028-.55-.112-.741a.894.894 0 0 0-.31-.494.7.7 0 0 0-.45-.165c-.224 0-.421.11-.59.357-.169.22-.253.603-.253 1.152 0 .412.084.768.225 1.015.197.193.422.33.647.33Zm0-3.266c-.337 0-.618.165-.843.494-.225.33-.338.796-.338 1.372 0 .302.057.604.141.878.084.275.225.494.422.659.197.165.394.247.619.247.197 0 .394-.082.59-.22.17-.137.338-.356.422-.63.113-.275.14-.604.14-.961s-.055-.659-.14-.933a1.352 1.352 0 0 0-.422-.659c-.14-.164-.365-.247-.59-.247Zm0 3.238c-.224 0-.421-.11-.59-.357-.169-.246-.225-.576-.225-.987 0-.522.085-.906.253-1.125.169-.22.366-.33.59-.33.17 0 .31.055.423.193.14.11.225.274.281.493.056.22.113.467.113.741 0 .44-.085.796-.226 1.043-.168.192-.365.33-.618.33Z"/><path fill="#fff" d="M26.803 8.424v3.457h-.28V8.973h-.03l-.702 2.908h-.253l-.703-2.963h-.029v2.963h-.28V8.424h.45l.562 2.47c.056.274.084.438.112.52h.028c.028-.136.057-.301.14-.548l.563-2.415h.422m0-.055h-.422l-.59 2.442c-.056.247-.113.44-.14.55-.029-.11-.057-.275-.113-.522l-.563-2.47h-.478v3.513h.31V8.918l.703 2.99h.28l.704-2.935v2.936h.31V8.396Z"/></svg>