<svg xmlns="http://www.w3.org/2000/svg" viewBox="0 0 431 291" fill="none"><g clip-path="url(#a)"><rect width="399.053" height="233.731" x="35.386" fill="url(#b)" rx="20" transform="rotate(8.48 35.386 0)"/><path fill="#fff" d="m394.501 91.01 1.992-13.362 3.277.488-.756 5.066 5.069-4.423 3.46.516-9.092 7.688-.674 4.515-3.276-.488Zm7.865 1.172-3.454-6.913 2.428-2.058 4.954 9.557-3.928-.586ZM381.066 89.006l1.992-13.362 3.469.518 2.992 8.307a6.667 6.667 0 0 1 .288 1.15l.065.01c.018-.21.041-.404.068-.581l.087-.587 1.134-7.608 2.763.412-1.992 13.361-3.525-.525-2.966-8.229c-.07-.204-.125-.4-.166-.587a23.437 23.437 0 0 1-.1-.587l-.064-.01-.073.618c-.024.203-.052.408-.083.616l-1.118 7.498-2.771-.414ZM366.538 86.84l6.955-12.669 3.552.53 3.048 14.16-3.487-.52-1.865-9.574a5.65 5.65 0 0 1-.084-.632 40.926 40.926 0 0 0-.029-.567l-.064-.01c-.057.173-.121.354-.193.544a5.247 5.247 0 0 1-.264.57l-4.531 8.621-3.038-.453Zm3.449-2.243 1.009-2.233 5.855.873.322 2.431-7.186-1.071ZM355.719 85.227l1.992-13.362 5.295.79c1.511.225 2.64.69 3.385 1.396.752.7 1.041 1.64.864 2.821-.11.74-.366 1.327-.769 1.761-.395.43-.85.693-1.365.791l-.006.037c.574.26 1.02.687 1.339 1.278.324.593.421 1.33.289 2.21-.18 1.212-.771 2.087-1.77 2.626-.994.54-2.228.7-3.702.48l-5.552-.828Zm3.57-1.738 2.093.312c.63.094 1.119-.002 1.468-.287.349-.286.566-.713.651-1.282.082-.55-.002-1.014-.252-1.389-.25-.381-.69-.619-1.32-.713l-2.092-.312-.548 3.671Zm.849-5.69 1.844.275c.624.094 1.094.023 1.411-.211.317-.24.514-.618.591-1.132.075-.508-.004-.92-.238-1.236-.234-.316-.664-.521-1.288-.614l-1.844-.275-.476 3.194ZM251.998 189.938l.062-.413c.343-2.306 1.301-4.03 2.872-5.172 1.572-1.148 3.704-1.521 6.396-1.119l.376.056-.377 2.533-.34-.051c-1.615-.241-2.932-.049-3.95.574-1.012.619-1.658 1.87-1.939 3.754l.151.436c-.198 1.327-.175 2.241.069 2.74.251.5.658.792 1.221.876.563.084.994-.042 1.295-.379.307-.342.52-.914.64-1.715.101-.679.054-1.246-.141-1.7-.188-.454-.573-.724-1.155-.81a1.565 1.565 0 0 0-1.367.424c-.379.363-.614.85-.706 1.462l-.936-.14c.185-1.242.652-2.232 1.4-2.971.754-.738 1.701-1.023 2.839-.853 1.272.19 2.203.741 2.792 1.655.596.914.793 2.047.591 3.399-.209 1.401-.803 2.473-1.783 3.215-.979.736-2.246.988-3.8.756-1.48-.221-2.63-.855-3.45-1.903-.813-1.047-1.067-2.598-.76-4.654ZM239.144 189.898l.043-.284 3.304.492-.039.257c-.078.526.002.951.242 1.274.24.318.62.515 1.14.593.551.082.979-.042 1.285-.372.311-.329.522-.863.633-1.603.109-.735.055-1.296-.162-1.685s-.58-.621-1.087-.697c-.404-.06-.757-.022-1.059.114a2.628 2.628 0 0 0-.8.585l-2.578-1.52 1.692-6.633 7.939 1.183-.379 2.542-5.357-.817-.676 2.582c.271-.141.593-.243.965-.306s.803-.059 1.293.014c1.229.184 2.18.71 2.851 1.579.67.87.903 1.993.698 3.369-.215 1.444-.804 2.538-1.765 3.283-.955.739-2.231.99-3.827.752-1.616-.241-2.791-.791-3.525-1.651-.728-.866-1.005-1.882-.831-3.051ZM231.71 192.58l.533-3.57.097-.399.776-5.203-.101-.015-3.245 3.578 3.597.537.583.058 3.037.453-.364 2.441-10.333-1.541.317-2.129 7.206-7.556 3.083.46-1.992 13.362-3.194-.476ZM214.067 186.093l.048-.321 3.267.487-.041.276c-.08.538-.011.977.207 1.316.219.339.597.548 1.136.629.538.08.961-.01 1.269-.271.315-.266.521-.726.618-1.38.092-.612.003-1.088-.265-1.428-.261-.346-.716-.567-1.365-.664l-1.275-.19.331-2.221 1.202.18c.532.079.954-.005 1.267-.252.319-.253.519-.652.6-1.196.075-.502.021-.898-.161-1.187-.175-.295-.488-.477-.941-.544-.459-.069-.816.016-1.07.253-.253.231-.417.598-.492 1.099l-.03.202-3.249-.484.032-.211c.166-1.114.708-1.983 1.627-2.609.926-.632 2.135-.836 3.628-.613 1.554.231 2.65.745 3.288 1.541.645.79.898 1.653.758 2.589-.112.753-.377 1.376-.794 1.871-.418.494-.998.817-1.74.969l-.005.037c.721.282 1.263.735 1.627 1.359.37.618.493 1.343.369 2.175-.186 1.248-.768 2.178-1.747 2.788-.973.606-2.266.788-3.881.547-1.597-.238-2.745-.784-3.443-1.639-.697-.86-.955-1.896-.775-3.108ZM194.686 187.059l.288-1.927 5.314-4.433c.536-.452.971-.871 1.304-1.26.34-.393.544-.819.613-1.278.063-.428.004-.784-.179-1.068-.176-.289-.493-.467-.952-.536-.459-.068-.84.038-1.145.317-.303.274-.507.76-.611 1.457l-.051.34-3.331-.497.071-.477c.188-1.261.766-2.222 1.734-2.884.975-.668 2.203-.891 3.684-.671 1.603.239 2.736.755 3.399 1.549.67.794.926 1.742.768 2.844-.135.905-.476 1.661-1.023 2.268-.546.6-1.196 1.207-1.951 1.82l-3.15 2.569 5.276.787-.376 2.524-9.682-1.444ZM186.108 185.78l1.542-10.342-3.347.673.392-2.624 4.727-1.003 1.982.296-2.011 13.49-3.285-.49ZM170.331 178.54l.566-3.799c.227-1.517.818-2.674 1.775-3.469.957-.802 2.219-1.086 3.785-.852 1.561.232 2.683.865 3.367 1.899.69 1.035.92 2.32.691 3.856l-.566 3.799c-.229 1.536-.831 2.697-1.805 3.484-.968.787-2.22 1.066-3.755.837-1.573-.234-2.701-.868-3.385-1.902-.678-1.033-.902-2.317-.673-3.853Zm3.318.898c-.1.673-.074 1.231.079 1.673.159.442.502.703 1.028.781.526.079.927-.071 1.202-.449.282-.377.473-.902.573-1.575l.68-4.561c.102-.685.074-1.249-.085-1.692-.16-.443-.499-.703-1.019-.78-.526-.079-.93.07-1.212.448-.275.378-.463.909-.566 1.594l-.68 4.561ZM158.198 172.472c.208-1.395.801-2.457 1.779-3.187.979-.736 2.246-.988 3.8-.756 1.48.221 2.627.855 3.44 1.901.82 1.048 1.076 2.6.77 4.656l-.062.413c-.336 2.257-1.289 3.948-2.857 5.071-1.562 1.118-3.695 1.5-6.401 1.147l-.376-.056.377-2.524.339.051c1.615.241 2.919.05 3.913-.571 1-.626 1.637-1.857 1.91-3.692l-.095-.427c.184-1.236.163-2.124-.063-2.665-.219-.545-.637-.864-1.255-.956-.563-.084-.991.043-1.286.381-.293.331-.498.891-.616 1.681-.107.715-.067 1.287.119 1.715.193.429.577.687 1.152.772.544.082 1.008-.049 1.39-.393.39-.348.631-.831.723-1.449l.808.12c-.168 1.126-.599 2.087-1.293 2.885-.688.791-1.631 1.098-2.83.919-1.273-.19-2.207-.739-2.803-1.647-.59-.913-.784-2.043-.583-3.389ZM131.919 174.033c.135-.906.51-1.597 1.126-2.075.622-.482 1.272-.77 1.948-.863l.006-.037a3.771 3.771 0 0 1-1.371-1.377c-.326-.58-.431-1.259-.315-2.036.156-1.046.681-1.843 1.576-2.391.902-.554 2.071-.723 3.509-.509 1.432.213 2.498.716 3.199 1.509.707.793.983 1.713.827 2.759-.115.771-.394 1.386-.838 1.845-.444.46-1 .771-1.668.934l-.006.036c.63.263 1.15.719 1.56 1.368.411.643.549 1.417.414 2.323-.18 1.205-.767 2.08-1.762 2.626-.988.547-2.253.706-3.795.476-1.542-.23-2.708-.751-3.5-1.563-.786-.812-1.089-1.82-.91-3.025Zm3.382.222c-.087.582-.017 1.055.21 1.42.227.365.613.589 1.158.67.538.08.969-.021 1.293-.305.329-.282.538-.714.624-1.295.09-.599.028-1.087-.185-1.463-.207-.375-.598-.605-1.173-.691-.581-.086-1.025.02-1.332.318-.307.298-.506.747-.595 1.346Zm1.146-5.739c-.079.532-.041.973.113 1.321.161.349.489.561.984.634.49.073.859-.034 1.108-.322.256-.287.423-.697.503-1.229.076-.514.03-.94-.138-1.278-.169-.338-.489-.542-.96-.612-.477-.071-.845.03-1.105.304s-.428.668-.505 1.182ZM120.392 175.982l6.357-9.981-6.296-.939.399-2.671 9.682 1.444-.336 2.248-6.328 10.417-3.478-.518ZM107.234 168.354l.062-.413c.344-2.307 1.301-4.031 2.872-5.173 1.573-1.147 3.705-1.52 6.396-1.119l.377.056-.378 2.533-.339-.051c-1.616-.241-2.933-.049-3.951.574-1.012.619-1.658 1.87-1.939 3.755l.151.435c-.198 1.328-.175 2.241.07 2.74.25.5.657.793 1.22.876.563.084.995-.042 1.295-.379.307-.342.521-.913.64-1.715.102-.679.055-1.246-.14-1.7-.189-.453-.574-.723-1.155-.81a1.565 1.565 0 0 0-1.368.425c-.379.362-.614.849-.705 1.461l-.936-.14c.185-1.242.651-2.232 1.4-2.971.754-.738 1.7-1.022 2.838-.853 1.272.19 2.203.742 2.793 1.655.595.914.792 2.048.59 3.4-.209 1.401-.803 2.472-1.783 3.214-.979.736-2.246.988-3.8.756-1.48-.22-2.63-.855-3.45-1.902-.813-1.047-1.066-2.599-.76-4.654ZM94.38 168.313l.043-.284 3.304.492-.038.257c-.079.527.002.951.241 1.275.24.317.62.514 1.14.592.551.082.979-.042 1.285-.371.312-.329.523-.864.633-1.604.11-.734.056-1.296-.162-1.685-.217-.388-.579-.621-1.087-.697-.404-.06-.757-.022-1.058.115a2.6 2.6 0 0 0-.8.584l-2.579-1.52 1.693-6.633 7.938 1.184-.379 2.542-5.357-.818-.676 2.583c.272-.141.593-.244.966-.307.372-.063.802-.058 1.292.015 1.23.183 2.18.709 2.851 1.579.671.869.904 1.992.698 3.368-.215 1.444-.803 2.539-1.765 3.283-.955.74-2.23.99-3.827.752-1.615-.24-2.79-.791-3.525-1.651-.728-.865-1.005-1.882-.83-3.051ZM73.937 169.055l.533-3.57.097-.398.775-5.203-.1-.016-3.245 3.579 3.597.536.582.059 3.038.453-.364 2.441-10.333-1.541.317-2.129 7.206-7.556 3.083.459-1.992 13.362-3.194-.476ZM56.294 162.569l.048-.321 3.267.487-.041.275c-.08.539-.011.977.207 1.316.218.339.597.549 1.135.629.539.08.962-.01 1.27-.27.314-.266.52-.726.618-1.381.091-.612.003-1.088-.265-1.428-.261-.345-.716-.566-1.365-.663l-1.276-.19.332-2.221 1.202.179c.532.08.954-.004 1.266-.252.32-.253.52-.651.6-1.196.076-.501.022-.897-.16-1.187-.175-.295-.489-.476-.941-.544-.46-.068-.816.016-1.07.254-.254.231-.418.597-.492 1.099l-.03.202-3.25-.485.032-.211c.166-1.113.709-1.983 1.628-2.609.926-.631 2.135-.835 3.628-.613 1.554.232 2.65.746 3.288 1.541.645.791.898 1.654.758 2.59-.112.752-.377 1.376-.795 1.87-.417.495-.997.818-1.739.97l-.005.036c.72.283 1.263.736 1.626 1.359.371.619.494 1.344.37 2.176-.186 1.248-.769 2.177-1.748 2.788-.972.605-2.265.788-3.88.547-1.597-.238-2.745-.784-3.443-1.639-.697-.861-.956-1.897-.775-3.108ZM43.418 164.505l.287-1.928 5.314-4.433c.537-.451.971-.871 1.304-1.259.34-.394.545-.82.613-1.279.064-.428.005-.784-.178-1.067-.176-.289-.494-.468-.952-.536-.46-.069-.84.037-1.145.317-.304.273-.508.759-.611 1.456l-.051.34-3.331-.497.07-.477c.189-1.26.767-2.222 1.735-2.884.975-.668 2.203-.891 3.683-.67 1.603.239 2.736.755 3.4 1.548.67.794.925 1.742.767 2.844-.135.906-.476 1.662-1.023 2.268a17.89 17.89 0 0 1-1.95 1.82l-3.15 2.57 5.276.786-.376 2.524-9.682-1.443ZM34.84 163.226l1.541-10.343-3.346.674.391-2.625 4.728-1.003 1.982.296-2.012 13.49-3.285-.489ZM77.017 209.861l1.195-8.017 5.61.836-.2 1.344-3.793-.566-.281 1.883 3.282.49-.198 1.327-3.282-.49-.317 2.126 3.849.574-.2 1.338-5.665-.845ZM68.707 204.772l.073-.485c.19-1.273.68-2.195 1.47-2.764.79-.572 1.735-.777 2.833-.613 1.094.163 1.939.635 2.536 1.414.597.776.8 1.8.61 3.074l-.072.485c-.19 1.274-.683 2.196-1.482 2.768-.797.567-1.743.77-2.837.607-1.097-.164-1.941-.633-2.531-1.408-.59-.778-.79-1.804-.6-3.078Zm1.852.417c-.12.811-.046 1.443.224 1.896.274.454.693.723 1.259.807.565.084 1.047-.05 1.445-.404.398-.353.657-.935.778-1.747l.112-.754c.122-.815.044-1.45-.234-1.904-.277-.454-.699-.723-1.264-.807-.565-.085-1.045.05-1.44.404-.39.355-.646.94-.767 1.754l-.113.755ZM60.267 207.363l1.195-8.017 2.814.42c1.12.167 2.008.639 2.665 1.416.657.777.897 1.757.721 2.939l-.072.484c-.177 1.182-.692 2.049-1.547 2.601-.856.551-1.843.744-2.963.577l-2.813-.42Zm2.014-1.05.974.145c.628.094 1.165-.035 1.611-.385.45-.353.735-.926.853-1.719l.08-.539c.119-.793.014-1.422-.315-1.888-.324-.465-.8-.744-1.428-.838l-.975-.145-.8 5.369ZM49.22 205.716l1.196-8.017 1.988.297 2.003 5.291c.045.123.082.243.11.36.031.113.059.232.082.355l.044.007a12.565 12.565 0 0 1 .093-.78l.713-4.779 1.536.229-1.195 8.017-2.015-.301-1.993-5.244a2.51 2.51 0 0 1-.117-.35 5.95 5.95 0 0 1-.066-.353l-.044-.007c-.011.13-.025.259-.04.388a6.303 6.303 0 0 1-.046.376l-.706 4.741-1.542-.23ZM40.642 204.437l1.195-8.017 1.829.273-.48 3.21 3.211.479.479-3.211 1.822.272-1.195 8.017-1.823-.271.516-3.458-3.21-.479-.516 3.458-1.828-.273ZM32.333 199.348l.072-.484c.19-1.274.68-2.195 1.47-2.764.791-.573 1.736-.777 2.833-.613 1.094.163 1.94.634 2.536 1.413.598.776.801 1.801.611 3.075l-.072.484c-.19 1.274-.684 2.197-1.482 2.768-.798.568-1.744.77-2.837.607-1.098-.164-1.942-.633-2.532-1.407-.59-.779-.789-1.805-.599-3.079Zm1.852.417c-.121.811-.047 1.444.223 1.897.274.453.694.722 1.26.807.565.084 1.046-.051 1.444-.404.398-.354.657-.936.778-1.747l.113-.755c.121-.815.043-1.449-.234-1.903-.278-.454-.699-.724-1.264-.808-.566-.084-1.045.051-1.44.405-.39.354-.646.939-.768 1.754l-.112.754ZM24.994 199.498l.013-.088 1.8.268-.017.116c-.073.492-.035.852.114 1.081.154.226.41.365.766.418.36.054.645-.014.857-.204.217-.193.365-.556.444-1.088l.802-5.38 1.828.273-.783 5.253c-.14.936-.508 1.62-1.105 2.053-.593.429-1.336.577-2.228.444-.888-.132-1.56-.463-2.013-.992-.454-.533-.613-1.251-.479-2.154ZM184.148 222.941l.352-2.356c.133-.896.485-1.583 1.056-2.061.57-.477 1.325-.646 2.265-.506.939.14 1.614.522 2.024 1.146.41.62.548 1.38.414 2.28l-.351 2.356c-.134.896-.489 1.582-1.067 2.059-.578.477-1.333.645-2.265.506-.94-.14-1.613-.521-2.019-1.145-.406-.623-.542-1.383-.409-2.279Zm1.868.425c-.067.444-.047.817.058 1.118.106.297.342.473.71.528.367.054.644-.045.832-.298.192-.257.321-.607.387-1.051l.395-2.643c.066-.445.044-.816-.065-1.113-.106-.301-.342-.479-.709-.534-.363-.054-.641.047-.833.304-.188.253-.315.602-.381 1.046l-.394 2.643ZM177.717 221.982l.351-2.356c.134-.896.486-1.583 1.056-2.06.571-.478 1.326-.647 2.265-.507.94.14 1.615.522 2.025 1.146.41.62.548 1.38.414 2.28l-.351 2.356c-.134.896-.49 1.582-1.067 2.059-.578.477-1.333.645-2.265.506-.94-.14-1.613-.521-2.019-1.145-.406-.623-.543-1.383-.409-2.279Zm1.867.425c-.066.444-.046.817.059 1.118.106.297.342.473.709.528.367.054.645-.045.833-.298.192-.257.321-.607.387-1.051l.394-2.643c.066-.445.045-.816-.065-1.113-.105-.301-.341-.479-.708-.534-.364-.054-.641.047-.833.304-.188.253-.315.602-.382 1.046l-.394 2.643ZM172.942 224.867l4.282-8.26 1.465.218-4.283 8.26-1.464-.218ZM169.889 223.708l.939-6.299-2.008.444.223-1.492 2.903-.631.991.147-1.209 8.106-1.839-.275ZM161.496 219.564l.351-2.357c.133-.896.485-1.582 1.056-2.06.57-.478 1.325-.647 2.265-.507.94.14 1.614.522 2.024 1.146.41.621.549 1.38.415 2.28l-.352 2.357c-.133.895-.489 1.581-1.067 2.058-.577.477-1.332.646-2.265.507-.94-.14-1.612-.522-2.019-1.146-.406-.623-.542-1.383-.408-2.278Zm1.867.425c-.066.444-.047.816.058 1.117.106.297.343.473.71.528.367.055.644-.045.832-.298.192-.257.321-.607.388-1.051l.394-2.643c.066-.444.044-.815-.065-1.113-.105-.301-.342-.479-.709-.533-.363-.055-.641.047-.833.303-.188.254-.315.602-.381 1.047l-.394 2.643ZM186.564 213.408l.315-2.109.702.105-.315 2.108c-.039.267-.005.474.102.623.109.149.272.24.487.272.218.032.399-.007.546-.118.148-.111.241-.299.281-.565l.314-2.109.663.099-.314 2.108c-.065.433-.247.738-.547.916-.3.177-.646.236-1.037.178-.392-.058-.705-.216-.941-.473-.235-.257-.32-.602-.256-1.035ZM183.346 214.187l.498-3.34 1.274.19c.426.063.742.207.946.432a.94.94 0 0 1 .238.814.965.965 0 0 1-.463.714c-.262.16-.607.207-1.035.144l-.574-.086-.184 1.237-.7-.105Zm.958-1.623.573.086c.237.035.411.005.52-.092a.606.606 0 0 0 .203-.38.591.591 0 0 0-.081-.418c-.078-.119-.236-.197-.474-.232l-.574-.086-.167 1.122Zm.951 1.908-.548-1.658.775.104.576 1.674-.803-.12ZM179.761 213.653l.498-3.341.7.105-.204 1.372 1.551.231.204-1.372.7.104-.498 3.341-.7-.105.22-1.475-1.551-.231-.22 1.475-.7-.104ZM177.025 210.334l.074-.493 2.856.426-.073.493-1.079-.161-.424 2.848-.7-.105.425-2.847-1.079-.161ZM172.609 212.586l.498-3.34 1.188.177c.486.073.872.276 1.157.611.285.333.391.74.32 1.22l-.028.189c-.072.48-.293.839-.663 1.076-.37.235-.798.317-1.284.245l-1.188-.178Zm.773-.389.489.073c.301.045.556-.014.765-.179.209-.164.339-.416.389-.756l.028-.188c.051-.339 0-.618-.152-.836-.152-.218-.378-.35-.68-.395l-.488-.073-.351 2.354ZM171.265 212.386l.498-3.341.7.105-.498 3.34-.7-.104ZM168.637 211.994l.498-3.34.7.104-.425 2.847 1.618.241-.074.494-2.317-.346ZM165.284 211.494l1.663-3.181.78.117.67 3.528-.75-.112-.412-2.491a3.194 3.194 0 0 1-.046-.337l-.021-.003a2.37 2.37 0 0 1-.142.309l-1.121 2.263-.621-.093Zm.678-.682.253-.469 1.562.235.108.521-1.923-.287ZM162.846 207.716l.748.111.436 2.437c.012.056.021.113.027.17l.014.173.023.004c.019-.055.039-.109.061-.162.024-.053.049-.105.075-.156l1.137-2.201.62.092-1.691 3.175-.757-.113-.693-3.53ZM37.024 192.371l.498-3.341 2.41.359-.074.493-1.71-.254-.13.876 1.489.222-.074.496-1.489-.222-.146.982 1.732.258-.074.493-2.432-.362ZM32.87 191.751l.498-3.34.895.133.43 2.266a4.242 4.242 0 0 1 .053.33l.019.002c.022-.054.045-.105.07-.153l.073-.147 1.044-2.046.934.139-.498 3.341-.696-.104.33-2.205a2.36 2.36 0 0 1 .068-.346l-.026-.004-.074.167a5.542 5.542 0 0 1-.079.167l-1.079 2.093-.562-.084-.439-2.329a2.099 2.099 0 0 1-.033-.359l-.027-.004-.013.176a2.442 2.442 0 0 1-.018.174l-.33 2.214-.54-.081ZM29.517 191.251l1.663-3.181.78.116.67 3.529-.75-.112-.412-2.491a3.24 3.24 0 0 1-.045-.337l-.021-.003a2.55 2.55 0 0 1-.142.309l-1.121 2.263-.622-.093Zm.679-.682.253-.469 1.562.235.107.52-1.922-.286ZM26.545 190.808l.498-3.341.791.118.902 2.321c.02.05.038.106.052.169l.039.165.018.003a5.5 5.5 0 0 1 .043-.397l.307-2.058.587.088-.498 3.34-.787-.117-.917-2.313a.972.972 0 0 1-.052-.151 3.572 3.572 0 0 1-.034-.148l-.019-.003-.015.164a3.157 3.157 0 0 1-.02.164l-.31 2.083-.585-.087Z"/><path fill="url(#c)" d="m41.29 89.258 51.685 7.707-1.4 9.397-51.686-7.706 1.4-9.398Z"/><path fill="url(#d)" d="m39.608 100.535 25.373 3.783-1.4 9.398-19.735-2.943a5.7 5.7 0 0 1-4.798-6.479l.56-3.759Z"/><path fill="url(#e)" d="M42.13 83.62a5.7 5.7 0 0 1 6.48-4.798l3.759.56-1.401 9.398-9.398-1.401.56-3.76Z"/><path fill="url(#f)" d="m54.248 79.663 5.639.84-1.402 9.398-5.638-.84 1.401-9.398Z"/><path fill="url(#g)" d="m66.86 104.599 24.434 3.643-.56 3.759a5.7 5.7 0 0 1-6.48 4.797l-18.794-2.802 1.4-9.397Z"/><path fill="url(#h)" d="m86.2 84.427 2.818.42a5.7 5.7 0 0 1 4.798 6.48l-.56 3.758-8.458-1.26 1.401-9.398Z"/><path fill="url(#i)" d="m61.766 80.784 22.554 3.363-1.401 9.397-22.554-3.363 1.401-9.397Z"/><g fill="#fff" clip-path="url(#j)"><path d="M106.095 97.52a1.834 1.834 0 1 0-2.949 2.184 5.013 5.013 0 0 1-1.044 7.004c-.407.302-.654.74-.723 1.204a1.835 1.835 0 0 0 2.906 1.746c3.846-2.848 4.657-8.292 1.81-12.138Z"/><path d="M112.207 92.995a1.834 1.834 0 1 0-2.949 2.183c4.139 5.59 2.959 13.504-2.63 17.642-.407.302-.654.74-.723 1.204a1.835 1.835 0 0 0 2.906 1.746c7.215-5.343 8.739-15.56 3.396-22.775Z"/><path d="M113.862 122.591c10.977-8.128 13.294-23.67 5.166-34.647a1.834 1.834 0 1 0-2.949 2.184 20.958 20.958 0 0 1 3.912 15.668 20.964 20.964 0 0 1-8.312 13.846 1.827 1.827 0 0 0-.723 1.204 1.834 1.834 0 0 0 2.906 1.745Z"/></g><path fill="#fff" d="M358.964 239.412c-1.315 8.823-9.534 14.909-18.357 13.593-8.823-1.315-14.909-9.534-13.594-18.357 1.316-8.823 9.535-14.909 18.358-13.594 8.823 1.316 14.909 9.535 13.593 18.358Z"/><path fill="#fff" d="M383.398 243.055c-1.316 8.823-9.535 14.909-18.358 13.594-8.823-1.316-14.909-9.535-13.593-18.358 1.315-8.823 9.534-14.909 18.357-13.594 8.823 1.316 14.909 9.535 13.594 18.358ZM63.377 28.508l-9.49 18.928-6.035-.9 13.013-23.181 3.816.569-1.304 4.584Zm2.444 20.707L62.249 28.34l.02-4.776 3.869.577 5.718 25.974-6.035-.9Zm1.086-9.19-.634 4.254-13.164-1.963.634-4.253 13.164 1.962ZM80.564 36.661l-2.151 14.431L73 50.287l2.723-18.263 5.082.758-.242 3.88Zm-1.388 4.555-1.375-.17c.191-1.283.522-2.435.994-3.458.485-1.032 1.093-1.902 1.825-2.61a6.372 6.372 0 0 1 2.55-1.517c.978-.303 2.063-.365 3.254-.188.832.124 1.571.361 2.217.71a4.336 4.336 0 0 1 1.583 1.393c.421.58.704 1.3.847 2.162.146.85.133 1.843-.036 2.98l-1.817 12.186-5.411-.807 1.721-11.545c.12-.81.108-1.44-.038-1.886-.133-.457-.378-.793-.736-1.007-.358-.215-.803-.362-1.335-.441-.578-.086-1.111-.04-1.6.141-.474.17-.893.448-1.258.83-.364.383-.664.85-.9 1.402a7.97 7.97 0 0 0-.485 1.825Zm10.984 1.362-1.737-.12c.185-1.239.506-2.364.965-3.377.458-1.013 1.046-1.863 1.763-2.55a6.328 6.328 0 0 1 2.511-1.505c.968-.305 2.047-.368 3.238-.19.878.13 1.658.373 2.338.727a4.596 4.596 0 0 1 1.694 1.478c.45.63.752 1.418.907 2.361.157.932.138 2.045-.054 3.34l-1.727 11.578-5.446-.812 1.726-11.579c.12-.799.106-1.422-.04-1.87-.134-.445-.38-.775-.739-.99-.346-.212-.78-.357-1.3-.435-.578-.086-1.099-.043-1.562.13a3.089 3.089 0 0 0-1.216.785c-.348.35-.631.785-.85 1.305a7.12 7.12 0 0 0-.47 1.724ZM115.19 47.846l-6.348-.947.636-4.27 6.348.946c.937.14 1.711.1 2.323-.12.623-.217 1.107-.57 1.452-1.06.358-.498.588-1.085.688-1.76a4.588 4.588 0 0 0-.127-2.003 3.312 3.312 0 0 0-1.047-1.657c-.511-.456-1.235-.754-2.171-.894l-4.302-.641-3.027 20.305-5.654-.843 3.664-24.575 9.955 1.484c2.012.3 3.682.911 5.01 1.834 1.34.924 2.299 2.062 2.878 3.414.592 1.342.769 2.806.533 4.393-.237 1.586-.83 2.907-1.779 3.962-.938 1.056-2.178 1.803-3.72 2.24-1.53.428-3.301.492-5.312.192ZM137.095 55.39l1.168-7.83c.082-.552.066-1.038-.049-1.457-.114-.42-.34-.77-.676-1.05-.337-.28-.8-.464-1.39-.552-.497-.075-.943-.055-1.338.059a1.94 1.94 0 0 0-.941.601c-.232.288-.382.662-.451 1.124l-5.411-.807a4.818 4.818 0 0 1 .914-2.21c.487-.652 1.124-1.196 1.91-1.63.797-.434 1.715-.723 2.753-.867 1.04-.156 2.178-.141 3.415.043 1.469.22 2.739.656 3.812 1.31 1.086.646 1.893 1.496 2.421 2.553.529 1.045.687 2.288.472 3.728l-1.14 7.646c-.164 1.103-.23 1.979-.197 2.628.047.64.163 1.209.348 1.708l-.042.287-5.464-.815c-.175-.567-.269-1.248-.28-2.043a15.24 15.24 0 0 1 .166-2.425Zm1.689-6.684-.399 2.909-2.688-.401c-.601-.09-1.132-.094-1.594-.013-.449.082-.826.233-1.131.452a2.302 2.302 0 0 0-.72.79 3.24 3.24 0 0 0-.335 1.054c-.055.372-.013.723.127 1.054.141.32.361.59.659.806.299.217.662.358 1.09.421.705.106 1.327.06 1.864-.136.549-.194.991-.462 1.326-.803.336-.352.529-.697.579-1.035l.974 2.388c-.275.42-.599.848-.972 1.287a6.559 6.559 0 0 1-1.343 1.163 5.74 5.74 0 0 1-1.831.745c-.686.162-1.486.175-2.4.04-1.179-.177-2.214-.567-3.105-1.171-.889-.616-1.562-1.378-2.017-2.285-.445-.906-.587-1.893-.428-2.962.143-.957.449-1.78.918-2.469.469-.69 1.101-1.24 1.895-1.65.806-.409 1.777-.66 2.914-.756 1.139-.106 2.442-.05 3.911.17l2.706.402ZM151.139 59.78l7.317-15.421 5.827.868L153.608 65.1c-.231.437-.524.9-.88 1.387a6.38 6.38 0 0 1-1.32 1.356c-.523.416-1.16.724-1.91.923-.751.198-1.641.22-2.67.067-.52-.077-.921-.166-1.201-.265-.271-.086-.629-.22-1.075-.402l.554-3.834.399.06c.125.03.252.055.379.073.647.097 1.178.107 1.591.03.425-.074.767-.23 1.027-.467.27-.225.504-.529.704-.913l1.933-3.336Zm.761-16.399 1.947 13.576-.174 5.685-3.687-.36-3.914-19.77 5.828.87Z"/></g><rect width="398.053" height="232.731" x="35.807" y=".568" stroke="url(#k)" rx="19.5" transform="rotate(8.48 35.807 .568)"/><defs><linearGradient id="b" x1="35.386" x2="434.439" y1="0" y2="233.731" gradientUnits="userSpaceOnUse"><stop stop-color="#5077F6"/><stop offset="1" stop-color="#674ABB"/></linearGradient><linearGradient id="c" x1="42.971" x2="89.893" y1="77.981" y2="117.639" gradientUnits="userSpaceOnUse"><stop stop-color="#E1C7AB"/><stop offset="1" stop-color="#BA8247"/></linearGradient><linearGradient id="d" x1="42.971" x2="89.893" y1="77.981" y2="117.639" gradientUnits="userSpaceOnUse"><stop stop-color="#E1C7AB"/><stop offset="1" stop-color="#BA8247"/></linearGradient><linearGradient id="e" x1="42.971" x2="89.893" y1="77.981" y2="117.639" gradientUnits="userSpaceOnUse"><stop stop-color="#E1C7AB"/><stop offset="1" stop-color="#BA8247"/></linearGradient><linearGradient id="f" x1="42.971" x2="89.893" y1="77.981" y2="117.639" gradientUnits="userSpaceOnUse"><stop stop-color="#E1C7AB"/><stop offset="1" stop-color="#BA8247"/></linearGradient><linearGradient id="g" x1="42.971" x2="89.893" y1="77.981" y2="117.639" gradientUnits="userSpaceOnUse"><stop stop-color="#E1C7AB"/><stop offset="1" stop-color="#BA8247"/></linearGradient><linearGradient id="h" x1="42.971" x2="89.893" y1="77.981" y2="117.639" gradientUnits="userSpaceOnUse"><stop stop-color="#E1C7AB"/><stop offset="1" stop-color="#BA8247"/></linearGradient><linearGradient id="i" x1="42.971" x2="89.893" y1="77.981" y2="117.639" gradientUnits="userSpaceOnUse"><stop stop-color="#E1C7AB"/><stop offset="1" stop-color="#BA8247"/></linearGradient><linearGradient id="k" x1="35.386" x2="434.439" y1="0" y2="233.731" gradientUnits="userSpaceOnUse"><stop stop-color="#9B999F"/><stop offset="1" stop-color="#3C3C3C"/></linearGradient><clipPath id="a"><rect width="399.053" height="233.731" x="35.386" fill="#fff" rx="20" transform="rotate(8.48 35.386 0)"/></clipPath><clipPath id="j"><path fill="#fff" d="m130.647 89.133-5.325 35.71-35.71-5.324 5.325-35.71z"/></clipPath></defs></svg>