<svg xmlns="http://www.w3.org/2000/svg" width="57" height="35" fill="none"><path fill="#F8F8F8" d="M11.142 0h14.2c1.983 0 3.216 1.588 2.754 3.542l-6.612 27.887c-.467 1.947-2.451 3.536-4.435 3.536H2.85c-1.979 0-3.214-1.589-2.752-3.536L6.711 3.542C7.174 1.588 9.157 0 11.142 0Z"/><path fill="#BEBEBE" d="M24.161 0h16.33c1.983 0 1.089 1.588.623 3.541l-6.61 27.888c-.465 1.947-.32 3.536-2.306 3.536h-16.33c-1.987 0-3.216-1.589-2.75-3.536L19.73 3.541c.47-1.953 2.449-3.54 4.432-3.54Z"/><path fill="#A4A4A4" d="M39.844 0h14.2c1.985 0 3.218 1.588 2.752 3.541l-6.61 27.888c-.467 1.947-2.453 3.536-4.438 3.536H31.554c-1.986 0-3.218-1.589-2.753-3.536l6.612-27.888c.462-1.953 2.445-3.54 4.43-3.54Z"/><path fill="#000" d="M14.85 8.937c-1.46.015-1.891 0-2.029-.032-.053.248-1.038 4.713-1.041 4.717-.212.904-.367 1.548-.891 1.964a1.605 1.605 0 0 1-1.048.358c-.648 0-1.025-.316-1.088-.915l-.012-.206s.197-1.21.197-1.217c0 0 1.034-4.07 1.22-4.607a.383.383 0 0 0 .014-.062c-2.013.018-2.37 0-2.394-.032-.014.044-.064.297-.064.297l-1.056 4.587-.09.389-.176 1.272c0 .378.076.686.226.946.48.826 1.853.95 2.63.95 1 0 1.938-.209 2.572-.59 1.101-.64 1.39-1.638 1.646-2.525l.119-.456S14.65 9.548 14.831 9c.007-.031.01-.047.02-.062Zm3.625 3.41c-.256 0-.726.061-1.147.264-.153.078-.298.167-.45.255l.137-.488-.075-.082c-.894.177-1.095.201-1.92.315l-.07.046c-.095.78-.18 1.368-.536 2.903-.135.566-.276 1.138-.417 1.702l.038.072a20.895 20.895 0 0 1 1.839-.032l.06-.064c.093-.47.105-.58.312-1.533.097-.451.3-1.444.4-1.797.184-.084.365-.166.538-.166.413 0 .362.353.346.494-.017.237-.167 1.008-.321 1.671l-.103.428c-.072.316-.15.623-.222.936l.031.063a20.122 20.122 0 0 1 1.801-.032l.084-.064c.128-.734.166-.93.395-2l.115-.492c.223-.961.335-1.449.166-1.846-.178-.445-.607-.553-1-.553Zm4.05 1.007c-.444.084-.726.14-1.007.176-.279.043-.55.083-.98.142l-.033.03-.031.024c-.045.314-.076.585-.135.903-.05.33-.128.704-.253 1.242a4.816 4.816 0 0 1-.203.7c-.054.145-.114.286-.223.691l.026.037.021.035c.4-.019.662-.032.932-.035.269-.01.547 0 .979.003l.037-.03.04-.034c.063-.365.072-.463.11-.642.038-.19.103-.455.263-1.162.075-.332.16-.663.238-1.001.081-.338.166-.67.247-1.002l-.012-.04-.016-.037Zm.01-1.357c-.404-.234-1.11-.16-1.587.163-.474.316-.528.765-.127 1.002.396.227 1.106.159 1.578-.166.473-.324.533-.768.135-1Zm2.436 5.41c.815 0 1.65-.22 2.28-.876.483-.53.705-1.321.782-1.647.25-1.078.055-1.582-.19-1.889-.371-.467-1.028-.617-1.71-.617-.41 0-1.385.04-2.148.73-.547.498-.8 1.175-.953 1.823-.154.66-.331 1.849.781 2.291.344.145.839.185 1.158.185Zm-.064-2.427c.188-.817.41-1.502.976-1.502.444 0 .476.51.279 1.33-.035.181-.197.858-.416 1.146-.153.212-.334.341-.534.341-.06 0-.414 0-.42-.517-.003-.255.05-.515.115-.798Zm5.164 2.322.063-.064c.09-.47.106-.58.306-1.533.1-.451.307-1.444.404-1.797.184-.084.362-.166.541-.166.41 0 .36.353.343.494-.015.237-.165 1.008-.322 1.671l-.097.428c-.074.316-.155.623-.227.936l.031.063a20.056 20.056 0 0 1 1.798-.032l.087-.064c.126-.735.16-.931.395-2l.112-.492c.224-.962.338-1.449.172-1.846-.184-.445-.615-.553-1.003-.553-.258 0-.73.061-1.148.264-.15.078-.3.166-.448.256l.128-.49-.068-.082c-.894.178-1.098.202-1.923.316l-.064.046c-.1.78-.18 1.368-.536 2.903-.136.566-.276 1.138-.417 1.702l.038.072c.848-.044 1.1-.044 1.835-.032Zm6.149.032c.053-.253.365-1.748.368-1.748 0 0 .266-1.098.282-1.137 0 0 .084-.115.168-.16h.123c1.163 0 2.476 0 3.505-.743.7-.51 1.179-1.264 1.392-2.18.056-.224.096-.49.096-.758 0-.35-.071-.697-.278-.968-.525-.721-1.57-.735-2.776-.74l-.595.005c-1.544.02-2.163.014-2.418-.017-.021.11-.062.307-.062.307l-.553 2.523-1.386 5.607c1.349-.016 1.901-.016 2.134.009Zm1.025-4.474.585-2.504.02-.129.008-.098.235.024 1.24.105c.48.182.677.65.539 1.263-.126.56-.495 1.03-.97 1.257-.39.192-.869.208-1.362.208h-.32l.025-.126Zm3.661 2.167c-.155.65-.334 1.84.774 2.263.353.148.669.191.99.175.34-.018.655-.185.946-.426l-.079.298.05.063a30.04 30.04 0 0 1 1.907-.026l.078-.059c.126-.728.245-1.434.572-2.826.16-.667.32-1.328.483-1.992l-.026-.073c-.89.162-1.129.197-1.986.316l-.065.052-.026.198a1.22 1.22 0 0 0-.624-.505c-.381-.147-1.276.043-2.046.731-.54.492-.8 1.165-.948 1.81Zm1.872.04c.19-.803.41-1.482.977-1.482.359 0 .548.326.51.88-.03.14-.064.285-.103.45-.057.238-.118.475-.178.711-.061.162-.132.315-.21.417-.146.203-.493.33-.694.33-.056 0-.407 0-.419-.508-.003-.253.05-.513.117-.799Zm9.771-2.65-.069-.077c-.881.176-1.041.204-1.851.311l-.06.059-.009.037-.003-.013c-.603 1.367-.585 1.072-1.076 2.148-.003-.05-.003-.08-.005-.132l-.123-2.332-.077-.078c-.924.176-.946.204-1.799.311l-.066.059c-.01.028-.01.058-.015.091l.006.012c.106.536.08.416.188 1.261.05.415.116.832.166 1.24.084.686.131 1.023.234 2.07-.576.933-.713 1.286-1.267 2.106l.004.008-.39.607c-.045.064-.086.107-.143.126a.598.598 0 0 1-.255.036h-.217l-.321 1.05 1.103.02c.647-.003 1.055-.301 1.274-.7l.693-1.169h-.01l.072-.082c.467-.987 4.016-6.968 4.016-6.968ZM40.906 26.219h-.468l1.732-5.628h.575l.182-.58.018.645c-.021.398.298.752 1.136.693h.97l.333-1.084h-.365c-.21 0-.307-.052-.294-.163l-.018-.656H42.91v.003c-.58.012-2.313.055-2.664.147-.425.107-.873.423-.873.423l.176-.58h-1.68l-.35 1.152-1.754 5.714h-.341l-.334 1.076h3.345l-.112.359h1.648l.11-.359h.462l.362-1.162Zm-1.372-4.485c-.269.073-.77.295-.77.295l.446-1.438h1.334l-.322 1.048s-.412.024-.688.095Zm.026 2.055s-.42.052-.696.113c-.271.081-.78.336-.78.336l.459-1.497h1.341l-.325 1.048Zm-.748 2.443h-1.339l.388-1.263h1.335l-.384 1.263Zm3.223-3.49h1.93l-.278.881h-1.955l-.293.965h1.71l-1.295 1.791a.532.532 0 0 1-.262.216.78.78 0 0 1-.348.098h-.474l-.326 1.056h1.241c.645 0 1.026-.288 1.308-.667l.888-1.194.19 1.213c.041.227.207.36.32.412.124.06.252.166.434.181.194.009.335.015.428.015h.61l.366-1.182h-.24c-.138 0-.376-.023-.417-.065-.04-.052-.04-.131-.062-.252l-.193-1.216h-.793l.348-.406h1.951l.3-.965h-1.806l.281-.882h1.8l.335-1.088h-5.37l-.328 1.088ZM25.74 26.476l.45-1.472h1.851l.338-1.095h-1.852l.283-.905h1.81l.335-1.06h-4.53l-.328 1.06h1.03l-.275.905H23.82l-.342 1.114h1.029l-.6 1.947c-.081.258.038.356.113.476a.495.495 0 0 0 .331.237c.182.04.306.064.475.064h2.086l.372-1.213-.925.125c-.178 0-.673-.02-.619-.183Zm.212-7.046-.469.833c-.1.182-.19.295-.272.347-.071.044-.213.062-.419.062h-.245l-.327 1.066h.813c.39 0 .69-.141.834-.212.154-.08.195-.034.314-.147l.274-.234h2.538l.337-1.11h-1.858l.325-.605h-1.845Zm3.747 7.067c-.043-.06-.012-.169.054-.393l.694-2.256h2.467c.36-.005.62-.009.788-.02.182-.02.379-.083.594-.197.222-.12.335-.246.431-.391.107-.145.279-.46.426-.949l.872-2.854-2.56.015s-.789.114-1.136.24c-.35.14-.85.534-.85.534l.23-.783h-1.581l-2.215 7.216c-.079.28-.131.484-.143.606-.005.131.169.262.28.36.133.098.33.082.517.098.198.015.479.024.867.024h1.215l.374-1.238-1.089.101a.288.288 0 0 1-.235-.113Zm1.195-4.172h2.592l-.165.507c-.023.012-.078-.025-.342.006h-2.244l.16-.513Zm.52-1.702h2.613l-.188.611s-1.232-.012-1.43.024c-.867.148-1.374.603-1.374.603l.378-1.238Zm1.965 3.908a.272.272 0 0 1-.102.157c-.053.033-.138.045-.265.045h-.37l.022-.618h-1.536l-.062 3.021c-.003.218.019.344.181.445.162.126.663.142 1.336.142h.962l.348-1.13-.838.045-.279.016c-.038-.016-.074-.03-.115-.07-.035-.035-.094-.014-.085-.232l.007-.774.879-.036c.474 0 .677-.151.85-.296.165-.138.22-.298.282-.513l.147-.685h-1.208l-.154.483Z"/></svg>