<svg xmlns="http://www.w3.org/2000/svg" width="72" height="21" fill="none"><g fill="#fff" clip-path="url(#a)"><path d="m68.805 15.064.898 2.398c.094.269.195.587.263.83h.017c.076-.243.16-.553.262-.847l.814-2.381h.788l-1.12 2.894c-.533 1.393-.897 2.106-1.407 2.542-.22.196-.48.345-.761.438-.062-.108-.341-.582-.341-.582.239-.078.46-.2.652-.36.271-.222.486-.504.628-.822a.525.525 0 0 0 .06-.176.635.635 0 0 0-.052-.193l-1.518-3.741h.817Zm-17.178-.093c1.254 0 1.56.847 1.56 1.661v1.519c-.006.326.017.651.067.973h-.677l-.06-.511h-.024a1.524 1.524 0 0 1-1.254.604c-.83 0-1.254-.58-1.254-1.167 0-.98.88-1.517 2.467-1.51v-.083c0-.335-.094-.94-.932-.94a2.09 2.09 0 0 0-.983.251l-.256-.436a2.566 2.566 0 0 1 1.346-.36Zm13.958 0c1.254 0 1.56.847 1.56 1.661v1.519c-.006.326.017.651.067.973h-.678l-.06-.511h-.024a1.524 1.524 0 0 1-1.254.604c-.831 0-1.254-.58-1.254-1.167 0-.98.882-1.517 2.467-1.51v-.083c0-.335-.094-.94-.933-.94a2.089 2.089 0 0 0-.982.251l-.255-.436a2.566 2.566 0 0 1 1.346-.36ZM42.848 13.38c.712 0 1.161.151 1.355.252 0 0-.225.388-.318.535a2.842 2.842 0 0 0-1.012-.174c-1.34 0-2.23.847-2.23 2.332 0 1.384.805 2.273 2.196 2.273a3.2 3.2 0 0 0 1.054-.173l.301.517c-.271.134-.813.269-1.508.269-1.61 0-2.823-1.006-2.823-2.86 0-1.77 1.213-2.972 2.985-2.972v.001Zm-5.543 1.592c1.34 0 1.696 1.167 1.696 1.913-.001.115-.01.23-.025.344h-2.882c.017.995.66 1.41 1.407 1.41.335.008.668-.043.984-.15.069.11.28.468.28.468a3.35 3.35 0 0 1-1.365.252c-1.263 0-2.017-.822-2.017-2.047s.727-2.189 1.924-2.189h-.002Zm18.203-1.073v1.166h1.068v.562H55.51v2.19c0 .503.144.788.56.788.06 0 .116 0 .167-.007.088.146.302.51.302.51a1.845 1.845 0 0 1-.66.099c-.349 0-.628-.11-.805-.31-.213-.219-.289-.579-.289-1.058v-2.212h-.636v-.562h.636v-1.165l.723-.001Zm5.653-.47c.73 0 1.263.168 1.602.47.314.268.503.68.503 1.182 0 .502-.153.914-.44 1.208-.39.41-1.026.62-1.746.62a2.57 2.57 0 0 1-.594-.05v2.265h-.737v-5.586c.467-.075.94-.11 1.412-.108v-.001Zm-32.34.042.678 2.86c.17.704.322 1.409.424 1.954h.017c.093-.562.271-1.233.466-1.962l.767-2.851h.771l.695 2.868c.161.67.314 1.341.402 1.937h.018c.118-.62.279-1.25.457-1.954l.754-2.852h.755l-1.62 5.653h-.77l-.721-2.944a16.878 16.878 0 0 1-.373-1.845h-.017a17.49 17.49 0 0 1-.452 1.845l-.804 2.944h-.772l-1.449-5.653h.775Zm17.272-.299v2.533h.017c.126-.219.311-.4.534-.52.232-.136.495-.208.763-.21.552 0 1.433.335 1.433 1.736v2.415h-.747v-2.332c0-.654-.245-1.209-.95-1.209-.223.005-.44.078-.62.21a1.06 1.06 0 0 0-.38.529.886.886 0 0 0-.051.352v2.45h-.746v-5.956l.747.002Zm4.635 4.793c0 .478.322.704.704.704.217.006.43-.057.608-.18.178-.121.313-.296.384-.5a.764.764 0 0 0 .042-.234v-.705c-.814-.014-1.738.129-1.738.915Zm13.958 0c0 .478.322.704.704.704.217.006.43-.057.608-.18.178-.121.313-.296.383-.5a.76.76 0 0 0 .043-.234v-.705c-.814-.014-1.738.129-1.738.915ZM37.246 15.5c-.754 0-1.085.687-1.144 1.199h2.178c.008-.47-.195-1.2-1.034-1.2Zm23.935-1.493a3.128 3.128 0 0 0-.695.059v2.197c.2.044.405.064.61.059.89 0 1.433-.428 1.433-1.208-.003-.747-.537-1.108-1.351-1.108l.003.001ZM56.16 1.263v1.485h4.439v.77h-4.44v1.613h3.584s-.46 2.317-3.145 4.267c1.086.567 2.514.968 4.262 1.238 0 0-.282.498-.524.881-1.91-.328-3.4-.903-4.569-1.578-1.177.691-2.7 1.293-4.669 1.632-.137-.2-.51-.856-.51-.856 1.784-.277 3.254-.724 4.352-1.307-2.7-1.915-3.218-4.279-3.218-4.279h3.573V3.517h-4.611v-.77h4.61V1.264h.866ZM29.866 4.1l.691.363c-.328.774-.634 1.3-.719 1.465v5.611h-.777V7.141c-.447.597-.704.903-.839 1.05l-.44-.754c.833-.875 1.572-2.076 2.084-3.336ZM64.17 1.294l.905.199-.028.073a33.563 33.563 0 0 1-1.025 2.41v7.564h-.869V5.606c-.316.508-.661.998-1.033 1.468l-.475-.828c1.02-1.374 1.877-3.042 2.502-4.895l.023-.057Zm-22.764 0 .82.199s-.523 1.627-.922 2.488v7.563h-.866V5.636c-.347.646-.58 1.071-.873 1.452l-.468-.803c1.213-1.517 2.306-4.993 2.306-4.993l.003.002Zm-5.512-.041.779.154-.018.07c-.161.61-.34 1.209-.53 1.782h2.333v.73h-.562c-.145 2.07-.516 3.675-1.102 4.77.465.895 1.36 1.733 1.61 1.96-.057.106-.447.767-.447.767s-1.296-1.313-1.59-1.95c-.33.549-.938 1.26-1.763 1.991l-.414-.728s1.128-.927 1.768-2.045a12.4 12.4 0 0 1-.786-3.212 8.043 8.043 0 0 1-.349.57s-.364-.626-.438-.743c.655-1.14 1.145-2.482 1.495-4.051l.014-.065ZM70.5 1.34v2.428h1.502v.814h-1.508v5.286c0 .404-.163.792-.451 1.078-.288.286-.68.447-1.088.449H67.95V10.5h1.006c.17 0 .333-.067.453-.186a.632.632 0 0 0 .188-.449V4.581h-4.81v-.814h4.81V1.339l.904.002ZM48.939 7.8v3.55h-6.1V7.799l6.1.002Zm-14.984-.425v1.962c.145-.123.592-.51.742-.643l.359.615-1.645 1.374s-.349-.597-.419-.707c.1-.107.226-.327.226-.747V8.103h-1.495c0 1.678-.069 2.289-1.199 3.16 0 0-.272-.476-.394-.675.971-.76.856-1.798.856-3.214l2.969.002Zm14.16 1.194h-4.41v2.051h4.408l.002-2.05Zm10.412-2.678h-5.571c.319.657 1.106 1.925 2.816 3.028 1.693-1.12 2.46-2.4 2.755-3.028Zm8.012-.052 1.573 2.47-.82.444-1.472-2.488.72-.426ZM37.157 3.987h-1.284a6.079 6.079 0 0 1-.16.41c.16 1.52.396 2.688.703 3.465.382-.906.631-2.207.74-3.875ZM49.024 6.1v.73h-6.27V6.1h6.27ZM34.34 5.718v.73h-3.52v-.725l3.52-.005Zm14.682-1.315v.73h-6.27v-.73h6.27ZM33.01 1.433v2.674h.797v-1.91h.694v2.596h-3.76V2.24h.735v1.867h.795V1.433h.74Zm-3.106-.177.68.44a10.126 10.126 0 0 1-2.258 3.041l-.41-.706c.744-.71 1.448-1.712 1.989-2.776h-.001Zm15.98.037.611 1.371h3.128v.77h-7.426v-.77h3.431l-.445-1.07.7-.301ZM8.746 13.287a.813.813 0 0 1-1.06-.32l-.052-.114-2.188-4.757a.41.41 0 0 1-.039-.167.395.395 0 0 1 .224-.35.406.406 0 0 1 .417.035l2.584 1.82a1.2 1.2 0 0 0 1.068.122L21.85 4.2C19.67 1.66 16.084 0 12.025 0 5.388.001 0 4.441 0 9.92c0 2.986 1.62 5.679 4.155 7.497a.798.798 0 0 1 .336.648.93.93 0 0 1-.042.252l-.542 2c-.034.094-.055.191-.064.29 0 .106.042.207.117.282a.404.404 0 0 0 .285.116.456.456 0 0 0 .231-.073l2.633-1.504c.193-.116.413-.18.639-.183.12 0 .238.018.353.053 1.275.36 2.595.544 3.922.543 6.637 0 12.027-4.44 12.027-9.918a8.522 8.522 0 0 0-1.367-4.597L8.836 13.237l-.09.05Z"/></g><defs><clipPath id="a"><path fill="#fff" d="M0 0h72v21H0z"/></clipPath></defs></svg>