<svg width="255" height="255" viewBox="0 0 255 255" fill="none" xmlns="http://www.w3.org/2000/svg">
<rect width="255" height="255" rx="50" fill="black"/>
<path d="M78.2 39.4521L55.6694 109.477H34.8167L67.1145 23H80.2972L78.2 39.4521ZM96.8956 109.477L74.3051 39.4521L71.9681 23H85.3307L117.748 109.477H96.8956ZM95.9368 77.2859V92.2532H50.4562V77.2859H95.9368Z" fill="white"/>
<path d="M140.399 58.6957V109.477H121.703V45.2133H139.26L140.399 58.6957ZM138.002 75.0884L133.268 75.2071C133.268 70.6932 133.807 66.5554 134.886 62.7938C136.004 58.9926 137.622 55.6864 139.74 52.8751C141.857 50.0638 144.473 47.886 147.589 46.3418C150.745 44.7975 154.38 44.0254 158.495 44.0254C161.371 44.0254 163.988 44.461 166.345 45.3321C168.702 46.1636 170.719 47.49 172.397 49.3114C174.115 51.0933 175.433 53.4294 176.352 56.3199C177.271 59.1708 177.73 62.5959 177.73 66.595V109.477H159.034V68.852C159.034 66.0011 158.675 63.8431 157.956 62.3781C157.277 60.8734 156.278 59.8439 154.96 59.2896C153.641 58.7353 152.063 58.4581 150.226 58.4581C148.229 58.4581 146.451 58.8936 144.893 59.7648C143.375 60.5963 142.097 61.7643 141.058 63.269C140.019 64.7736 139.24 66.5356 138.721 68.555C138.242 70.5744 138.002 72.7522 138.002 75.0884ZM175.812 74.1381L169.88 74.6132C169.88 70.2577 170.4 66.2189 171.438 62.4969C172.477 58.7749 174.035 55.5478 176.112 52.8157C178.189 50.044 180.766 47.886 183.842 46.3418C186.958 44.7975 190.573 44.0254 194.688 44.0254C197.724 44.0254 200.48 44.461 202.957 45.3321C205.474 46.2032 207.631 47.6088 209.429 49.549C211.266 51.4892 212.684 54.0432 213.683 57.2108C214.682 60.3389 215.181 64.1797 215.181 68.7332V109.477H196.366V68.7332C196.366 65.9219 196.006 63.7837 195.287 62.3187C194.608 60.8536 193.609 59.8439 192.291 59.2896C191.013 58.7353 189.475 58.4581 187.677 58.4581C185.68 58.4581 183.942 58.8738 182.464 59.7054C180.986 60.4973 179.747 61.606 178.749 63.0314C177.75 64.4173 177.011 66.0605 176.532 67.9611C176.052 69.8617 175.812 71.9207 175.812 74.1381Z" fill="white"/>
<path d="M62.3951 174.992H40.4637V159.965H62.3951C65.6308 159.965 68.2274 159.43 70.1849 158.361C72.1823 157.292 73.6404 155.827 74.5592 153.966C75.5179 152.066 75.9973 149.927 75.9973 147.552C75.9973 145.097 75.5179 142.82 74.5592 140.721C73.6404 138.583 72.1823 136.861 70.1849 135.554C68.2274 134.248 65.6308 133.594 62.3951 133.594H47.5345V205.045H28V118.568H62.3951C69.346 118.568 75.2982 119.815 80.2517 122.309C85.2452 124.804 89.0602 128.229 91.6968 132.585C94.3733 136.9 95.7115 141.85 95.7115 147.433C95.7115 153.016 94.3733 157.866 91.6968 161.984C89.0602 166.102 85.2452 169.31 80.2517 171.606C75.2982 173.863 69.346 174.992 62.3951 174.992Z" fill="url(#paint0_linear_198_15862)"/>
<path d="M140.233 189.721V162.163C140.233 160.222 139.934 158.559 139.335 157.174C138.735 155.788 137.797 154.699 136.518 153.907C135.24 153.115 133.582 152.719 131.545 152.719C129.827 152.719 128.329 153.016 127.051 153.61C125.812 154.204 124.853 155.055 124.174 156.164C123.535 157.273 123.216 158.639 123.216 160.262H104.52C104.52 157.372 105.179 154.679 106.497 152.184C107.816 149.69 109.693 147.492 112.13 145.592C114.607 143.691 117.563 142.226 120.998 141.197C124.434 140.128 128.289 139.593 132.563 139.593C137.637 139.593 142.151 140.444 146.106 142.147C150.1 143.81 153.256 146.324 155.573 149.69C157.89 153.016 159.049 157.213 159.049 162.281V189.187C159.049 193.067 159.268 196.116 159.708 198.333C160.187 200.511 160.866 202.412 161.745 204.035V205.045H142.87C141.991 203.184 141.332 200.887 140.892 198.155C140.453 195.384 140.233 192.572 140.233 189.721ZM142.57 165.845L142.69 176.061H133.402C131.325 176.061 129.527 176.318 128.009 176.833C126.531 177.348 125.333 178.06 124.414 178.971C123.495 179.842 122.816 180.872 122.377 182.06C121.977 183.208 121.777 184.475 121.777 185.861C121.777 187.167 122.097 188.355 122.736 189.424C123.375 190.454 124.254 191.266 125.373 191.859C126.491 192.453 127.79 192.75 129.268 192.75C131.705 192.75 133.782 192.275 135.5 191.325C137.257 190.375 138.615 189.226 139.574 187.88C140.533 186.494 141.012 185.207 141.012 184.02L145.506 191.741C144.787 193.325 143.909 194.968 142.87 196.67C141.831 198.333 140.513 199.897 138.915 201.363C137.317 202.788 135.38 203.956 133.103 204.867C130.866 205.777 128.169 206.233 125.013 206.233C120.939 206.233 117.243 205.421 113.928 203.798C110.612 202.135 107.956 199.858 105.958 196.967C104.001 194.077 103.022 190.751 103.022 186.989C103.022 183.624 103.641 180.634 104.88 178.021C106.118 175.407 107.976 173.19 110.452 171.369C112.969 169.547 116.125 168.181 119.92 167.27C123.715 166.32 128.149 165.845 133.223 165.845H142.57Z" fill="url(#paint1_linear_198_15862)"/>
<path d="M189.908 197.621L206.866 140.781H227L200.934 214.667C200.375 216.29 199.616 218.032 198.657 219.893C197.738 221.754 196.48 223.536 194.882 225.239C193.324 226.941 191.327 228.327 188.89 229.396C186.453 230.465 183.457 231 179.902 231C178.104 231 176.706 230.901 175.707 230.703C174.748 230.545 173.47 230.267 171.872 229.872L171.812 216.389C172.331 216.389 172.791 216.389 173.19 216.389C173.63 216.429 174.069 216.449 174.509 216.449C176.746 216.449 178.543 216.211 179.902 215.736C181.3 215.261 182.378 214.548 183.137 213.598C183.936 212.687 184.575 211.519 185.055 210.093L189.908 197.621ZM184.216 140.781L197.638 186.514L199.915 206.173L187.272 206.827L164.082 140.781H184.216Z" fill="url(#paint2_linear_198_15862)"/>
<defs>
<linearGradient id="paint0_linear_198_15862" x1="170.009" y1="23" x2="170.009" y2="231.398" gradientUnits="userSpaceOnUse">
<stop stop-color="#2792F4"/>
<stop offset="1" stop-color="#7170E5"/>
</linearGradient>
<linearGradient id="paint1_linear_198_15862" x1="170.009" y1="23" x2="170.009" y2="231.398" gradientUnits="userSpaceOnUse">
<stop stop-color="#2792F4"/>
<stop offset="1" stop-color="#7170E5"/>
</linearGradient>
<linearGradient id="paint2_linear_198_15862" x1="170.009" y1="23" x2="170.009" y2="231.398" gradientUnits="userSpaceOnUse">
<stop stop-color="#2792F4"/>
<stop offset="1" stop-color="#7170E5"/>
</linearGradient>
</defs>
</svg>
